<mxfile host="Electron" modified="2025-05-02T09:34:25.447Z" agent="Mozilla/5.0 (Windows NT 10.0; Win64; x64) AppleWebKit/537.36 (KHTML, like Gecko) draw.io/22.0.2 Chrome/114.0.5735.289 Electron/25.8.4 Safari/537.36" etag="v8-UiF7790kMRolX3pE5" version="22.0.2" type="device" pages="8">
  <diagram name="k_array" id="7lh8V1oe27osOKO7M_D4">
    <mxGraphModel dx="683" dy="402" grid="1" gridSize="10" guides="1" tooltips="1" connect="1" arrows="1" fold="1" page="1" pageScale="1" pageWidth="827" pageHeight="1169" math="0" shadow="0">
      <root>
        <mxCell id="0" />
        <mxCell id="1" parent="0" />
        <mxCell id="3MoM6ddSk4JPKyGGKGuM-1" value="&lt;font face=&quot;Times New Roman&quot;&gt;: &lt;u&gt;k_array&lt;/u&gt;&lt;/font&gt;" style="swimlane;fontStyle=0;childLayout=stackLayout;horizontal=1;startSize=20;fillColor=#FFFFFF;horizontalStack=0;resizeParent=1;resizeParentMax=0;resizeLast=0;collapsible=0;marginBottom=0;whiteSpace=wrap;html=1;labelBackgroundColor=default;" vertex="1" parent="1">
          <mxGeometry x="120" y="140" width="180" height="140" as="geometry">
            <mxRectangle x="80" y="480" width="80" height="30" as="alternateBounds" />
          </mxGeometry>
        </mxCell>
        <mxCell id="3MoM6ddSk4JPKyGGKGuM-42" value="" style="shape=table;html=1;whiteSpace=wrap;startSize=0;container=1;collapsible=0;childLayout=tableLayout;columnLines=0;rowLines=0;fontSize=16;strokeColor=default;align=left;" vertex="1" parent="3MoM6ddSk4JPKyGGKGuM-1">
          <mxGeometry y="20" width="180" height="120" as="geometry" />
        </mxCell>
        <mxCell id="3MoM6ddSk4JPKyGGKGuM-43" value="" style="shape=tableRow;horizontal=0;startSize=0;swimlaneHead=0;swimlaneBody=0;top=0;left=0;bottom=0;right=0;collapsible=0;dropTarget=0;fillColor=none;points=[[0,0.5],[1,0.5]];portConstraint=eastwest;fontSize=16;strokeColor=inherit;" vertex="1" parent="3MoM6ddSk4JPKyGGKGuM-42">
          <mxGeometry width="180" height="20" as="geometry" />
        </mxCell>
        <mxCell id="3MoM6ddSk4JPKyGGKGuM-44" value="- fn_malloc" style="shape=partialRectangle;html=1;whiteSpace=wrap;connectable=0;fillColor=none;top=0;left=0;bottom=0;right=0;overflow=hidden;fontSize=12;strokeColor=inherit;align=left;fontFamily=Times New Roman;" vertex="1" parent="3MoM6ddSk4JPKyGGKGuM-43">
          <mxGeometry width="61" height="20" as="geometry">
            <mxRectangle width="61" height="20" as="alternateBounds" />
          </mxGeometry>
        </mxCell>
        <mxCell id="3MoM6ddSk4JPKyGGKGuM-45" value=": void *(*)(size_t )" style="shape=partialRectangle;html=1;whiteSpace=wrap;connectable=0;fillColor=none;top=0;left=0;bottom=0;right=0;overflow=hidden;fontSize=12;strokeColor=inherit;align=left;fontFamily=Times New Roman;" vertex="1" parent="3MoM6ddSk4JPKyGGKGuM-43">
          <mxGeometry x="61" width="101" height="20" as="geometry">
            <mxRectangle width="101" height="20" as="alternateBounds" />
          </mxGeometry>
        </mxCell>
        <mxCell id="3MoM6ddSk4JPKyGGKGuM-46" value="" style="shape=partialRectangle;html=1;whiteSpace=wrap;connectable=0;fillColor=none;top=0;left=0;bottom=0;right=0;overflow=hidden;fontSize=12;strokeColor=inherit;fontFamily=Times New Roman;" vertex="1" parent="3MoM6ddSk4JPKyGGKGuM-43">
          <mxGeometry x="162" width="18" height="20" as="geometry">
            <mxRectangle width="18" height="20" as="alternateBounds" />
          </mxGeometry>
        </mxCell>
        <mxCell id="3MoM6ddSk4JPKyGGKGuM-47" value="" style="shape=tableRow;horizontal=0;startSize=0;swimlaneHead=0;swimlaneBody=0;top=0;left=0;bottom=0;right=0;collapsible=0;dropTarget=0;fillColor=none;points=[[0,0.5],[1,0.5]];portConstraint=eastwest;fontSize=16;strokeColor=inherit;" vertex="1" parent="3MoM6ddSk4JPKyGGKGuM-42">
          <mxGeometry y="20" width="180" height="20" as="geometry" />
        </mxCell>
        <mxCell id="3MoM6ddSk4JPKyGGKGuM-48" value="- fn_free" style="shape=partialRectangle;html=1;whiteSpace=wrap;connectable=0;fillColor=none;top=0;left=0;bottom=0;right=0;overflow=hidden;fontSize=12;strokeColor=inherit;align=left;fontFamily=Times New Roman;" vertex="1" parent="3MoM6ddSk4JPKyGGKGuM-47">
          <mxGeometry width="61" height="20" as="geometry">
            <mxRectangle width="61" height="20" as="alternateBounds" />
          </mxGeometry>
        </mxCell>
        <mxCell id="3MoM6ddSk4JPKyGGKGuM-49" value=": void (*)(void *)" style="shape=partialRectangle;html=1;whiteSpace=wrap;connectable=0;fillColor=none;top=0;left=0;bottom=0;right=0;overflow=hidden;fontSize=12;strokeColor=inherit;align=left;fontFamily=Times New Roman;" vertex="1" parent="3MoM6ddSk4JPKyGGKGuM-47">
          <mxGeometry x="61" width="101" height="20" as="geometry">
            <mxRectangle width="101" height="20" as="alternateBounds" />
          </mxGeometry>
        </mxCell>
        <mxCell id="3MoM6ddSk4JPKyGGKGuM-50" value="" style="shape=partialRectangle;html=1;whiteSpace=wrap;connectable=0;fillColor=none;top=0;left=0;bottom=0;right=0;overflow=hidden;fontSize=12;strokeColor=inherit;fontFamily=Times New Roman;" vertex="1" parent="3MoM6ddSk4JPKyGGKGuM-47">
          <mxGeometry x="162" width="18" height="20" as="geometry">
            <mxRectangle width="18" height="20" as="alternateBounds" />
          </mxGeometry>
        </mxCell>
        <mxCell id="3MoM6ddSk4JPKyGGKGuM-51" value="" style="shape=tableRow;horizontal=0;startSize=0;swimlaneHead=0;swimlaneBody=0;top=0;left=0;bottom=0;right=0;collapsible=0;dropTarget=0;fillColor=none;points=[[0,0.5],[1,0.5]];portConstraint=eastwest;fontSize=16;strokeColor=inherit;" vertex="1" parent="3MoM6ddSk4JPKyGGKGuM-42">
          <mxGeometry y="40" width="180" height="20" as="geometry" />
        </mxCell>
        <mxCell id="3MoM6ddSk4JPKyGGKGuM-52" value="+ size" style="shape=partialRectangle;html=1;whiteSpace=wrap;connectable=0;fillColor=none;top=0;left=0;bottom=0;right=0;overflow=hidden;fontSize=12;strokeColor=inherit;align=left;fontFamily=Times New Roman;" vertex="1" parent="3MoM6ddSk4JPKyGGKGuM-51">
          <mxGeometry width="61" height="20" as="geometry">
            <mxRectangle width="61" height="20" as="alternateBounds" />
          </mxGeometry>
        </mxCell>
        <mxCell id="3MoM6ddSk4JPKyGGKGuM-53" value=": size_t" style="shape=partialRectangle;html=1;whiteSpace=wrap;connectable=0;fillColor=none;top=0;left=0;bottom=0;right=0;overflow=hidden;fontSize=12;strokeColor=inherit;align=left;fontFamily=Times New Roman;" vertex="1" parent="3MoM6ddSk4JPKyGGKGuM-51">
          <mxGeometry x="61" width="101" height="20" as="geometry">
            <mxRectangle width="101" height="20" as="alternateBounds" />
          </mxGeometry>
        </mxCell>
        <mxCell id="3MoM6ddSk4JPKyGGKGuM-54" value="" style="shape=partialRectangle;html=1;whiteSpace=wrap;connectable=0;fillColor=none;top=0;left=0;bottom=0;right=0;overflow=hidden;fontSize=12;strokeColor=inherit;fontFamily=Times New Roman;" vertex="1" parent="3MoM6ddSk4JPKyGGKGuM-51">
          <mxGeometry x="162" width="18" height="20" as="geometry">
            <mxRectangle width="18" height="20" as="alternateBounds" />
          </mxGeometry>
        </mxCell>
        <mxCell id="3MoM6ddSk4JPKyGGKGuM-68" style="shape=tableRow;horizontal=0;startSize=0;swimlaneHead=0;swimlaneBody=0;top=0;left=0;bottom=0;right=0;collapsible=0;dropTarget=0;fillColor=none;points=[[0,0.5],[1,0.5]];portConstraint=eastwest;fontSize=16;strokeColor=inherit;" vertex="1" parent="3MoM6ddSk4JPKyGGKGuM-42">
          <mxGeometry y="60" width="180" height="20" as="geometry" />
        </mxCell>
        <mxCell id="3MoM6ddSk4JPKyGGKGuM-69" value="+ elem_size" style="shape=partialRectangle;html=1;whiteSpace=wrap;connectable=0;fillColor=none;top=0;left=0;bottom=0;right=0;overflow=hidden;fontSize=12;strokeColor=inherit;align=left;fontFamily=Times New Roman;" vertex="1" parent="3MoM6ddSk4JPKyGGKGuM-68">
          <mxGeometry width="61" height="20" as="geometry">
            <mxRectangle width="61" height="20" as="alternateBounds" />
          </mxGeometry>
        </mxCell>
        <mxCell id="3MoM6ddSk4JPKyGGKGuM-70" value=": size_t" style="shape=partialRectangle;html=1;whiteSpace=wrap;connectable=0;fillColor=none;top=0;left=0;bottom=0;right=0;overflow=hidden;fontSize=12;strokeColor=inherit;align=left;fontFamily=Times New Roman;" vertex="1" parent="3MoM6ddSk4JPKyGGKGuM-68">
          <mxGeometry x="61" width="101" height="20" as="geometry">
            <mxRectangle width="101" height="20" as="alternateBounds" />
          </mxGeometry>
        </mxCell>
        <mxCell id="3MoM6ddSk4JPKyGGKGuM-71" style="shape=partialRectangle;html=1;whiteSpace=wrap;connectable=0;fillColor=none;top=0;left=0;bottom=0;right=0;overflow=hidden;fontSize=12;strokeColor=inherit;fontFamily=Times New Roman;" vertex="1" parent="3MoM6ddSk4JPKyGGKGuM-68">
          <mxGeometry x="162" width="18" height="20" as="geometry">
            <mxRectangle width="18" height="20" as="alternateBounds" />
          </mxGeometry>
        </mxCell>
        <mxCell id="3MoM6ddSk4JPKyGGKGuM-76" style="shape=tableRow;horizontal=0;startSize=0;swimlaneHead=0;swimlaneBody=0;top=0;left=0;bottom=0;right=0;collapsible=0;dropTarget=0;fillColor=none;points=[[0,0.5],[1,0.5]];portConstraint=eastwest;fontSize=16;strokeColor=inherit;" vertex="1" parent="3MoM6ddSk4JPKyGGKGuM-42">
          <mxGeometry y="80" width="180" height="20" as="geometry" />
        </mxCell>
        <mxCell id="3MoM6ddSk4JPKyGGKGuM-77" value="+ capacity" style="shape=partialRectangle;html=1;whiteSpace=wrap;connectable=0;fillColor=none;top=0;left=0;bottom=0;right=0;overflow=hidden;fontSize=12;strokeColor=inherit;align=left;fontFamily=Times New Roman;" vertex="1" parent="3MoM6ddSk4JPKyGGKGuM-76">
          <mxGeometry width="61" height="20" as="geometry">
            <mxRectangle width="61" height="20" as="alternateBounds" />
          </mxGeometry>
        </mxCell>
        <mxCell id="3MoM6ddSk4JPKyGGKGuM-78" value=": size_t" style="shape=partialRectangle;html=1;whiteSpace=wrap;connectable=0;fillColor=none;top=0;left=0;bottom=0;right=0;overflow=hidden;fontSize=12;strokeColor=inherit;align=left;fontFamily=Times New Roman;" vertex="1" parent="3MoM6ddSk4JPKyGGKGuM-76">
          <mxGeometry x="61" width="101" height="20" as="geometry">
            <mxRectangle width="101" height="20" as="alternateBounds" />
          </mxGeometry>
        </mxCell>
        <mxCell id="3MoM6ddSk4JPKyGGKGuM-79" style="shape=partialRectangle;html=1;whiteSpace=wrap;connectable=0;fillColor=none;top=0;left=0;bottom=0;right=0;overflow=hidden;fontSize=12;strokeColor=inherit;fontFamily=Times New Roman;" vertex="1" parent="3MoM6ddSk4JPKyGGKGuM-76">
          <mxGeometry x="162" width="18" height="20" as="geometry">
            <mxRectangle width="18" height="20" as="alternateBounds" />
          </mxGeometry>
        </mxCell>
        <mxCell id="3MoM6ddSk4JPKyGGKGuM-72" style="shape=tableRow;horizontal=0;startSize=0;swimlaneHead=0;swimlaneBody=0;top=0;left=0;bottom=0;right=0;collapsible=0;dropTarget=0;fillColor=none;points=[[0,0.5],[1,0.5]];portConstraint=eastwest;fontSize=16;strokeColor=inherit;" vertex="1" parent="3MoM6ddSk4JPKyGGKGuM-42">
          <mxGeometry y="100" width="180" height="20" as="geometry" />
        </mxCell>
        <mxCell id="3MoM6ddSk4JPKyGGKGuM-73" value="+ storage" style="shape=partialRectangle;html=1;whiteSpace=wrap;connectable=0;fillColor=none;top=0;left=0;bottom=0;right=0;overflow=hidden;fontSize=12;strokeColor=inherit;align=left;fontFamily=Times New Roman;" vertex="1" parent="3MoM6ddSk4JPKyGGKGuM-72">
          <mxGeometry width="61" height="20" as="geometry">
            <mxRectangle width="61" height="20" as="alternateBounds" />
          </mxGeometry>
        </mxCell>
        <mxCell id="3MoM6ddSk4JPKyGGKGuM-74" value=": void *" style="shape=partialRectangle;html=1;whiteSpace=wrap;connectable=0;fillColor=none;top=0;left=0;bottom=0;right=0;overflow=hidden;fontSize=12;strokeColor=inherit;align=left;fontFamily=Times New Roman;" vertex="1" parent="3MoM6ddSk4JPKyGGKGuM-72">
          <mxGeometry x="61" width="101" height="20" as="geometry">
            <mxRectangle width="101" height="20" as="alternateBounds" />
          </mxGeometry>
        </mxCell>
        <mxCell id="3MoM6ddSk4JPKyGGKGuM-75" style="shape=partialRectangle;html=1;whiteSpace=wrap;connectable=0;fillColor=none;top=0;left=0;bottom=0;right=0;overflow=hidden;fontSize=12;strokeColor=inherit;fontFamily=Times New Roman;container=1;collapsible=0;" vertex="1" parent="3MoM6ddSk4JPKyGGKGuM-72">
          <mxGeometry x="162" width="18" height="20" as="geometry">
            <mxRectangle width="18" height="20" as="alternateBounds" />
          </mxGeometry>
        </mxCell>
        <mxCell id="3MoM6ddSk4JPKyGGKGuM-80" value="" style="shape=waypoint;sketch=0;fillStyle=solid;size=6;pointerEvents=1;points=[];fillColor=#f8cecc;resizable=0;rotatable=0;perimeter=centerPerimeter;snapToPoint=1;strokeColor=#b85450;" vertex="1" parent="3MoM6ddSk4JPKyGGKGuM-75">
          <mxGeometry width="20" height="20" as="geometry" />
        </mxCell>
        <mxCell id="3MoM6ddSk4JPKyGGKGuM-175" value="" style="shape=table;startSize=0;container=1;collapsible=0;childLayout=tableLayout;fontSize=12;fontFamily=Times New Roman;" vertex="1" parent="1">
          <mxGeometry x="340" y="140" width="60" height="140" as="geometry" />
        </mxCell>
        <mxCell id="3MoM6ddSk4JPKyGGKGuM-176" value="" style="shape=tableRow;horizontal=0;startSize=0;swimlaneHead=0;swimlaneBody=0;strokeColor=inherit;top=0;left=0;bottom=0;right=0;collapsible=0;dropTarget=0;fillColor=none;points=[[0,0.5],[1,0.5]];portConstraint=eastwest;fontSize=12;fontFamily=Times New Roman;" vertex="1" parent="3MoM6ddSk4JPKyGGKGuM-175">
          <mxGeometry width="60" height="20" as="geometry" />
        </mxCell>
        <mxCell id="3MoM6ddSk4JPKyGGKGuM-177" value="elem 1" style="shape=partialRectangle;html=1;whiteSpace=wrap;connectable=0;strokeColor=inherit;overflow=hidden;fillColor=none;top=0;left=0;bottom=0;right=0;pointerEvents=1;fontSize=12;fontFamily=Times New Roman;" vertex="1" parent="3MoM6ddSk4JPKyGGKGuM-176">
          <mxGeometry width="60" height="20" as="geometry">
            <mxRectangle width="60" height="20" as="alternateBounds" />
          </mxGeometry>
        </mxCell>
        <mxCell id="3MoM6ddSk4JPKyGGKGuM-180" value="" style="shape=tableRow;horizontal=0;startSize=0;swimlaneHead=0;swimlaneBody=0;strokeColor=inherit;top=0;left=0;bottom=0;right=0;collapsible=0;dropTarget=0;fillColor=none;points=[[0,0.5],[1,0.5]];portConstraint=eastwest;fontSize=12;fontFamily=Times New Roman;" vertex="1" parent="3MoM6ddSk4JPKyGGKGuM-175">
          <mxGeometry y="20" width="60" height="20" as="geometry" />
        </mxCell>
        <mxCell id="3MoM6ddSk4JPKyGGKGuM-181" value="elem 2" style="shape=partialRectangle;html=1;whiteSpace=wrap;connectable=0;strokeColor=inherit;overflow=hidden;fillColor=none;top=0;left=0;bottom=0;right=0;pointerEvents=1;fontSize=12;fontFamily=Times New Roman;" vertex="1" parent="3MoM6ddSk4JPKyGGKGuM-180">
          <mxGeometry width="60" height="20" as="geometry">
            <mxRectangle width="60" height="20" as="alternateBounds" />
          </mxGeometry>
        </mxCell>
        <mxCell id="3MoM6ddSk4JPKyGGKGuM-184" value="" style="shape=tableRow;horizontal=0;startSize=0;swimlaneHead=0;swimlaneBody=0;strokeColor=inherit;top=0;left=0;bottom=0;right=0;collapsible=0;dropTarget=0;fillColor=none;points=[[0,0.5],[1,0.5]];portConstraint=eastwest;fontSize=12;fontFamily=Times New Roman;" vertex="1" parent="3MoM6ddSk4JPKyGGKGuM-175">
          <mxGeometry y="40" width="60" height="20" as="geometry" />
        </mxCell>
        <mxCell id="3MoM6ddSk4JPKyGGKGuM-185" value="elem 3" style="shape=partialRectangle;html=1;whiteSpace=wrap;connectable=0;strokeColor=inherit;overflow=hidden;fillColor=none;top=0;left=0;bottom=0;right=0;pointerEvents=1;fontSize=12;fontFamily=Times New Roman;" vertex="1" parent="3MoM6ddSk4JPKyGGKGuM-184">
          <mxGeometry width="60" height="20" as="geometry">
            <mxRectangle width="60" height="20" as="alternateBounds" />
          </mxGeometry>
        </mxCell>
        <mxCell id="3MoM6ddSk4JPKyGGKGuM-188" style="shape=tableRow;horizontal=0;startSize=0;swimlaneHead=0;swimlaneBody=0;strokeColor=inherit;top=0;left=0;bottom=0;right=0;collapsible=0;dropTarget=0;fillColor=none;points=[[0,0.5],[1,0.5]];portConstraint=eastwest;fontSize=12;fontFamily=Times New Roman;" vertex="1" parent="3MoM6ddSk4JPKyGGKGuM-175">
          <mxGeometry y="60" width="60" height="20" as="geometry" />
        </mxCell>
        <mxCell id="3MoM6ddSk4JPKyGGKGuM-189" value="elem 4" style="shape=partialRectangle;html=1;whiteSpace=wrap;connectable=0;strokeColor=inherit;overflow=hidden;fillColor=none;top=0;left=0;bottom=0;right=0;pointerEvents=1;fontSize=12;fontFamily=Times New Roman;" vertex="1" parent="3MoM6ddSk4JPKyGGKGuM-188">
          <mxGeometry width="60" height="20" as="geometry">
            <mxRectangle width="60" height="20" as="alternateBounds" />
          </mxGeometry>
        </mxCell>
        <mxCell id="3MoM6ddSk4JPKyGGKGuM-204" style="shape=tableRow;horizontal=0;startSize=0;swimlaneHead=0;swimlaneBody=0;strokeColor=inherit;top=0;left=0;bottom=0;right=0;collapsible=0;dropTarget=0;fillColor=none;points=[[0,0.5],[1,0.5]];portConstraint=eastwest;fontSize=12;fontFamily=Times New Roman;" vertex="1" parent="3MoM6ddSk4JPKyGGKGuM-175">
          <mxGeometry y="80" width="60" height="20" as="geometry" />
        </mxCell>
        <mxCell id="3MoM6ddSk4JPKyGGKGuM-205" value="elem 5" style="shape=partialRectangle;html=1;whiteSpace=wrap;connectable=0;strokeColor=inherit;overflow=hidden;fillColor=none;top=0;left=0;bottom=0;right=0;pointerEvents=1;fontSize=12;fontFamily=Times New Roman;" vertex="1" parent="3MoM6ddSk4JPKyGGKGuM-204">
          <mxGeometry width="60" height="20" as="geometry">
            <mxRectangle width="60" height="20" as="alternateBounds" />
          </mxGeometry>
        </mxCell>
        <mxCell id="3MoM6ddSk4JPKyGGKGuM-192" style="shape=tableRow;horizontal=0;startSize=0;swimlaneHead=0;swimlaneBody=0;strokeColor=inherit;top=0;left=0;bottom=0;right=0;collapsible=0;dropTarget=0;fillColor=none;points=[[0,0.5],[1,0.5]];portConstraint=eastwest;fontSize=12;fontFamily=Times New Roman;" vertex="1" parent="3MoM6ddSk4JPKyGGKGuM-175">
          <mxGeometry y="100" width="60" height="20" as="geometry" />
        </mxCell>
        <mxCell id="3MoM6ddSk4JPKyGGKGuM-193" value="-" style="shape=partialRectangle;html=1;whiteSpace=wrap;connectable=0;strokeColor=inherit;overflow=hidden;fillColor=none;top=0;left=0;bottom=0;right=0;pointerEvents=1;fontSize=12;fontFamily=Times New Roman;" vertex="1" parent="3MoM6ddSk4JPKyGGKGuM-192">
          <mxGeometry width="60" height="20" as="geometry">
            <mxRectangle width="60" height="20" as="alternateBounds" />
          </mxGeometry>
        </mxCell>
        <mxCell id="3MoM6ddSk4JPKyGGKGuM-196" style="shape=tableRow;horizontal=0;startSize=0;swimlaneHead=0;swimlaneBody=0;strokeColor=inherit;top=0;left=0;bottom=0;right=0;collapsible=0;dropTarget=0;fillColor=none;points=[[0,0.5],[1,0.5]];portConstraint=eastwest;fontSize=12;fontFamily=Times New Roman;" vertex="1" parent="3MoM6ddSk4JPKyGGKGuM-175">
          <mxGeometry y="120" width="60" height="20" as="geometry" />
        </mxCell>
        <mxCell id="3MoM6ddSk4JPKyGGKGuM-197" value="-" style="shape=partialRectangle;html=1;whiteSpace=wrap;connectable=0;strokeColor=inherit;overflow=hidden;fillColor=none;top=0;left=0;bottom=0;right=0;pointerEvents=1;fontSize=12;fontFamily=Times New Roman;" vertex="1" parent="3MoM6ddSk4JPKyGGKGuM-196">
          <mxGeometry width="60" height="20" as="geometry">
            <mxRectangle width="60" height="20" as="alternateBounds" />
          </mxGeometry>
        </mxCell>
        <mxCell id="3MoM6ddSk4JPKyGGKGuM-203" value="" style="endArrow=block;html=1;rounded=0;edgeStyle=orthogonalEdgeStyle;curved=1;entryX=0;entryY=0.5;entryDx=0;entryDy=0;endFill=1;fillColor=#f8cecc;strokeColor=#b85450;" edge="1" parent="1" source="3MoM6ddSk4JPKyGGKGuM-80" target="3MoM6ddSk4JPKyGGKGuM-176">
          <mxGeometry width="50" height="50" relative="1" as="geometry">
            <mxPoint x="290" y="270" as="sourcePoint" />
            <mxPoint x="380" y="210" as="targetPoint" />
            <Array as="points">
              <mxPoint x="292" y="150" />
            </Array>
          </mxGeometry>
        </mxCell>
        <mxCell id="3MoM6ddSk4JPKyGGKGuM-212" value="" style="shape=curlyBracket;whiteSpace=wrap;html=1;rounded=1;flipH=1;labelPosition=right;verticalLabelPosition=middle;align=left;verticalAlign=middle;" vertex="1" parent="1">
          <mxGeometry x="430" y="140" width="10" height="140" as="geometry" />
        </mxCell>
        <mxCell id="3MoM6ddSk4JPKyGGKGuM-213" value="" style="shape=curlyBracket;whiteSpace=wrap;html=1;rounded=1;flipH=1;labelPosition=right;verticalLabelPosition=middle;align=left;verticalAlign=middle;" vertex="1" parent="1">
          <mxGeometry x="420" y="140" width="10" height="100" as="geometry" />
        </mxCell>
        <mxCell id="3MoM6ddSk4JPKyGGKGuM-214" value="" style="shape=curlyBracket;whiteSpace=wrap;html=1;rounded=1;flipH=1;labelPosition=right;verticalLabelPosition=middle;align=left;verticalAlign=middle;size=0.5;" vertex="1" parent="1">
          <mxGeometry x="410" y="140" width="10" height="20" as="geometry" />
        </mxCell>
        <mxCell id="3MoM6ddSk4JPKyGGKGuM-215" value="elem_size" style="text;html=1;strokeColor=none;fillColor=none;align=left;verticalAlign=middle;whiteSpace=wrap;rounded=0;fontFamily=Times New Roman;" vertex="1" parent="1">
          <mxGeometry x="460" y="140" width="60" height="20" as="geometry" />
        </mxCell>
        <mxCell id="3MoM6ddSk4JPKyGGKGuM-216" value="size" style="text;html=1;strokeColor=none;fillColor=none;align=left;verticalAlign=middle;whiteSpace=wrap;rounded=0;fontFamily=Times New Roman;" vertex="1" parent="1">
          <mxGeometry x="460" y="180" width="60" height="20" as="geometry" />
        </mxCell>
        <mxCell id="3MoM6ddSk4JPKyGGKGuM-217" value="capacity" style="text;html=1;strokeColor=none;fillColor=none;align=left;verticalAlign=middle;whiteSpace=wrap;rounded=0;fontFamily=Times New Roman;" vertex="1" parent="1">
          <mxGeometry x="460" y="200" width="60" height="20" as="geometry" />
        </mxCell>
        <mxCell id="3MoM6ddSk4JPKyGGKGuM-218" value="" style="endArrow=none;dashed=1;html=1;rounded=0;curved=1;exitX=0.1;exitY=0.5;exitDx=0;exitDy=0;exitPerimeter=0;entryX=0;entryY=0.5;entryDx=0;entryDy=0;" edge="1" parent="1" source="3MoM6ddSk4JPKyGGKGuM-214" target="3MoM6ddSk4JPKyGGKGuM-215">
          <mxGeometry width="50" height="50" relative="1" as="geometry">
            <mxPoint x="490" y="130" as="sourcePoint" />
            <mxPoint x="540" y="80" as="targetPoint" />
          </mxGeometry>
        </mxCell>
        <mxCell id="3MoM6ddSk4JPKyGGKGuM-219" value="" style="endArrow=none;dashed=1;html=1;rounded=0;curved=1;exitX=0.1;exitY=0.5;exitDx=0;exitDy=0;exitPerimeter=0;entryX=0;entryY=0.5;entryDx=0;entryDy=0;" edge="1" parent="1" source="3MoM6ddSk4JPKyGGKGuM-213" target="3MoM6ddSk4JPKyGGKGuM-216">
          <mxGeometry width="50" height="50" relative="1" as="geometry">
            <mxPoint x="429" y="160" as="sourcePoint" />
            <mxPoint x="470" y="160" as="targetPoint" />
          </mxGeometry>
        </mxCell>
        <mxCell id="3MoM6ddSk4JPKyGGKGuM-220" value="" style="endArrow=none;dashed=1;html=1;rounded=0;curved=1;exitX=0.1;exitY=0.5;exitDx=0;exitDy=0;exitPerimeter=0;entryX=0;entryY=0.5;entryDx=0;entryDy=0;" edge="1" parent="1" source="3MoM6ddSk4JPKyGGKGuM-212" target="3MoM6ddSk4JPKyGGKGuM-217">
          <mxGeometry width="50" height="50" relative="1" as="geometry">
            <mxPoint x="439" y="200" as="sourcePoint" />
            <mxPoint x="470" y="200" as="targetPoint" />
          </mxGeometry>
        </mxCell>
        <mxCell id="H4N171VSc_ebrIoXX-Wa-2" value="&lt;font style=&quot;border-color: var(--border-color);&quot;&gt;获取下标为&amp;nbsp;&lt;/font&gt;&lt;font style=&quot;border-color: var(--border-color);&quot;&gt;idx&lt;/font&gt;&lt;font style=&quot;border-color: var(--border-color);&quot;&gt;&amp;nbsp;的元素时：&lt;/font&gt;&lt;br style=&quot;border-color: var(--border-color);&quot;&gt;&lt;div style=&quot;&quot;&gt;&lt;span style=&quot;background-color: initial;&quot;&gt;elem_type *e = (elem_type *)((char *)(arr-&amp;gt;storage) + idx * arr-&amp;gt;elem_size)&lt;/span&gt;&lt;/div&gt;" style="shape=note;whiteSpace=wrap;html=1;backgroundOutline=1;darkOpacity=0.05;size=10;container=1;collapsible=0;fontFamily=Times New Roman;align=left;" vertex="1" parent="1">
          <mxGeometry x="120" y="300" width="380" height="40" as="geometry" />
        </mxCell>
        <mxCell id="H4N171VSc_ebrIoXX-Wa-3" value="" style="endArrow=none;dashed=1;html=1;rounded=0;curved=1;" edge="1" parent="1" source="3MoM6ddSk4JPKyGGKGuM-1" target="H4N171VSc_ebrIoXX-Wa-2">
          <mxGeometry width="50" height="50" relative="1" as="geometry">
            <mxPoint x="520" y="260" as="sourcePoint" />
            <mxPoint x="570" y="210" as="targetPoint" />
          </mxGeometry>
        </mxCell>
      </root>
    </mxGraphModel>
  </diagram>
  <diagram id="caw5kc_sG-WxkAjOJkVj" name="k_tmpl_array">
    <mxGraphModel dx="1434" dy="844" grid="1" gridSize="10" guides="1" tooltips="1" connect="1" arrows="1" fold="1" page="1" pageScale="1" pageWidth="827" pageHeight="1169" math="0" shadow="0">
      <root>
        <mxCell id="0" />
        <mxCell id="1" parent="0" />
      </root>
    </mxGraphModel>
  </diagram>
  <diagram id="fI_7y9bRq2Ivz1HLsOru" name="k_list">
    <mxGraphModel dx="819" dy="482" grid="1" gridSize="10" guides="1" tooltips="1" connect="1" arrows="1" fold="1" page="1" pageScale="1" pageWidth="827" pageHeight="1169" math="0" shadow="0">
      <root>
        <mxCell id="0" />
        <mxCell id="1" parent="0" />
        <mxCell id="Lktodgax7KeShKQhTBZR-1" value="&lt;font&gt;: &lt;u&gt;k_list&lt;/u&gt;&lt;/font&gt;" style="swimlane;fontStyle=0;childLayout=stackLayout;horizontal=1;startSize=20;fillColor=#FFFFFF;horizontalStack=0;resizeParent=1;resizeParentMax=0;resizeLast=0;collapsible=0;marginBottom=0;whiteSpace=wrap;html=1;labelBackgroundColor=default;fontFamily=Times New Roman;" vertex="1" parent="1">
          <mxGeometry x="460" y="140" width="140" height="40" as="geometry">
            <mxRectangle x="80" y="480" width="80" height="30" as="alternateBounds" />
          </mxGeometry>
        </mxCell>
        <mxCell id="Lktodgax7KeShKQhTBZR-2" value="" style="shape=table;html=1;whiteSpace=wrap;startSize=0;container=1;collapsible=0;childLayout=tableLayout;columnLines=0;rowLines=0;fontSize=16;strokeColor=default;align=left;fontFamily=Times New Roman;" vertex="1" parent="Lktodgax7KeShKQhTBZR-1">
          <mxGeometry y="20" width="140" height="20" as="geometry" />
        </mxCell>
        <mxCell id="Lktodgax7KeShKQhTBZR-3" value="" style="shape=tableRow;horizontal=0;startSize=0;swimlaneHead=0;swimlaneBody=0;top=0;left=0;bottom=0;right=0;collapsible=0;dropTarget=0;fillColor=none;points=[[0,0.5],[1,0.5]];portConstraint=eastwest;fontSize=16;strokeColor=inherit;fontFamily=Times New Roman;" vertex="1" parent="Lktodgax7KeShKQhTBZR-2">
          <mxGeometry width="140" height="20" as="geometry" />
        </mxCell>
        <mxCell id="Lktodgax7KeShKQhTBZR-4" value="+ head" style="shape=partialRectangle;html=1;whiteSpace=wrap;connectable=0;fillColor=none;top=0;left=0;bottom=0;right=0;overflow=hidden;fontSize=12;strokeColor=inherit;align=left;fontFamily=Times New Roman;" vertex="1" parent="Lktodgax7KeShKQhTBZR-3">
          <mxGeometry width="48" height="20" as="geometry">
            <mxRectangle width="48" height="20" as="alternateBounds" />
          </mxGeometry>
        </mxCell>
        <mxCell id="Lktodgax7KeShKQhTBZR-5" value=":&amp;nbsp;&lt;span style=&quot;border-color: var(--border-color); text-align: center; background-color: rgb(255, 255, 255);&quot;&gt;k_list_node&lt;/span&gt;" style="shape=partialRectangle;html=1;whiteSpace=wrap;connectable=0;fillColor=none;top=0;left=0;bottom=0;right=0;overflow=hidden;fontSize=12;strokeColor=inherit;align=left;fontFamily=Times New Roman;" vertex="1" parent="Lktodgax7KeShKQhTBZR-3">
          <mxGeometry x="48" width="78" height="20" as="geometry">
            <mxRectangle width="78" height="20" as="alternateBounds" />
          </mxGeometry>
        </mxCell>
        <mxCell id="Lktodgax7KeShKQhTBZR-6" value="" style="shape=partialRectangle;html=1;whiteSpace=wrap;connectable=0;fillColor=none;top=0;left=0;bottom=0;right=0;overflow=hidden;fontSize=12;strokeColor=inherit;fontFamily=Times New Roman;" vertex="1" parent="Lktodgax7KeShKQhTBZR-3">
          <mxGeometry x="126" width="14" height="20" as="geometry">
            <mxRectangle width="14" height="20" as="alternateBounds" />
          </mxGeometry>
        </mxCell>
        <mxCell id="eg4iZR1lfLVg_DDGs85k-1" value="&lt;font&gt;: &lt;u&gt;k_list_node&lt;/u&gt;&lt;/font&gt;" style="swimlane;fontStyle=0;childLayout=stackLayout;horizontal=1;startSize=20;fillColor=#FFFFFF;horizontalStack=0;resizeParent=1;resizeParentMax=0;resizeLast=0;collapsible=0;marginBottom=0;whiteSpace=wrap;html=1;labelBackgroundColor=default;fontFamily=Times New Roman;" vertex="1" parent="1">
          <mxGeometry x="460" y="280" width="140" height="60" as="geometry">
            <mxRectangle x="80" y="480" width="80" height="30" as="alternateBounds" />
          </mxGeometry>
        </mxCell>
        <mxCell id="eg4iZR1lfLVg_DDGs85k-2" value="" style="shape=table;html=1;whiteSpace=wrap;startSize=0;container=1;collapsible=0;childLayout=tableLayout;columnLines=0;rowLines=0;fontSize=16;strokeColor=default;align=left;fontFamily=Times New Roman;" vertex="1" parent="eg4iZR1lfLVg_DDGs85k-1">
          <mxGeometry y="20" width="140" height="40" as="geometry" />
        </mxCell>
        <mxCell id="eg4iZR1lfLVg_DDGs85k-3" value="" style="shape=tableRow;horizontal=0;startSize=0;swimlaneHead=0;swimlaneBody=0;top=0;left=0;bottom=0;right=0;collapsible=0;dropTarget=0;fillColor=none;points=[[0,0.5],[1,0.5]];portConstraint=eastwest;fontSize=16;strokeColor=inherit;fontFamily=Times New Roman;" vertex="1" parent="eg4iZR1lfLVg_DDGs85k-2">
          <mxGeometry width="140" height="20" as="geometry" />
        </mxCell>
        <mxCell id="eg4iZR1lfLVg_DDGs85k-4" value="+ next" style="shape=partialRectangle;html=1;whiteSpace=wrap;connectable=0;fillColor=none;top=0;left=0;bottom=0;right=0;overflow=hidden;fontSize=12;strokeColor=inherit;align=left;fontFamily=Times New Roman;" vertex="1" parent="eg4iZR1lfLVg_DDGs85k-3">
          <mxGeometry width="40" height="20" as="geometry">
            <mxRectangle width="40" height="20" as="alternateBounds" />
          </mxGeometry>
        </mxCell>
        <mxCell id="eg4iZR1lfLVg_DDGs85k-5" value="&lt;span style=&quot;border-color: var(--border-color); text-align: center; background-color: rgb(255, 255, 255);&quot;&gt;: k_list_node *&lt;/span&gt;" style="shape=partialRectangle;html=1;whiteSpace=wrap;connectable=0;fillColor=none;top=0;left=0;bottom=0;right=0;overflow=hidden;fontSize=12;strokeColor=inherit;align=left;fontFamily=Times New Roman;" vertex="1" parent="eg4iZR1lfLVg_DDGs85k-3">
          <mxGeometry x="40" width="80" height="20" as="geometry">
            <mxRectangle width="80" height="20" as="alternateBounds" />
          </mxGeometry>
        </mxCell>
        <mxCell id="eg4iZR1lfLVg_DDGs85k-6" value="" style="shape=partialRectangle;html=1;whiteSpace=wrap;connectable=0;fillColor=none;top=0;left=0;bottom=0;right=0;overflow=hidden;fontSize=12;strokeColor=inherit;fontFamily=Times New Roman;container=1;collapsible=0;" vertex="1" parent="eg4iZR1lfLVg_DDGs85k-3">
          <mxGeometry x="120" width="20" height="20" as="geometry">
            <mxRectangle width="20" height="20" as="alternateBounds" />
          </mxGeometry>
        </mxCell>
        <mxCell id="eg4iZR1lfLVg_DDGs85k-28" value="" style="shape=waypoint;sketch=0;fillStyle=solid;size=6;pointerEvents=1;points=[];fillColor=#f8cecc;resizable=0;rotatable=0;perimeter=centerPerimeter;snapToPoint=1;strokeColor=#b85450;fontFamily=Times New Roman;" vertex="1" parent="eg4iZR1lfLVg_DDGs85k-6">
          <mxGeometry width="20" height="20" as="geometry" />
        </mxCell>
        <mxCell id="eg4iZR1lfLVg_DDGs85k-7" value="" style="shape=tableRow;horizontal=0;startSize=0;swimlaneHead=0;swimlaneBody=0;top=0;left=0;bottom=0;right=0;collapsible=0;dropTarget=0;fillColor=none;points=[[0,0.5],[1,0.5]];portConstraint=eastwest;fontSize=16;strokeColor=inherit;fontFamily=Times New Roman;" vertex="1" parent="eg4iZR1lfLVg_DDGs85k-2">
          <mxGeometry y="20" width="140" height="20" as="geometry" />
        </mxCell>
        <mxCell id="eg4iZR1lfLVg_DDGs85k-8" value="+ prev" style="shape=partialRectangle;html=1;whiteSpace=wrap;connectable=0;fillColor=none;top=0;left=0;bottom=0;right=0;overflow=hidden;fontSize=12;strokeColor=inherit;align=left;fontFamily=Times New Roman;" vertex="1" parent="eg4iZR1lfLVg_DDGs85k-7">
          <mxGeometry width="40" height="20" as="geometry">
            <mxRectangle width="40" height="20" as="alternateBounds" />
          </mxGeometry>
        </mxCell>
        <mxCell id="eg4iZR1lfLVg_DDGs85k-9" value="&lt;span style=&quot;border-color: var(--border-color); text-align: center; background-color: rgb(255, 255, 255);&quot;&gt;: k_list_node *&lt;/span&gt;" style="shape=partialRectangle;html=1;whiteSpace=wrap;connectable=0;fillColor=none;top=0;left=0;bottom=0;right=0;overflow=hidden;fontSize=12;strokeColor=inherit;align=left;fontFamily=Times New Roman;" vertex="1" parent="eg4iZR1lfLVg_DDGs85k-7">
          <mxGeometry x="40" width="80" height="20" as="geometry">
            <mxRectangle width="80" height="20" as="alternateBounds" />
          </mxGeometry>
        </mxCell>
        <mxCell id="eg4iZR1lfLVg_DDGs85k-10" value="" style="shape=partialRectangle;html=1;whiteSpace=wrap;connectable=0;fillColor=none;top=0;left=0;bottom=0;right=0;overflow=hidden;fontSize=12;strokeColor=inherit;fontFamily=Times New Roman;container=1;collapsible=0;" vertex="1" parent="eg4iZR1lfLVg_DDGs85k-7">
          <mxGeometry x="120" width="20" height="20" as="geometry">
            <mxRectangle width="20" height="20" as="alternateBounds" />
          </mxGeometry>
        </mxCell>
        <mxCell id="eg4iZR1lfLVg_DDGs85k-36" value="&lt;font&gt;: &lt;u&gt;k_list_node&lt;/u&gt;&lt;/font&gt;" style="swimlane;fontStyle=0;childLayout=stackLayout;horizontal=1;startSize=20;fillColor=#FFFFFF;horizontalStack=0;resizeParent=1;resizeParentMax=0;resizeLast=0;collapsible=0;marginBottom=0;whiteSpace=wrap;html=1;labelBackgroundColor=default;fontFamily=Times New Roman;" vertex="1" parent="1">
          <mxGeometry x="460" y="360" width="140" height="60" as="geometry">
            <mxRectangle x="80" y="480" width="80" height="30" as="alternateBounds" />
          </mxGeometry>
        </mxCell>
        <mxCell id="eg4iZR1lfLVg_DDGs85k-37" value="" style="shape=table;html=1;whiteSpace=wrap;startSize=0;container=1;collapsible=0;childLayout=tableLayout;columnLines=0;rowLines=0;fontSize=16;strokeColor=default;align=left;fontFamily=Times New Roman;" vertex="1" parent="eg4iZR1lfLVg_DDGs85k-36">
          <mxGeometry y="20" width="140" height="40" as="geometry" />
        </mxCell>
        <mxCell id="eg4iZR1lfLVg_DDGs85k-38" value="" style="shape=tableRow;horizontal=0;startSize=0;swimlaneHead=0;swimlaneBody=0;top=0;left=0;bottom=0;right=0;collapsible=0;dropTarget=0;fillColor=none;points=[[0,0.5],[1,0.5]];portConstraint=eastwest;fontSize=16;strokeColor=inherit;fontFamily=Times New Roman;" vertex="1" parent="eg4iZR1lfLVg_DDGs85k-37">
          <mxGeometry width="140" height="20" as="geometry" />
        </mxCell>
        <mxCell id="eg4iZR1lfLVg_DDGs85k-39" value="+ next" style="shape=partialRectangle;html=1;whiteSpace=wrap;connectable=0;fillColor=none;top=0;left=0;bottom=0;right=0;overflow=hidden;fontSize=12;strokeColor=inherit;align=left;fontFamily=Times New Roman;" vertex="1" parent="eg4iZR1lfLVg_DDGs85k-38">
          <mxGeometry width="40" height="20" as="geometry">
            <mxRectangle width="40" height="20" as="alternateBounds" />
          </mxGeometry>
        </mxCell>
        <mxCell id="eg4iZR1lfLVg_DDGs85k-40" value="&lt;span style=&quot;border-color: var(--border-color); text-align: center; background-color: rgb(255, 255, 255);&quot;&gt;: k_list_node *&lt;/span&gt;" style="shape=partialRectangle;html=1;whiteSpace=wrap;connectable=0;fillColor=none;top=0;left=0;bottom=0;right=0;overflow=hidden;fontSize=12;strokeColor=inherit;align=left;fontFamily=Times New Roman;" vertex="1" parent="eg4iZR1lfLVg_DDGs85k-38">
          <mxGeometry x="40" width="80" height="20" as="geometry">
            <mxRectangle width="80" height="20" as="alternateBounds" />
          </mxGeometry>
        </mxCell>
        <mxCell id="eg4iZR1lfLVg_DDGs85k-41" value="" style="shape=partialRectangle;html=1;whiteSpace=wrap;connectable=0;fillColor=none;top=0;left=0;bottom=0;right=0;overflow=hidden;fontSize=12;strokeColor=inherit;fontFamily=Times New Roman;container=1;collapsible=0;" vertex="1" parent="eg4iZR1lfLVg_DDGs85k-38">
          <mxGeometry x="120" width="20" height="20" as="geometry">
            <mxRectangle width="20" height="20" as="alternateBounds" />
          </mxGeometry>
        </mxCell>
        <mxCell id="eg4iZR1lfLVg_DDGs85k-42" value="" style="shape=waypoint;sketch=0;fillStyle=solid;size=6;pointerEvents=1;points=[];fillColor=#f8cecc;resizable=0;rotatable=0;perimeter=centerPerimeter;snapToPoint=1;strokeColor=#b85450;fontFamily=Times New Roman;" vertex="1" parent="eg4iZR1lfLVg_DDGs85k-41">
          <mxGeometry width="20" height="20" as="geometry" />
        </mxCell>
        <mxCell id="eg4iZR1lfLVg_DDGs85k-43" value="" style="shape=tableRow;horizontal=0;startSize=0;swimlaneHead=0;swimlaneBody=0;top=0;left=0;bottom=0;right=0;collapsible=0;dropTarget=0;fillColor=none;points=[[0,0.5],[1,0.5]];portConstraint=eastwest;fontSize=16;strokeColor=inherit;fontFamily=Times New Roman;" vertex="1" parent="eg4iZR1lfLVg_DDGs85k-37">
          <mxGeometry y="20" width="140" height="20" as="geometry" />
        </mxCell>
        <mxCell id="eg4iZR1lfLVg_DDGs85k-44" value="+ prev" style="shape=partialRectangle;html=1;whiteSpace=wrap;connectable=0;fillColor=none;top=0;left=0;bottom=0;right=0;overflow=hidden;fontSize=12;strokeColor=inherit;align=left;fontFamily=Times New Roman;" vertex="1" parent="eg4iZR1lfLVg_DDGs85k-43">
          <mxGeometry width="40" height="20" as="geometry">
            <mxRectangle width="40" height="20" as="alternateBounds" />
          </mxGeometry>
        </mxCell>
        <mxCell id="eg4iZR1lfLVg_DDGs85k-45" value="&lt;span style=&quot;border-color: var(--border-color); text-align: center; background-color: rgb(255, 255, 255);&quot;&gt;: k_list_node *&lt;/span&gt;" style="shape=partialRectangle;html=1;whiteSpace=wrap;connectable=0;fillColor=none;top=0;left=0;bottom=0;right=0;overflow=hidden;fontSize=12;strokeColor=inherit;align=left;fontFamily=Times New Roman;" vertex="1" parent="eg4iZR1lfLVg_DDGs85k-43">
          <mxGeometry x="40" width="80" height="20" as="geometry">
            <mxRectangle width="80" height="20" as="alternateBounds" />
          </mxGeometry>
        </mxCell>
        <mxCell id="eg4iZR1lfLVg_DDGs85k-46" value="" style="shape=partialRectangle;html=1;whiteSpace=wrap;connectable=0;fillColor=none;top=0;left=0;bottom=0;right=0;overflow=hidden;fontSize=12;strokeColor=inherit;fontFamily=Times New Roman;container=1;collapsible=0;" vertex="1" parent="eg4iZR1lfLVg_DDGs85k-43">
          <mxGeometry x="120" width="20" height="20" as="geometry">
            <mxRectangle width="20" height="20" as="alternateBounds" />
          </mxGeometry>
        </mxCell>
        <mxCell id="eg4iZR1lfLVg_DDGs85k-48" value="&lt;font&gt;head : &lt;u&gt;k_list_node&lt;/u&gt;&lt;/font&gt;" style="swimlane;fontStyle=0;childLayout=stackLayout;horizontal=1;startSize=20;fillColor=#FFFFFF;horizontalStack=0;resizeParent=1;resizeParentMax=0;resizeLast=0;collapsible=0;marginBottom=0;whiteSpace=wrap;html=1;labelBackgroundColor=default;fontFamily=Times New Roman;" vertex="1" parent="1">
          <mxGeometry x="460" y="200" width="140" height="60" as="geometry">
            <mxRectangle x="80" y="480" width="80" height="30" as="alternateBounds" />
          </mxGeometry>
        </mxCell>
        <mxCell id="eg4iZR1lfLVg_DDGs85k-49" value="" style="shape=table;html=1;whiteSpace=wrap;startSize=0;container=1;collapsible=0;childLayout=tableLayout;columnLines=0;rowLines=0;fontSize=16;strokeColor=default;align=left;fontFamily=Times New Roman;" vertex="1" parent="eg4iZR1lfLVg_DDGs85k-48">
          <mxGeometry y="20" width="140" height="40" as="geometry" />
        </mxCell>
        <mxCell id="eg4iZR1lfLVg_DDGs85k-50" value="" style="shape=tableRow;horizontal=0;startSize=0;swimlaneHead=0;swimlaneBody=0;top=0;left=0;bottom=0;right=0;collapsible=0;dropTarget=0;fillColor=none;points=[[0,0.5],[1,0.5]];portConstraint=eastwest;fontSize=16;strokeColor=inherit;fontFamily=Times New Roman;" vertex="1" parent="eg4iZR1lfLVg_DDGs85k-49">
          <mxGeometry width="140" height="20" as="geometry" />
        </mxCell>
        <mxCell id="eg4iZR1lfLVg_DDGs85k-51" value="+ next" style="shape=partialRectangle;html=1;whiteSpace=wrap;connectable=0;fillColor=none;top=0;left=0;bottom=0;right=0;overflow=hidden;fontSize=12;strokeColor=inherit;align=left;fontFamily=Times New Roman;" vertex="1" parent="eg4iZR1lfLVg_DDGs85k-50">
          <mxGeometry width="40" height="20" as="geometry">
            <mxRectangle width="40" height="20" as="alternateBounds" />
          </mxGeometry>
        </mxCell>
        <mxCell id="eg4iZR1lfLVg_DDGs85k-52" value="&lt;span style=&quot;border-color: var(--border-color); text-align: center; background-color: rgb(255, 255, 255);&quot;&gt;: k_list_node *&lt;/span&gt;" style="shape=partialRectangle;html=1;whiteSpace=wrap;connectable=0;fillColor=none;top=0;left=0;bottom=0;right=0;overflow=hidden;fontSize=12;strokeColor=inherit;align=left;fontFamily=Times New Roman;" vertex="1" parent="eg4iZR1lfLVg_DDGs85k-50">
          <mxGeometry x="40" width="80" height="20" as="geometry">
            <mxRectangle width="80" height="20" as="alternateBounds" />
          </mxGeometry>
        </mxCell>
        <mxCell id="eg4iZR1lfLVg_DDGs85k-53" value="" style="shape=partialRectangle;html=1;whiteSpace=wrap;connectable=0;fillColor=none;top=0;left=0;bottom=0;right=0;overflow=hidden;fontSize=12;strokeColor=inherit;fontFamily=Times New Roman;container=1;collapsible=0;" vertex="1" parent="eg4iZR1lfLVg_DDGs85k-50">
          <mxGeometry x="120" width="20" height="20" as="geometry">
            <mxRectangle width="20" height="20" as="alternateBounds" />
          </mxGeometry>
        </mxCell>
        <mxCell id="eg4iZR1lfLVg_DDGs85k-54" value="" style="shape=waypoint;sketch=0;fillStyle=solid;size=6;pointerEvents=1;points=[];fillColor=#f8cecc;resizable=0;rotatable=0;perimeter=centerPerimeter;snapToPoint=1;strokeColor=#b85450;fontFamily=Times New Roman;" vertex="1" parent="eg4iZR1lfLVg_DDGs85k-53">
          <mxGeometry width="20" height="20" as="geometry" />
        </mxCell>
        <mxCell id="eg4iZR1lfLVg_DDGs85k-55" value="" style="shape=tableRow;horizontal=0;startSize=0;swimlaneHead=0;swimlaneBody=0;top=0;left=0;bottom=0;right=0;collapsible=0;dropTarget=0;fillColor=none;points=[[0,0.5],[1,0.5]];portConstraint=eastwest;fontSize=16;strokeColor=inherit;fontFamily=Times New Roman;" vertex="1" parent="eg4iZR1lfLVg_DDGs85k-49">
          <mxGeometry y="20" width="140" height="20" as="geometry" />
        </mxCell>
        <mxCell id="eg4iZR1lfLVg_DDGs85k-56" value="+ prev" style="shape=partialRectangle;html=1;whiteSpace=wrap;connectable=0;fillColor=none;top=0;left=0;bottom=0;right=0;overflow=hidden;fontSize=12;strokeColor=inherit;align=left;fontFamily=Times New Roman;" vertex="1" parent="eg4iZR1lfLVg_DDGs85k-55">
          <mxGeometry width="40" height="20" as="geometry">
            <mxRectangle width="40" height="20" as="alternateBounds" />
          </mxGeometry>
        </mxCell>
        <mxCell id="eg4iZR1lfLVg_DDGs85k-57" value="&lt;span style=&quot;border-color: var(--border-color); text-align: center; background-color: rgb(255, 255, 255);&quot;&gt;: k_list_node *&lt;/span&gt;" style="shape=partialRectangle;html=1;whiteSpace=wrap;connectable=0;fillColor=none;top=0;left=0;bottom=0;right=0;overflow=hidden;fontSize=12;strokeColor=inherit;align=left;fontFamily=Times New Roman;" vertex="1" parent="eg4iZR1lfLVg_DDGs85k-55">
          <mxGeometry x="40" width="80" height="20" as="geometry">
            <mxRectangle width="80" height="20" as="alternateBounds" />
          </mxGeometry>
        </mxCell>
        <mxCell id="eg4iZR1lfLVg_DDGs85k-58" value="" style="shape=partialRectangle;html=1;whiteSpace=wrap;connectable=0;fillColor=none;top=0;left=0;bottom=0;right=0;overflow=hidden;fontSize=12;strokeColor=inherit;fontFamily=Times New Roman;container=1;collapsible=0;" vertex="1" parent="eg4iZR1lfLVg_DDGs85k-55">
          <mxGeometry x="120" width="20" height="20" as="geometry">
            <mxRectangle width="20" height="20" as="alternateBounds" />
          </mxGeometry>
        </mxCell>
        <mxCell id="eg4iZR1lfLVg_DDGs85k-60" value="" style="endArrow=none;html=1;rounded=0;curved=1;endFill=0;startArrow=diamond;startFill=1;fontFamily=Times New Roman;" edge="1" parent="1" source="Lktodgax7KeShKQhTBZR-1" target="eg4iZR1lfLVg_DDGs85k-48">
          <mxGeometry width="50" height="50" relative="1" as="geometry">
            <mxPoint x="600" y="110" as="sourcePoint" />
            <mxPoint x="650" y="60" as="targetPoint" />
          </mxGeometry>
        </mxCell>
        <mxCell id="eg4iZR1lfLVg_DDGs85k-73" value="" style="endArrow=block;html=1;rounded=0;curved=1;endFill=1;edgeStyle=orthogonalEdgeStyle;fillColor=#f8cecc;strokeColor=#b85450;fontFamily=Times New Roman;" edge="1" parent="1" source="eg4iZR1lfLVg_DDGs85k-54" target="eg4iZR1lfLVg_DDGs85k-1">
          <mxGeometry width="50" height="50" relative="1" as="geometry">
            <mxPoint x="570" y="360" as="sourcePoint" />
            <mxPoint x="620" y="310" as="targetPoint" />
            <Array as="points">
              <mxPoint x="620" y="230" />
              <mxPoint x="620" y="290" />
            </Array>
          </mxGeometry>
        </mxCell>
        <mxCell id="eg4iZR1lfLVg_DDGs85k-74" value="" style="endArrow=block;html=1;rounded=0;curved=1;endFill=1;edgeStyle=orthogonalEdgeStyle;fillColor=#f8cecc;strokeColor=#b85450;fontFamily=Times New Roman;" edge="1" parent="1" source="eg4iZR1lfLVg_DDGs85k-28" target="eg4iZR1lfLVg_DDGs85k-36">
          <mxGeometry width="50" height="50" relative="1" as="geometry">
            <mxPoint x="600" y="240" as="sourcePoint" />
            <mxPoint x="670" y="140" as="targetPoint" />
            <Array as="points">
              <mxPoint x="620" y="310" />
              <mxPoint x="620" y="370" />
            </Array>
          </mxGeometry>
        </mxCell>
        <mxCell id="eg4iZR1lfLVg_DDGs85k-75" value="" style="endArrow=block;html=1;rounded=0;curved=1;endFill=1;edgeStyle=orthogonalEdgeStyle;fillColor=#f8cecc;strokeColor=#b85450;fontFamily=Times New Roman;" edge="1" parent="1" source="eg4iZR1lfLVg_DDGs85k-42" target="eg4iZR1lfLVg_DDGs85k-48">
          <mxGeometry width="50" height="50" relative="1" as="geometry">
            <mxPoint x="800" y="160" as="sourcePoint" />
            <mxPoint x="810" y="220" as="targetPoint" />
            <Array as="points">
              <mxPoint x="640" y="390" />
              <mxPoint x="640" y="210" />
            </Array>
          </mxGeometry>
        </mxCell>
        <mxCell id="-SHl32zcG-ghLzvMdmrm-1" value="&lt;font&gt;: &lt;u&gt;my_data&lt;/u&gt;&lt;/font&gt;" style="swimlane;fontStyle=0;childLayout=stackLayout;horizontal=1;startSize=20;fillColor=#FFFFFF;horizontalStack=0;resizeParent=1;resizeParentMax=0;resizeLast=0;collapsible=0;marginBottom=0;whiteSpace=wrap;html=1;labelBackgroundColor=default;fontFamily=Times New Roman;" vertex="1" parent="1">
          <mxGeometry x="280" y="280" width="120" height="60" as="geometry">
            <mxRectangle x="80" y="480" width="80" height="30" as="alternateBounds" />
          </mxGeometry>
        </mxCell>
        <mxCell id="-SHl32zcG-ghLzvMdmrm-2" value="" style="shape=table;html=1;whiteSpace=wrap;startSize=0;container=1;collapsible=0;childLayout=tableLayout;columnLines=0;rowLines=0;fontSize=16;strokeColor=default;align=left;fontFamily=Times New Roman;" vertex="1" parent="-SHl32zcG-ghLzvMdmrm-1">
          <mxGeometry y="20" width="120" height="40" as="geometry" />
        </mxCell>
        <mxCell id="-SHl32zcG-ghLzvMdmrm-3" value="" style="shape=tableRow;horizontal=0;startSize=0;swimlaneHead=0;swimlaneBody=0;top=0;left=0;bottom=0;right=0;collapsible=0;dropTarget=0;fillColor=none;points=[[0,0.5],[1,0.5]];portConstraint=eastwest;fontSize=16;strokeColor=inherit;fontFamily=Times New Roman;" vertex="1" parent="-SHl32zcG-ghLzvMdmrm-2">
          <mxGeometry width="120" height="20" as="geometry" />
        </mxCell>
        <mxCell id="-SHl32zcG-ghLzvMdmrm-4" value="+ link" style="shape=partialRectangle;html=1;whiteSpace=wrap;connectable=0;fillColor=none;top=0;left=0;bottom=0;right=0;overflow=hidden;fontSize=12;strokeColor=inherit;align=left;fontFamily=Times New Roman;" vertex="1" parent="-SHl32zcG-ghLzvMdmrm-3">
          <mxGeometry width="40" height="20" as="geometry">
            <mxRectangle width="40" height="20" as="alternateBounds" />
          </mxGeometry>
        </mxCell>
        <mxCell id="-SHl32zcG-ghLzvMdmrm-5" value=":&amp;nbsp;&lt;span style=&quot;border-color: var(--border-color); text-align: center; background-color: rgb(255, 255, 255);&quot;&gt;k_list_node&lt;/span&gt;" style="shape=partialRectangle;html=1;whiteSpace=wrap;connectable=0;fillColor=none;top=0;left=0;bottom=0;right=0;overflow=hidden;fontSize=12;strokeColor=inherit;align=left;fontFamily=Times New Roman;" vertex="1" parent="-SHl32zcG-ghLzvMdmrm-3">
          <mxGeometry x="40" width="68" height="20" as="geometry">
            <mxRectangle width="68" height="20" as="alternateBounds" />
          </mxGeometry>
        </mxCell>
        <mxCell id="-SHl32zcG-ghLzvMdmrm-6" value="" style="shape=partialRectangle;html=1;whiteSpace=wrap;connectable=0;fillColor=none;top=0;left=0;bottom=0;right=0;overflow=hidden;fontSize=12;strokeColor=inherit;fontFamily=Times New Roman;" vertex="1" parent="-SHl32zcG-ghLzvMdmrm-3">
          <mxGeometry x="108" width="12" height="20" as="geometry">
            <mxRectangle width="12" height="20" as="alternateBounds" />
          </mxGeometry>
        </mxCell>
        <mxCell id="-SHl32zcG-ghLzvMdmrm-7" style="shape=tableRow;horizontal=0;startSize=0;swimlaneHead=0;swimlaneBody=0;top=0;left=0;bottom=0;right=0;collapsible=0;dropTarget=0;fillColor=none;points=[[0,0.5],[1,0.5]];portConstraint=eastwest;fontSize=16;strokeColor=inherit;fontFamily=Times New Roman;" vertex="1" parent="-SHl32zcG-ghLzvMdmrm-2">
          <mxGeometry y="20" width="120" height="20" as="geometry" />
        </mxCell>
        <mxCell id="-SHl32zcG-ghLzvMdmrm-8" value="+ val" style="shape=partialRectangle;html=1;whiteSpace=wrap;connectable=0;fillColor=none;top=0;left=0;bottom=0;right=0;overflow=hidden;fontSize=12;strokeColor=inherit;align=left;fontFamily=Times New Roman;" vertex="1" parent="-SHl32zcG-ghLzvMdmrm-7">
          <mxGeometry width="40" height="20" as="geometry">
            <mxRectangle width="40" height="20" as="alternateBounds" />
          </mxGeometry>
        </mxCell>
        <mxCell id="-SHl32zcG-ghLzvMdmrm-9" style="shape=partialRectangle;html=1;whiteSpace=wrap;connectable=0;fillColor=none;top=0;left=0;bottom=0;right=0;overflow=hidden;fontSize=12;strokeColor=inherit;align=left;fontFamily=Times New Roman;" vertex="1" parent="-SHl32zcG-ghLzvMdmrm-7">
          <mxGeometry x="40" width="68" height="20" as="geometry">
            <mxRectangle width="68" height="20" as="alternateBounds" />
          </mxGeometry>
        </mxCell>
        <mxCell id="-SHl32zcG-ghLzvMdmrm-10" style="shape=partialRectangle;html=1;whiteSpace=wrap;connectable=0;fillColor=none;top=0;left=0;bottom=0;right=0;overflow=hidden;fontSize=12;strokeColor=inherit;fontFamily=Times New Roman;" vertex="1" parent="-SHl32zcG-ghLzvMdmrm-7">
          <mxGeometry x="108" width="12" height="20" as="geometry">
            <mxRectangle width="12" height="20" as="alternateBounds" />
          </mxGeometry>
        </mxCell>
        <mxCell id="-SHl32zcG-ghLzvMdmrm-15" value="&lt;font&gt;: &lt;u&gt;my_data&lt;br&gt;&lt;/u&gt;&lt;/font&gt;" style="swimlane;fontStyle=0;childLayout=stackLayout;horizontal=1;startSize=20;fillColor=#FFFFFF;horizontalStack=0;resizeParent=1;resizeParentMax=0;resizeLast=0;collapsible=0;marginBottom=0;whiteSpace=wrap;html=1;labelBackgroundColor=default;fontFamily=Times New Roman;" vertex="1" parent="1">
          <mxGeometry x="280" y="360" width="120" height="60" as="geometry">
            <mxRectangle x="80" y="480" width="80" height="30" as="alternateBounds" />
          </mxGeometry>
        </mxCell>
        <mxCell id="-SHl32zcG-ghLzvMdmrm-16" value="" style="shape=table;html=1;whiteSpace=wrap;startSize=0;container=1;collapsible=0;childLayout=tableLayout;columnLines=0;rowLines=0;fontSize=16;strokeColor=default;align=left;fontFamily=Times New Roman;" vertex="1" parent="-SHl32zcG-ghLzvMdmrm-15">
          <mxGeometry y="20" width="120" height="40" as="geometry" />
        </mxCell>
        <mxCell id="-SHl32zcG-ghLzvMdmrm-17" value="" style="shape=tableRow;horizontal=0;startSize=0;swimlaneHead=0;swimlaneBody=0;top=0;left=0;bottom=0;right=0;collapsible=0;dropTarget=0;fillColor=none;points=[[0,0.5],[1,0.5]];portConstraint=eastwest;fontSize=16;strokeColor=inherit;fontFamily=Times New Roman;" vertex="1" parent="-SHl32zcG-ghLzvMdmrm-16">
          <mxGeometry width="120" height="20" as="geometry" />
        </mxCell>
        <mxCell id="-SHl32zcG-ghLzvMdmrm-18" value="+ link" style="shape=partialRectangle;html=1;whiteSpace=wrap;connectable=0;fillColor=none;top=0;left=0;bottom=0;right=0;overflow=hidden;fontSize=12;strokeColor=inherit;align=left;fontFamily=Times New Roman;" vertex="1" parent="-SHl32zcG-ghLzvMdmrm-17">
          <mxGeometry width="40" height="20" as="geometry">
            <mxRectangle width="40" height="20" as="alternateBounds" />
          </mxGeometry>
        </mxCell>
        <mxCell id="-SHl32zcG-ghLzvMdmrm-19" value=":&amp;nbsp;&lt;span style=&quot;border-color: var(--border-color); text-align: center; background-color: rgb(255, 255, 255);&quot;&gt;k_list_node&lt;/span&gt;" style="shape=partialRectangle;html=1;whiteSpace=wrap;connectable=0;fillColor=none;top=0;left=0;bottom=0;right=0;overflow=hidden;fontSize=12;strokeColor=inherit;align=left;fontFamily=Times New Roman;" vertex="1" parent="-SHl32zcG-ghLzvMdmrm-17">
          <mxGeometry x="40" width="68" height="20" as="geometry">
            <mxRectangle width="68" height="20" as="alternateBounds" />
          </mxGeometry>
        </mxCell>
        <mxCell id="-SHl32zcG-ghLzvMdmrm-20" value="" style="shape=partialRectangle;html=1;whiteSpace=wrap;connectable=0;fillColor=none;top=0;left=0;bottom=0;right=0;overflow=hidden;fontSize=12;strokeColor=inherit;fontFamily=Times New Roman;" vertex="1" parent="-SHl32zcG-ghLzvMdmrm-17">
          <mxGeometry x="108" width="12" height="20" as="geometry">
            <mxRectangle width="12" height="20" as="alternateBounds" />
          </mxGeometry>
        </mxCell>
        <mxCell id="-SHl32zcG-ghLzvMdmrm-21" style="shape=tableRow;horizontal=0;startSize=0;swimlaneHead=0;swimlaneBody=0;top=0;left=0;bottom=0;right=0;collapsible=0;dropTarget=0;fillColor=none;points=[[0,0.5],[1,0.5]];portConstraint=eastwest;fontSize=16;strokeColor=inherit;fontFamily=Times New Roman;" vertex="1" parent="-SHl32zcG-ghLzvMdmrm-16">
          <mxGeometry y="20" width="120" height="20" as="geometry" />
        </mxCell>
        <mxCell id="-SHl32zcG-ghLzvMdmrm-22" value="+ val" style="shape=partialRectangle;html=1;whiteSpace=wrap;connectable=0;fillColor=none;top=0;left=0;bottom=0;right=0;overflow=hidden;fontSize=12;strokeColor=inherit;align=left;fontFamily=Times New Roman;" vertex="1" parent="-SHl32zcG-ghLzvMdmrm-21">
          <mxGeometry width="40" height="20" as="geometry">
            <mxRectangle width="40" height="20" as="alternateBounds" />
          </mxGeometry>
        </mxCell>
        <mxCell id="-SHl32zcG-ghLzvMdmrm-23" style="shape=partialRectangle;html=1;whiteSpace=wrap;connectable=0;fillColor=none;top=0;left=0;bottom=0;right=0;overflow=hidden;fontSize=12;strokeColor=inherit;align=left;fontFamily=Times New Roman;" vertex="1" parent="-SHl32zcG-ghLzvMdmrm-21">
          <mxGeometry x="40" width="68" height="20" as="geometry">
            <mxRectangle width="68" height="20" as="alternateBounds" />
          </mxGeometry>
        </mxCell>
        <mxCell id="-SHl32zcG-ghLzvMdmrm-24" style="shape=partialRectangle;html=1;whiteSpace=wrap;connectable=0;fillColor=none;top=0;left=0;bottom=0;right=0;overflow=hidden;fontSize=12;strokeColor=inherit;fontFamily=Times New Roman;" vertex="1" parent="-SHl32zcG-ghLzvMdmrm-21">
          <mxGeometry x="108" width="12" height="20" as="geometry">
            <mxRectangle width="12" height="20" as="alternateBounds" />
          </mxGeometry>
        </mxCell>
        <mxCell id="-SHl32zcG-ghLzvMdmrm-25" value="" style="endArrow=none;html=1;rounded=0;curved=1;endFill=0;startArrow=diamond;startFill=1;fontFamily=Times New Roman;" edge="1" parent="1" source="-SHl32zcG-ghLzvMdmrm-1" target="eg4iZR1lfLVg_DDGs85k-1">
          <mxGeometry width="50" height="50" relative="1" as="geometry">
            <mxPoint x="427.5" y="230" as="sourcePoint" />
            <mxPoint x="420" y="320" as="targetPoint" />
          </mxGeometry>
        </mxCell>
        <mxCell id="-SHl32zcG-ghLzvMdmrm-26" value="" style="endArrow=none;html=1;rounded=0;curved=1;endFill=0;startArrow=diamond;startFill=1;fontFamily=Times New Roman;" edge="1" parent="1" source="-SHl32zcG-ghLzvMdmrm-15" target="eg4iZR1lfLVg_DDGs85k-36">
          <mxGeometry width="50" height="50" relative="1" as="geometry">
            <mxPoint x="430" y="320" as="sourcePoint" />
            <mxPoint x="470" y="320" as="targetPoint" />
          </mxGeometry>
        </mxCell>
        <mxCell id="vTwzttgoovb30YU8sgOy-1" value="&lt;font style=&quot;border-color: var(--border-color);&quot;&gt;偏移指向节点的指针 p_node，得到指向 my_data 的指针：&lt;/font&gt;&lt;br style=&quot;border-color: var(--border-color);&quot;&gt;&lt;div style=&quot;&quot;&gt;&lt;span style=&quot;background-color: initial;&quot;&gt;my_data *data = (my_data*)((char *)p_node- offset(my_data, link))&lt;/span&gt;&lt;/div&gt;" style="shape=note;whiteSpace=wrap;html=1;backgroundOutline=1;darkOpacity=0.05;size=10;container=1;collapsible=0;fontFamily=Times New Roman;align=left;" vertex="1" parent="1">
          <mxGeometry x="280" y="440" width="360" height="40" as="geometry" />
        </mxCell>
        <mxCell id="Qkg-76LqPk2yuylphBoN-1" value="" style="endArrow=none;dashed=1;html=1;rounded=0;curved=1;" edge="1" parent="1" source="-SHl32zcG-ghLzvMdmrm-15">
          <mxGeometry width="50" height="50" relative="1" as="geometry">
            <mxPoint x="200" y="410" as="sourcePoint" />
            <mxPoint x="422.14285714285734" y="439.9999999999999" as="targetPoint" />
          </mxGeometry>
        </mxCell>
        <mxCell id="Qkg-76LqPk2yuylphBoN-2" value="" style="shape=note;whiteSpace=wrap;html=1;backgroundOutline=1;darkOpacity=0.05;size=10;container=1;collapsible=0;fontFamily=Times New Roman;" vertex="1" parent="1">
          <mxGeometry x="280" y="190" width="120" height="20" as="geometry" />
        </mxCell>
        <mxCell id="Qkg-76LqPk2yuylphBoN-3" value="链表的头节点" style="text;html=1;strokeColor=none;fillColor=none;align=left;verticalAlign=middle;whiteSpace=wrap;rounded=0;fontFamily=Times New Roman;" vertex="1" parent="Qkg-76LqPk2yuylphBoN-2">
          <mxGeometry width="108" height="20" as="geometry" />
        </mxCell>
        <mxCell id="Qkg-76LqPk2yuylphBoN-4" value="" style="shape=note;whiteSpace=wrap;html=1;backgroundOutline=1;darkOpacity=0.05;size=10;container=1;collapsible=0;fontFamily=Times New Roman;" vertex="1" parent="1">
          <mxGeometry x="280" y="250" width="120" height="20" as="geometry" />
        </mxCell>
        <mxCell id="Qkg-76LqPk2yuylphBoN-5" value="实际的数据节点" style="text;html=1;strokeColor=none;fillColor=none;align=left;verticalAlign=middle;whiteSpace=wrap;rounded=0;fontFamily=Times New Roman;" vertex="1" parent="Qkg-76LqPk2yuylphBoN-4">
          <mxGeometry width="110" height="20" as="geometry" />
        </mxCell>
        <mxCell id="Qkg-76LqPk2yuylphBoN-6" value="" style="shape=note;whiteSpace=wrap;html=1;backgroundOutline=1;darkOpacity=0.05;size=10;container=1;collapsible=0;fontFamily=Times New Roman;" vertex="1" parent="1">
          <mxGeometry x="280" y="220" width="120" height="20" as="geometry" />
        </mxCell>
        <mxCell id="Qkg-76LqPk2yuylphBoN-7" value="数据节点的指针域" style="text;html=1;strokeColor=none;fillColor=none;align=left;verticalAlign=middle;whiteSpace=wrap;rounded=0;fontFamily=Times New Roman;" vertex="1" parent="Qkg-76LqPk2yuylphBoN-6">
          <mxGeometry width="110" height="20" as="geometry" />
        </mxCell>
        <mxCell id="Qkg-76LqPk2yuylphBoN-8" value="" style="endArrow=none;dashed=1;html=1;rounded=0;entryX=0;entryY=0;entryDx=0;entryDy=0;" edge="1" parent="1" source="Qkg-76LqPk2yuylphBoN-2" target="eg4iZR1lfLVg_DDGs85k-48">
          <mxGeometry width="50" height="50" relative="1" as="geometry">
            <mxPoint x="399" y="430" as="sourcePoint" />
            <mxPoint x="432" y="450" as="targetPoint" />
          </mxGeometry>
        </mxCell>
        <mxCell id="Qkg-76LqPk2yuylphBoN-9" value="" style="endArrow=none;dashed=1;html=1;rounded=0;curved=1;" edge="1" parent="1" source="Qkg-76LqPk2yuylphBoN-4" target="-SHl32zcG-ghLzvMdmrm-1">
          <mxGeometry width="50" height="50" relative="1" as="geometry">
            <mxPoint x="382" y="190" as="sourcePoint" />
            <mxPoint x="470" y="218" as="targetPoint" />
          </mxGeometry>
        </mxCell>
        <mxCell id="Qkg-76LqPk2yuylphBoN-10" value="" style="endArrow=none;dashed=1;html=1;rounded=0;exitX=1;exitY=1;exitDx=0;exitDy=0;exitPerimeter=0;entryX=0;entryY=0;entryDx=0;entryDy=0;" edge="1" parent="1" source="Qkg-76LqPk2yuylphBoN-6" target="eg4iZR1lfLVg_DDGs85k-1">
          <mxGeometry width="50" height="50" relative="1" as="geometry">
            <mxPoint x="350" y="270" as="sourcePoint" />
            <mxPoint x="350" y="290" as="targetPoint" />
          </mxGeometry>
        </mxCell>
      </root>
    </mxGraphModel>
  </diagram>
  <diagram id="X-Kyw0fr6sWLvxauZTJD" name="k_hash_list">
    <mxGraphModel dx="637" dy="375" grid="1" gridSize="10" guides="1" tooltips="1" connect="1" arrows="1" fold="1" page="1" pageScale="1" pageWidth="827" pageHeight="1169" math="0" shadow="0">
      <root>
        <mxCell id="0" />
        <mxCell id="1" parent="0" />
        <mxCell id="XPVRp4CWC3RbxSJLYK_2-1" value="&lt;font&gt;: &lt;u&gt;k_hash_list&lt;/u&gt;&lt;/font&gt;" style="swimlane;fontStyle=0;childLayout=stackLayout;horizontal=1;startSize=20;fillColor=#FFFFFF;horizontalStack=0;resizeParent=1;resizeParentMax=0;resizeLast=0;collapsible=0;marginBottom=0;whiteSpace=wrap;html=1;labelBackgroundColor=default;fontFamily=Times New Roman;" vertex="1" parent="1">
          <mxGeometry x="240" y="140" width="180" height="40" as="geometry">
            <mxRectangle x="80" y="480" width="80" height="30" as="alternateBounds" />
          </mxGeometry>
        </mxCell>
        <mxCell id="XPVRp4CWC3RbxSJLYK_2-2" value="" style="shape=table;html=1;whiteSpace=wrap;startSize=0;container=1;collapsible=0;childLayout=tableLayout;columnLines=0;rowLines=0;fontSize=16;strokeColor=default;align=left;fontFamily=Times New Roman;" vertex="1" parent="XPVRp4CWC3RbxSJLYK_2-1">
          <mxGeometry y="20" width="180" height="20" as="geometry" />
        </mxCell>
        <mxCell id="XPVRp4CWC3RbxSJLYK_2-3" value="" style="shape=tableRow;horizontal=0;startSize=0;swimlaneHead=0;swimlaneBody=0;top=0;left=0;bottom=0;right=0;collapsible=0;dropTarget=0;fillColor=none;points=[[0,0.5],[1,0.5]];portConstraint=eastwest;fontSize=16;strokeColor=inherit;fontFamily=Times New Roman;" vertex="1" parent="XPVRp4CWC3RbxSJLYK_2-2">
          <mxGeometry width="180" height="20" as="geometry" />
        </mxCell>
        <mxCell id="XPVRp4CWC3RbxSJLYK_2-4" value="+ first" style="shape=partialRectangle;html=1;whiteSpace=wrap;connectable=0;fillColor=none;top=0;left=0;bottom=0;right=0;overflow=hidden;fontSize=12;strokeColor=inherit;align=left;fontFamily=Times New Roman;" vertex="1" parent="XPVRp4CWC3RbxSJLYK_2-3">
          <mxGeometry width="45" height="20" as="geometry">
            <mxRectangle width="45" height="20" as="alternateBounds" />
          </mxGeometry>
        </mxCell>
        <mxCell id="XPVRp4CWC3RbxSJLYK_2-5" value=":&amp;nbsp;&lt;span style=&quot;border-color: var(--border-color); text-align: center; background-color: rgb(255, 255, 255);&quot;&gt;k_hash_list_node *&lt;/span&gt;" style="shape=partialRectangle;html=1;whiteSpace=wrap;connectable=0;fillColor=none;top=0;left=0;bottom=0;right=0;overflow=hidden;fontSize=12;strokeColor=inherit;align=left;fontFamily=Times New Roman;" vertex="1" parent="XPVRp4CWC3RbxSJLYK_2-3">
          <mxGeometry x="45" width="115" height="20" as="geometry">
            <mxRectangle width="115" height="20" as="alternateBounds" />
          </mxGeometry>
        </mxCell>
        <mxCell id="XPVRp4CWC3RbxSJLYK_2-6" value="" style="shape=partialRectangle;html=1;whiteSpace=wrap;connectable=0;fillColor=none;top=0;left=0;bottom=0;right=0;overflow=hidden;fontSize=12;strokeColor=inherit;fontFamily=Times New Roman;container=1;collapsible=0;" vertex="1" parent="XPVRp4CWC3RbxSJLYK_2-3">
          <mxGeometry x="160" width="20" height="20" as="geometry">
            <mxRectangle width="20" height="20" as="alternateBounds" />
          </mxGeometry>
        </mxCell>
        <mxCell id="XPVRp4CWC3RbxSJLYK_2-80" value="" style="shape=waypoint;sketch=0;fillStyle=solid;size=6;pointerEvents=1;points=[];fillColor=#f8cecc;resizable=0;rotatable=0;perimeter=centerPerimeter;snapToPoint=1;strokeColor=#b85450;fontFamily=Times New Roman;" vertex="1" parent="XPVRp4CWC3RbxSJLYK_2-6">
          <mxGeometry x="2" width="20" height="20" as="geometry" />
        </mxCell>
        <mxCell id="XPVRp4CWC3RbxSJLYK_2-29" value="&lt;font&gt;: &lt;u&gt;k_hash_list_node&lt;/u&gt;&lt;/font&gt;" style="swimlane;fontStyle=0;childLayout=stackLayout;horizontal=1;startSize=20;fillColor=#FFFFFF;horizontalStack=0;resizeParent=1;resizeParentMax=0;resizeLast=0;collapsible=0;marginBottom=0;whiteSpace=wrap;html=1;labelBackgroundColor=default;fontFamily=Times New Roman;" vertex="1" parent="1">
          <mxGeometry x="240" y="200" width="180" height="60" as="geometry">
            <mxRectangle x="80" y="480" width="80" height="30" as="alternateBounds" />
          </mxGeometry>
        </mxCell>
        <mxCell id="XPVRp4CWC3RbxSJLYK_2-30" value="" style="shape=table;html=1;whiteSpace=wrap;startSize=0;container=1;collapsible=0;childLayout=tableLayout;columnLines=0;rowLines=0;fontSize=16;strokeColor=default;align=left;fontFamily=Times New Roman;" vertex="1" parent="XPVRp4CWC3RbxSJLYK_2-29">
          <mxGeometry y="20" width="180" height="40" as="geometry" />
        </mxCell>
        <mxCell id="XPVRp4CWC3RbxSJLYK_2-31" value="" style="shape=tableRow;horizontal=0;startSize=0;swimlaneHead=0;swimlaneBody=0;top=0;left=0;bottom=0;right=0;collapsible=0;dropTarget=0;fillColor=none;points=[[0,0.5],[1,0.5]];portConstraint=eastwest;fontSize=16;strokeColor=inherit;fontFamily=Times New Roman;" vertex="1" parent="XPVRp4CWC3RbxSJLYK_2-30">
          <mxGeometry width="180" height="20" as="geometry" />
        </mxCell>
        <mxCell id="XPVRp4CWC3RbxSJLYK_2-32" value="+ next" style="shape=partialRectangle;html=1;whiteSpace=wrap;connectable=0;fillColor=none;top=0;left=0;bottom=0;right=0;overflow=hidden;fontSize=12;strokeColor=inherit;align=left;fontFamily=Times New Roman;" vertex="1" parent="XPVRp4CWC3RbxSJLYK_2-31">
          <mxGeometry width="40" height="20" as="geometry">
            <mxRectangle width="40" height="20" as="alternateBounds" />
          </mxGeometry>
        </mxCell>
        <mxCell id="XPVRp4CWC3RbxSJLYK_2-33" value="&lt;span style=&quot;border-color: var(--border-color); text-align: center; background-color: rgb(255, 255, 255);&quot;&gt;: k_hash_list_node *&lt;/span&gt;" style="shape=partialRectangle;html=1;whiteSpace=wrap;connectable=0;fillColor=none;top=0;left=0;bottom=0;right=0;overflow=hidden;fontSize=12;strokeColor=inherit;align=left;fontFamily=Times New Roman;" vertex="1" parent="XPVRp4CWC3RbxSJLYK_2-31">
          <mxGeometry x="40" width="120" height="20" as="geometry">
            <mxRectangle width="120" height="20" as="alternateBounds" />
          </mxGeometry>
        </mxCell>
        <mxCell id="XPVRp4CWC3RbxSJLYK_2-34" value="" style="shape=partialRectangle;html=1;whiteSpace=wrap;connectable=0;fillColor=none;top=0;left=0;bottom=0;right=0;overflow=hidden;fontSize=12;strokeColor=inherit;fontFamily=Times New Roman;container=1;collapsible=0;" vertex="1" parent="XPVRp4CWC3RbxSJLYK_2-31">
          <mxGeometry x="160" width="20" height="20" as="geometry">
            <mxRectangle width="20" height="20" as="alternateBounds" />
          </mxGeometry>
        </mxCell>
        <mxCell id="XPVRp4CWC3RbxSJLYK_2-35" value="" style="shape=waypoint;sketch=0;fillStyle=solid;size=6;pointerEvents=1;points=[];fillColor=#f8cecc;resizable=0;rotatable=0;perimeter=centerPerimeter;snapToPoint=1;strokeColor=#b85450;fontFamily=Times New Roman;" vertex="1" parent="XPVRp4CWC3RbxSJLYK_2-34">
          <mxGeometry width="20" height="20" as="geometry" />
        </mxCell>
        <mxCell id="XPVRp4CWC3RbxSJLYK_2-36" value="" style="shape=tableRow;horizontal=0;startSize=0;swimlaneHead=0;swimlaneBody=0;top=0;left=0;bottom=0;right=0;collapsible=0;dropTarget=0;fillColor=none;points=[[0,0.5],[1,0.5]];portConstraint=eastwest;fontSize=16;strokeColor=inherit;fontFamily=Times New Roman;" vertex="1" parent="XPVRp4CWC3RbxSJLYK_2-30">
          <mxGeometry y="20" width="180" height="20" as="geometry" />
        </mxCell>
        <mxCell id="XPVRp4CWC3RbxSJLYK_2-37" value="+ pprev" style="shape=partialRectangle;html=1;whiteSpace=wrap;connectable=0;fillColor=none;top=0;left=0;bottom=0;right=0;overflow=hidden;fontSize=12;strokeColor=inherit;align=left;fontFamily=Times New Roman;" vertex="1" parent="XPVRp4CWC3RbxSJLYK_2-36">
          <mxGeometry width="40" height="20" as="geometry">
            <mxRectangle width="40" height="20" as="alternateBounds" />
          </mxGeometry>
        </mxCell>
        <mxCell id="XPVRp4CWC3RbxSJLYK_2-38" value="&lt;span style=&quot;border-color: var(--border-color); text-align: center; background-color: rgb(255, 255, 255);&quot;&gt;: k_hash_list_node **&lt;/span&gt;" style="shape=partialRectangle;html=1;whiteSpace=wrap;connectable=0;fillColor=none;top=0;left=0;bottom=0;right=0;overflow=hidden;fontSize=12;strokeColor=inherit;align=left;fontFamily=Times New Roman;" vertex="1" parent="XPVRp4CWC3RbxSJLYK_2-36">
          <mxGeometry x="40" width="120" height="20" as="geometry">
            <mxRectangle width="120" height="20" as="alternateBounds" />
          </mxGeometry>
        </mxCell>
        <mxCell id="XPVRp4CWC3RbxSJLYK_2-39" value="" style="shape=partialRectangle;html=1;whiteSpace=wrap;connectable=0;fillColor=none;top=0;left=0;bottom=0;right=0;overflow=hidden;fontSize=12;strokeColor=inherit;fontFamily=Times New Roman;container=1;collapsible=0;" vertex="1" parent="XPVRp4CWC3RbxSJLYK_2-36">
          <mxGeometry x="160" width="20" height="20" as="geometry">
            <mxRectangle width="20" height="20" as="alternateBounds" />
          </mxGeometry>
        </mxCell>
        <mxCell id="XPVRp4CWC3RbxSJLYK_2-79" value="" style="shape=waypoint;sketch=0;fillStyle=solid;size=6;pointerEvents=1;points=[];fillColor=#fff2cc;resizable=0;rotatable=0;perimeter=centerPerimeter;snapToPoint=1;strokeColor=#d6b656;fontFamily=Times New Roman;" vertex="1" parent="XPVRp4CWC3RbxSJLYK_2-39">
          <mxGeometry width="20" height="20" as="geometry" />
        </mxCell>
        <mxCell id="XPVRp4CWC3RbxSJLYK_2-81" value="&lt;font&gt;: &lt;u&gt;k_hash_list_node&lt;/u&gt;&lt;/font&gt;" style="swimlane;fontStyle=0;childLayout=stackLayout;horizontal=1;startSize=20;fillColor=#FFFFFF;horizontalStack=0;resizeParent=1;resizeParentMax=0;resizeLast=0;collapsible=0;marginBottom=0;whiteSpace=wrap;html=1;labelBackgroundColor=default;fontFamily=Times New Roman;" vertex="1" parent="1">
          <mxGeometry x="240" y="280" width="180" height="60" as="geometry">
            <mxRectangle x="80" y="480" width="80" height="30" as="alternateBounds" />
          </mxGeometry>
        </mxCell>
        <mxCell id="XPVRp4CWC3RbxSJLYK_2-82" value="" style="shape=table;html=1;whiteSpace=wrap;startSize=0;container=1;collapsible=0;childLayout=tableLayout;columnLines=0;rowLines=0;fontSize=16;strokeColor=default;align=left;fontFamily=Times New Roman;" vertex="1" parent="XPVRp4CWC3RbxSJLYK_2-81">
          <mxGeometry y="20" width="180" height="40" as="geometry" />
        </mxCell>
        <mxCell id="XPVRp4CWC3RbxSJLYK_2-83" value="" style="shape=tableRow;horizontal=0;startSize=0;swimlaneHead=0;swimlaneBody=0;top=0;left=0;bottom=0;right=0;collapsible=0;dropTarget=0;fillColor=none;points=[[0,0.5],[1,0.5]];portConstraint=eastwest;fontSize=16;strokeColor=inherit;fontFamily=Times New Roman;" vertex="1" parent="XPVRp4CWC3RbxSJLYK_2-82">
          <mxGeometry width="180" height="20" as="geometry" />
        </mxCell>
        <mxCell id="XPVRp4CWC3RbxSJLYK_2-84" value="+ next" style="shape=partialRectangle;html=1;whiteSpace=wrap;connectable=0;fillColor=none;top=0;left=0;bottom=0;right=0;overflow=hidden;fontSize=12;strokeColor=inherit;align=left;fontFamily=Times New Roman;" vertex="1" parent="XPVRp4CWC3RbxSJLYK_2-83">
          <mxGeometry width="40" height="20" as="geometry">
            <mxRectangle width="40" height="20" as="alternateBounds" />
          </mxGeometry>
        </mxCell>
        <mxCell id="XPVRp4CWC3RbxSJLYK_2-85" value="&lt;span style=&quot;border-color: var(--border-color); text-align: center; background-color: rgb(255, 255, 255);&quot;&gt;: k_hash_list_node *&lt;/span&gt;" style="shape=partialRectangle;html=1;whiteSpace=wrap;connectable=0;fillColor=none;top=0;left=0;bottom=0;right=0;overflow=hidden;fontSize=12;strokeColor=inherit;align=left;fontFamily=Times New Roman;" vertex="1" parent="XPVRp4CWC3RbxSJLYK_2-83">
          <mxGeometry x="40" width="120" height="20" as="geometry">
            <mxRectangle width="120" height="20" as="alternateBounds" />
          </mxGeometry>
        </mxCell>
        <mxCell id="XPVRp4CWC3RbxSJLYK_2-86" value="" style="shape=partialRectangle;html=1;whiteSpace=wrap;connectable=0;fillColor=none;top=0;left=0;bottom=0;right=0;overflow=hidden;fontSize=12;strokeColor=inherit;fontFamily=Times New Roman;container=1;collapsible=0;" vertex="1" parent="XPVRp4CWC3RbxSJLYK_2-83">
          <mxGeometry x="160" width="20" height="20" as="geometry">
            <mxRectangle width="20" height="20" as="alternateBounds" />
          </mxGeometry>
        </mxCell>
        <mxCell id="XPVRp4CWC3RbxSJLYK_2-87" value="" style="shape=waypoint;sketch=0;fillStyle=solid;size=6;pointerEvents=1;points=[];fillColor=#f8cecc;resizable=0;rotatable=0;perimeter=centerPerimeter;snapToPoint=1;strokeColor=#b85450;fontFamily=Times New Roman;" vertex="1" parent="XPVRp4CWC3RbxSJLYK_2-86">
          <mxGeometry width="20" height="20" as="geometry" />
        </mxCell>
        <mxCell id="XPVRp4CWC3RbxSJLYK_2-88" value="" style="shape=tableRow;horizontal=0;startSize=0;swimlaneHead=0;swimlaneBody=0;top=0;left=0;bottom=0;right=0;collapsible=0;dropTarget=0;fillColor=none;points=[[0,0.5],[1,0.5]];portConstraint=eastwest;fontSize=16;strokeColor=inherit;fontFamily=Times New Roman;" vertex="1" parent="XPVRp4CWC3RbxSJLYK_2-82">
          <mxGeometry y="20" width="180" height="20" as="geometry" />
        </mxCell>
        <mxCell id="XPVRp4CWC3RbxSJLYK_2-89" value="+ pprev" style="shape=partialRectangle;html=1;whiteSpace=wrap;connectable=0;fillColor=none;top=0;left=0;bottom=0;right=0;overflow=hidden;fontSize=12;strokeColor=inherit;align=left;fontFamily=Times New Roman;" vertex="1" parent="XPVRp4CWC3RbxSJLYK_2-88">
          <mxGeometry width="40" height="20" as="geometry">
            <mxRectangle width="40" height="20" as="alternateBounds" />
          </mxGeometry>
        </mxCell>
        <mxCell id="XPVRp4CWC3RbxSJLYK_2-90" value="&lt;span style=&quot;border-color: var(--border-color); text-align: center; background-color: rgb(255, 255, 255);&quot;&gt;: k_hash_list_node **&lt;/span&gt;" style="shape=partialRectangle;html=1;whiteSpace=wrap;connectable=0;fillColor=none;top=0;left=0;bottom=0;right=0;overflow=hidden;fontSize=12;strokeColor=inherit;align=left;fontFamily=Times New Roman;" vertex="1" parent="XPVRp4CWC3RbxSJLYK_2-88">
          <mxGeometry x="40" width="120" height="20" as="geometry">
            <mxRectangle width="120" height="20" as="alternateBounds" />
          </mxGeometry>
        </mxCell>
        <mxCell id="XPVRp4CWC3RbxSJLYK_2-91" value="" style="shape=partialRectangle;html=1;whiteSpace=wrap;connectable=0;fillColor=none;top=0;left=0;bottom=0;right=0;overflow=hidden;fontSize=12;strokeColor=inherit;fontFamily=Times New Roman;container=1;collapsible=0;" vertex="1" parent="XPVRp4CWC3RbxSJLYK_2-88">
          <mxGeometry x="160" width="20" height="20" as="geometry">
            <mxRectangle width="20" height="20" as="alternateBounds" />
          </mxGeometry>
        </mxCell>
        <mxCell id="XPVRp4CWC3RbxSJLYK_2-92" value="" style="shape=waypoint;sketch=0;fillStyle=solid;size=6;pointerEvents=1;points=[];fillColor=#fff2cc;resizable=0;rotatable=0;perimeter=centerPerimeter;snapToPoint=1;strokeColor=#d6b656;fontFamily=Times New Roman;" vertex="1" parent="XPVRp4CWC3RbxSJLYK_2-91">
          <mxGeometry width="20" height="20" as="geometry" />
        </mxCell>
        <mxCell id="_GQ1JbNgefgoX_eCITKz-1" value="" style="endArrow=block;html=1;rounded=0;curved=1;endFill=1;edgeStyle=orthogonalEdgeStyle;fillColor=#f8cecc;strokeColor=#b85450;fontFamily=Times New Roman;" edge="1" parent="1" source="XPVRp4CWC3RbxSJLYK_2-80" target="XPVRp4CWC3RbxSJLYK_2-29">
          <mxGeometry width="50" height="50" relative="1" as="geometry">
            <mxPoint x="390" y="210" as="sourcePoint" />
            <mxPoint x="400" y="270" as="targetPoint" />
            <Array as="points">
              <mxPoint x="412" y="190" />
              <mxPoint x="440" y="190" />
              <mxPoint x="440" y="210" />
            </Array>
          </mxGeometry>
        </mxCell>
        <mxCell id="_GQ1JbNgefgoX_eCITKz-2" value="" style="endArrow=block;html=1;rounded=0;curved=1;endFill=1;edgeStyle=orthogonalEdgeStyle;fillColor=#f8cecc;strokeColor=#b85450;fontFamily=Times New Roman;" edge="1" parent="1" source="XPVRp4CWC3RbxSJLYK_2-35" target="XPVRp4CWC3RbxSJLYK_2-81">
          <mxGeometry width="50" height="50" relative="1" as="geometry">
            <mxPoint x="422" y="160" as="sourcePoint" />
            <mxPoint x="430" y="220" as="targetPoint" />
            <Array as="points">
              <mxPoint x="410" y="240" />
              <mxPoint x="450" y="240" />
              <mxPoint x="450" y="290" />
            </Array>
          </mxGeometry>
        </mxCell>
        <mxCell id="_GQ1JbNgefgoX_eCITKz-4" value="" style="endArrow=block;html=1;rounded=0;endFill=1;fillColor=#f8cecc;strokeColor=#b85450;fontFamily=Times New Roman;edgeStyle=orthogonalEdgeStyle;curved=1;" edge="1" parent="1" source="XPVRp4CWC3RbxSJLYK_2-87" target="_GQ1JbNgefgoX_eCITKz-5">
          <mxGeometry width="50" height="50" relative="1" as="geometry">
            <mxPoint x="420" y="220" as="sourcePoint" />
            <mxPoint x="440" y="310" as="targetPoint" />
          </mxGeometry>
        </mxCell>
        <mxCell id="_GQ1JbNgefgoX_eCITKz-5" value="NULL" style="text;html=1;strokeColor=none;fillColor=none;align=center;verticalAlign=middle;whiteSpace=wrap;rounded=0;fontFamily=Times New Roman;fontColor=#b85450;" vertex="1" parent="1">
          <mxGeometry x="440" y="330" width="40" height="20" as="geometry" />
        </mxCell>
        <mxCell id="_GQ1JbNgefgoX_eCITKz-7" value="" style="endArrow=block;html=1;rounded=0;curved=1;endFill=1;edgeStyle=orthogonalEdgeStyle;fillColor=#fff2cc;strokeColor=#d6b656;fontFamily=Times New Roman;exitX=0.793;exitY=0.386;exitDx=0;exitDy=0;exitPerimeter=0;" edge="1" parent="1" source="XPVRp4CWC3RbxSJLYK_2-92" target="XPVRp4CWC3RbxSJLYK_2-31">
          <mxGeometry width="50" height="50" relative="1" as="geometry">
            <mxPoint x="420" y="240" as="sourcePoint" />
            <mxPoint x="430" y="300" as="targetPoint" />
            <Array as="points">
              <mxPoint x="460" y="330" />
              <mxPoint x="460" y="230" />
            </Array>
          </mxGeometry>
        </mxCell>
        <mxCell id="_GQ1JbNgefgoX_eCITKz-8" value="" style="endArrow=block;html=1;rounded=0;curved=1;endFill=1;edgeStyle=orthogonalEdgeStyle;fillColor=#fff2cc;strokeColor=#d6b656;fontFamily=Times New Roman;exitX=0.665;exitY=0.587;exitDx=0;exitDy=0;exitPerimeter=0;" edge="1" parent="1" source="XPVRp4CWC3RbxSJLYK_2-79" target="XPVRp4CWC3RbxSJLYK_2-3">
          <mxGeometry width="50" height="50" relative="1" as="geometry">
            <mxPoint x="420" y="340" as="sourcePoint" />
            <mxPoint x="430" y="240" as="targetPoint" />
            <Array as="points">
              <mxPoint x="460" y="250" />
              <mxPoint x="460" y="170" />
            </Array>
          </mxGeometry>
        </mxCell>
        <mxCell id="Er-fko3HszXUMWG0O43G-1" value="pprev 指向前一个节点的 next 字段的地址" style="shape=note;whiteSpace=wrap;html=1;backgroundOutline=1;darkOpacity=0.05;size=10;container=1;collapsible=0;fontFamily=Times New Roman;align=left;" vertex="1" parent="1">
          <mxGeometry x="240" y="360" width="240" height="20" as="geometry" />
        </mxCell>
        <mxCell id="Er-fko3HszXUMWG0O43G-4" value="" style="endArrow=none;dashed=1;html=1;rounded=0;curved=1;" edge="1" parent="1" source="Er-fko3HszXUMWG0O43G-1" target="XPVRp4CWC3RbxSJLYK_2-92">
          <mxGeometry width="50" height="50" relative="1" as="geometry">
            <mxPoint x="170" y="350" as="sourcePoint" />
            <mxPoint x="220" y="300" as="targetPoint" />
          </mxGeometry>
        </mxCell>
      </root>
    </mxGraphModel>
  </diagram>
  <diagram id="LcXBu5e_9MU9GWNwJSiJ" name="k_str_intrusive_map">
    <mxGraphModel dx="819" dy="482" grid="1" gridSize="10" guides="1" tooltips="1" connect="1" arrows="1" fold="1" page="1" pageScale="1" pageWidth="827" pageHeight="1169" math="0" shadow="0">
      <root>
        <mxCell id="0" />
        <mxCell id="1" parent="0" />
        <mxCell id="ouFCNTB4VTKewSgNOnBN-1" value="&lt;font&gt;: &lt;u&gt;k_str_intrusive_map&lt;/u&gt;&lt;/font&gt;" style="swimlane;fontStyle=0;childLayout=stackLayout;horizontal=1;startSize=20;fillColor=#FFFFFF;horizontalStack=0;resizeParent=1;resizeParentMax=0;resizeLast=0;collapsible=0;marginBottom=0;whiteSpace=wrap;html=1;labelBackgroundColor=default;fontFamily=Times New Roman;" vertex="1" parent="1">
          <mxGeometry x="120" y="280" width="180" height="60" as="geometry">
            <mxRectangle x="80" y="480" width="80" height="30" as="alternateBounds" />
          </mxGeometry>
        </mxCell>
        <mxCell id="ouFCNTB4VTKewSgNOnBN-2" value="" style="shape=table;html=1;whiteSpace=wrap;startSize=0;container=1;collapsible=0;childLayout=tableLayout;columnLines=0;rowLines=0;fontSize=16;strokeColor=default;align=left;fontFamily=Times New Roman;" vertex="1" parent="ouFCNTB4VTKewSgNOnBN-1">
          <mxGeometry y="20" width="180" height="40" as="geometry" />
        </mxCell>
        <mxCell id="ouFCNTB4VTKewSgNOnBN-3" value="" style="shape=tableRow;horizontal=0;startSize=0;swimlaneHead=0;swimlaneBody=0;top=0;left=0;bottom=0;right=0;collapsible=0;dropTarget=0;fillColor=none;points=[[0,0.5],[1,0.5]];portConstraint=eastwest;fontSize=16;strokeColor=inherit;fontFamily=Times New Roman;" vertex="1" parent="ouFCNTB4VTKewSgNOnBN-2">
          <mxGeometry width="180" height="20" as="geometry" />
        </mxCell>
        <mxCell id="ouFCNTB4VTKewSgNOnBN-4" value="+ buckets" style="shape=partialRectangle;html=1;whiteSpace=wrap;connectable=0;fillColor=none;top=0;left=0;bottom=0;right=0;overflow=hidden;fontSize=12;strokeColor=inherit;align=left;fontFamily=Times New Roman;" vertex="1" parent="ouFCNTB4VTKewSgNOnBN-3">
          <mxGeometry width="80" height="20" as="geometry">
            <mxRectangle width="80" height="20" as="alternateBounds" />
          </mxGeometry>
        </mxCell>
        <mxCell id="ouFCNTB4VTKewSgNOnBN-5" value="&lt;span style=&quot;border-color: var(--border-color); text-align: center; background-color: rgb(255, 255, 255);&quot;&gt;: k_hash_list *&lt;/span&gt;" style="shape=partialRectangle;html=1;whiteSpace=wrap;connectable=0;fillColor=none;top=0;left=0;bottom=0;right=0;overflow=hidden;fontSize=12;strokeColor=inherit;align=left;fontFamily=Times New Roman;" vertex="1" parent="ouFCNTB4VTKewSgNOnBN-3">
          <mxGeometry x="80" width="80" height="20" as="geometry">
            <mxRectangle width="80" height="20" as="alternateBounds" />
          </mxGeometry>
        </mxCell>
        <mxCell id="ouFCNTB4VTKewSgNOnBN-6" value="" style="shape=partialRectangle;html=1;whiteSpace=wrap;connectable=0;fillColor=none;top=0;left=0;bottom=0;right=0;overflow=hidden;fontSize=12;strokeColor=inherit;fontFamily=Times New Roman;container=1;collapsible=0;" vertex="1" parent="ouFCNTB4VTKewSgNOnBN-3">
          <mxGeometry x="160" width="20" height="20" as="geometry">
            <mxRectangle width="20" height="20" as="alternateBounds" />
          </mxGeometry>
        </mxCell>
        <mxCell id="ouFCNTB4VTKewSgNOnBN-7" value="" style="shape=waypoint;sketch=0;fillStyle=solid;size=6;pointerEvents=1;points=[];fillColor=#f8cecc;resizable=0;rotatable=0;perimeter=centerPerimeter;snapToPoint=1;strokeColor=#b85450;fontFamily=Times New Roman;" vertex="1" parent="ouFCNTB4VTKewSgNOnBN-6">
          <mxGeometry width="20" height="20" as="geometry" />
        </mxCell>
        <mxCell id="ouFCNTB4VTKewSgNOnBN-8" value="" style="shape=tableRow;horizontal=0;startSize=0;swimlaneHead=0;swimlaneBody=0;top=0;left=0;bottom=0;right=0;collapsible=0;dropTarget=0;fillColor=none;points=[[0,0.5],[1,0.5]];portConstraint=eastwest;fontSize=16;strokeColor=inherit;fontFamily=Times New Roman;" vertex="1" parent="ouFCNTB4VTKewSgNOnBN-2">
          <mxGeometry y="20" width="180" height="20" as="geometry" />
        </mxCell>
        <mxCell id="ouFCNTB4VTKewSgNOnBN-9" value="+ buckets_num" style="shape=partialRectangle;html=1;whiteSpace=wrap;connectable=0;fillColor=none;top=0;left=0;bottom=0;right=0;overflow=hidden;fontSize=12;strokeColor=inherit;align=left;fontFamily=Times New Roman;" vertex="1" parent="ouFCNTB4VTKewSgNOnBN-8">
          <mxGeometry width="80" height="20" as="geometry">
            <mxRectangle width="80" height="20" as="alternateBounds" />
          </mxGeometry>
        </mxCell>
        <mxCell id="ouFCNTB4VTKewSgNOnBN-10" value="&lt;span style=&quot;border-color: var(--border-color); text-align: center; background-color: rgb(255, 255, 255);&quot;&gt;: size_t&lt;/span&gt;" style="shape=partialRectangle;html=1;whiteSpace=wrap;connectable=0;fillColor=none;top=0;left=0;bottom=0;right=0;overflow=hidden;fontSize=12;strokeColor=inherit;align=left;fontFamily=Times New Roman;" vertex="1" parent="ouFCNTB4VTKewSgNOnBN-8">
          <mxGeometry x="80" width="80" height="20" as="geometry">
            <mxRectangle width="80" height="20" as="alternateBounds" />
          </mxGeometry>
        </mxCell>
        <mxCell id="ouFCNTB4VTKewSgNOnBN-11" value="" style="shape=partialRectangle;html=1;whiteSpace=wrap;connectable=0;fillColor=none;top=0;left=0;bottom=0;right=0;overflow=hidden;fontSize=12;strokeColor=inherit;fontFamily=Times New Roman;container=1;collapsible=0;" vertex="1" parent="ouFCNTB4VTKewSgNOnBN-8">
          <mxGeometry x="160" width="20" height="20" as="geometry">
            <mxRectangle width="20" height="20" as="alternateBounds" />
          </mxGeometry>
        </mxCell>
        <mxCell id="tXr3WQVE7DewJCYpaaG6-1" value="" style="shape=table;startSize=0;container=1;collapsible=0;childLayout=tableLayout;fontSize=12;fontFamily=Times New Roman;" vertex="1" parent="1">
          <mxGeometry x="360" y="280" width="160" height="100" as="geometry" />
        </mxCell>
        <mxCell id="tXr3WQVE7DewJCYpaaG6-2" value="" style="shape=tableRow;horizontal=0;startSize=0;swimlaneHead=0;swimlaneBody=0;strokeColor=inherit;top=0;left=0;bottom=0;right=0;collapsible=0;dropTarget=0;fillColor=none;points=[[0,0.5],[1,0.5]];portConstraint=eastwest;fontSize=12;fontFamily=Times New Roman;" vertex="1" parent="tXr3WQVE7DewJCYpaaG6-1">
          <mxGeometry width="160" height="20" as="geometry" />
        </mxCell>
        <mxCell id="tXr3WQVE7DewJCYpaaG6-3" value="" style="shape=partialRectangle;html=1;whiteSpace=wrap;connectable=0;strokeColor=inherit;overflow=hidden;fillColor=none;top=0;left=0;bottom=0;right=0;pointerEvents=1;fontSize=12;fontFamily=Times New Roman;align=left;container=1;collapsible=0;" vertex="1" parent="tXr3WQVE7DewJCYpaaG6-2">
          <mxGeometry width="160" height="20" as="geometry">
            <mxRectangle width="160" height="20" as="alternateBounds" />
          </mxGeometry>
        </mxCell>
        <mxCell id="bZRU510DWRhSNHqo2ZIX-33" value="&lt;font face=&quot;Times New Roman&quot;&gt;&amp;nbsp; buckets[0] : k_hash_list&lt;/font&gt;" style="text;html=1;strokeColor=none;fillColor=none;align=left;verticalAlign=middle;whiteSpace=wrap;rounded=0;" vertex="1" parent="tXr3WQVE7DewJCYpaaG6-3">
          <mxGeometry width="140" height="20" as="geometry" />
        </mxCell>
        <mxCell id="bZRU510DWRhSNHqo2ZIX-34" value="" style="shape=waypoint;sketch=0;fillStyle=solid;size=6;pointerEvents=1;points=[];fillColor=#d5e8d4;resizable=0;rotatable=0;perimeter=centerPerimeter;snapToPoint=1;strokeColor=#82b366;fontFamily=Times New Roman;" vertex="1" parent="tXr3WQVE7DewJCYpaaG6-3">
          <mxGeometry x="140" width="20" height="20" as="geometry" />
        </mxCell>
        <mxCell id="tXr3WQVE7DewJCYpaaG6-4" value="" style="shape=tableRow;horizontal=0;startSize=0;swimlaneHead=0;swimlaneBody=0;strokeColor=inherit;top=0;left=0;bottom=0;right=0;collapsible=0;dropTarget=0;fillColor=none;points=[[0,0.5],[1,0.5]];portConstraint=eastwest;fontSize=12;fontFamily=Times New Roman;" vertex="1" parent="tXr3WQVE7DewJCYpaaG6-1">
          <mxGeometry y="20" width="160" height="20" as="geometry" />
        </mxCell>
        <mxCell id="tXr3WQVE7DewJCYpaaG6-5" value="&amp;nbsp; buckets[1]" style="shape=partialRectangle;html=1;whiteSpace=wrap;connectable=0;strokeColor=inherit;overflow=hidden;fillColor=none;top=0;left=0;bottom=0;right=0;pointerEvents=1;fontSize=12;fontFamily=Times New Roman;align=left;" vertex="1" parent="tXr3WQVE7DewJCYpaaG6-4">
          <mxGeometry width="160" height="20" as="geometry">
            <mxRectangle width="160" height="20" as="alternateBounds" />
          </mxGeometry>
        </mxCell>
        <mxCell id="tXr3WQVE7DewJCYpaaG6-6" value="" style="shape=tableRow;horizontal=0;startSize=0;swimlaneHead=0;swimlaneBody=0;strokeColor=inherit;top=0;left=0;bottom=0;right=0;collapsible=0;dropTarget=0;fillColor=none;points=[[0,0.5],[1,0.5]];portConstraint=eastwest;fontSize=12;fontFamily=Times New Roman;" vertex="1" parent="tXr3WQVE7DewJCYpaaG6-1">
          <mxGeometry y="40" width="160" height="20" as="geometry" />
        </mxCell>
        <mxCell id="tXr3WQVE7DewJCYpaaG6-7" value="&amp;nbsp; buckets[2]" style="shape=partialRectangle;html=1;whiteSpace=wrap;connectable=0;strokeColor=inherit;overflow=hidden;fillColor=none;top=0;left=0;bottom=0;right=0;pointerEvents=1;fontSize=12;fontFamily=Times New Roman;align=left;" vertex="1" parent="tXr3WQVE7DewJCYpaaG6-6">
          <mxGeometry width="160" height="20" as="geometry">
            <mxRectangle width="160" height="20" as="alternateBounds" />
          </mxGeometry>
        </mxCell>
        <mxCell id="tXr3WQVE7DewJCYpaaG6-8" style="shape=tableRow;horizontal=0;startSize=0;swimlaneHead=0;swimlaneBody=0;strokeColor=inherit;top=0;left=0;bottom=0;right=0;collapsible=0;dropTarget=0;fillColor=none;points=[[0,0.5],[1,0.5]];portConstraint=eastwest;fontSize=12;fontFamily=Times New Roman;" vertex="1" parent="tXr3WQVE7DewJCYpaaG6-1">
          <mxGeometry y="60" width="160" height="20" as="geometry" />
        </mxCell>
        <mxCell id="tXr3WQVE7DewJCYpaaG6-9" value="&amp;nbsp; buckets[3]" style="shape=partialRectangle;html=1;whiteSpace=wrap;connectable=0;strokeColor=inherit;overflow=hidden;fillColor=none;top=0;left=0;bottom=0;right=0;pointerEvents=1;fontSize=12;fontFamily=Times New Roman;align=left;" vertex="1" parent="tXr3WQVE7DewJCYpaaG6-8">
          <mxGeometry width="160" height="20" as="geometry">
            <mxRectangle width="160" height="20" as="alternateBounds" />
          </mxGeometry>
        </mxCell>
        <mxCell id="tXr3WQVE7DewJCYpaaG6-10" style="shape=tableRow;horizontal=0;startSize=0;swimlaneHead=0;swimlaneBody=0;strokeColor=inherit;top=0;left=0;bottom=0;right=0;collapsible=0;dropTarget=0;fillColor=none;points=[[0,0.5],[1,0.5]];portConstraint=eastwest;fontSize=12;fontFamily=Times New Roman;" vertex="1" parent="tXr3WQVE7DewJCYpaaG6-1">
          <mxGeometry y="80" width="160" height="20" as="geometry" />
        </mxCell>
        <mxCell id="tXr3WQVE7DewJCYpaaG6-11" value="&amp;nbsp; ..." style="shape=partialRectangle;html=1;whiteSpace=wrap;connectable=0;strokeColor=inherit;overflow=hidden;fillColor=none;top=0;left=0;bottom=0;right=0;pointerEvents=1;fontSize=12;fontFamily=Times New Roman;align=left;" vertex="1" parent="tXr3WQVE7DewJCYpaaG6-10">
          <mxGeometry width="160" height="20" as="geometry">
            <mxRectangle width="160" height="20" as="alternateBounds" />
          </mxGeometry>
        </mxCell>
        <mxCell id="4Mt0gkagLQ8Mia4e7NE3-1" value="" style="endArrow=block;html=1;rounded=0;curved=1;endFill=1;edgeStyle=orthogonalEdgeStyle;fillColor=#f8cecc;strokeColor=#b85450;fontFamily=Times New Roman;exitX=0.54;exitY=0.352;exitDx=0;exitDy=0;exitPerimeter=0;" edge="1" parent="1" source="ouFCNTB4VTKewSgNOnBN-7" target="tXr3WQVE7DewJCYpaaG6-2">
          <mxGeometry width="50" height="50" relative="1" as="geometry">
            <mxPoint x="410" y="230" as="sourcePoint" />
            <mxPoint x="420" y="290" as="targetPoint" />
            <Array as="points">
              <mxPoint x="350" y="290" />
              <mxPoint x="350" y="290" />
            </Array>
          </mxGeometry>
        </mxCell>
        <mxCell id="bZRU510DWRhSNHqo2ZIX-1" value="&lt;font&gt;: &lt;u&gt;k_str_intrusive_map_node&lt;/u&gt;&lt;/font&gt;" style="swimlane;fontStyle=0;childLayout=stackLayout;horizontal=1;startSize=20;fillColor=#FFFFFF;horizontalStack=0;resizeParent=1;resizeParentMax=0;resizeLast=0;collapsible=0;marginBottom=0;whiteSpace=wrap;html=1;labelBackgroundColor=default;fontFamily=Times New Roman;" vertex="1" parent="1">
          <mxGeometry x="320" y="400" width="200" height="80" as="geometry">
            <mxRectangle x="80" y="480" width="80" height="30" as="alternateBounds" />
          </mxGeometry>
        </mxCell>
        <mxCell id="bZRU510DWRhSNHqo2ZIX-2" value="" style="shape=table;html=1;whiteSpace=wrap;startSize=0;container=1;collapsible=0;childLayout=tableLayout;columnLines=0;rowLines=0;fontSize=16;strokeColor=default;align=left;fontFamily=Times New Roman;" vertex="1" parent="bZRU510DWRhSNHqo2ZIX-1">
          <mxGeometry y="20" width="200" height="60" as="geometry" />
        </mxCell>
        <mxCell id="bZRU510DWRhSNHqo2ZIX-3" value="" style="shape=tableRow;horizontal=0;startSize=0;swimlaneHead=0;swimlaneBody=0;top=0;left=0;bottom=0;right=0;collapsible=0;dropTarget=0;fillColor=none;points=[[0,0.5],[1,0.5]];portConstraint=eastwest;fontSize=16;strokeColor=inherit;fontFamily=Times New Roman;" vertex="1" parent="bZRU510DWRhSNHqo2ZIX-2">
          <mxGeometry width="200" height="20" as="geometry" />
        </mxCell>
        <mxCell id="bZRU510DWRhSNHqo2ZIX-4" value="+ node_link" style="shape=partialRectangle;html=1;whiteSpace=wrap;connectable=0;fillColor=none;top=0;left=0;bottom=0;right=0;overflow=hidden;fontSize=12;strokeColor=inherit;align=left;fontFamily=Times New Roman;" vertex="1" parent="bZRU510DWRhSNHqo2ZIX-3">
          <mxGeometry width="60" height="20" as="geometry">
            <mxRectangle width="60" height="20" as="alternateBounds" />
          </mxGeometry>
        </mxCell>
        <mxCell id="bZRU510DWRhSNHqo2ZIX-5" value="&lt;span style=&quot;border-color: var(--border-color); text-align: center; background-color: rgb(255, 255, 255);&quot;&gt;: k_hash_list_node *&lt;/span&gt;" style="shape=partialRectangle;html=1;whiteSpace=wrap;connectable=0;fillColor=none;top=0;left=0;bottom=0;right=0;overflow=hidden;fontSize=12;strokeColor=inherit;align=left;fontFamily=Times New Roman;" vertex="1" parent="bZRU510DWRhSNHqo2ZIX-3">
          <mxGeometry x="60" width="120" height="20" as="geometry">
            <mxRectangle width="120" height="20" as="alternateBounds" />
          </mxGeometry>
        </mxCell>
        <mxCell id="bZRU510DWRhSNHqo2ZIX-6" value="" style="shape=partialRectangle;html=1;whiteSpace=wrap;connectable=0;fillColor=none;top=0;left=0;bottom=0;right=0;overflow=hidden;fontSize=12;strokeColor=inherit;fontFamily=Times New Roman;container=1;collapsible=0;" vertex="1" parent="bZRU510DWRhSNHqo2ZIX-3">
          <mxGeometry x="180" width="20" height="20" as="geometry">
            <mxRectangle width="20" height="20" as="alternateBounds" />
          </mxGeometry>
        </mxCell>
        <mxCell id="bZRU510DWRhSNHqo2ZIX-31" value="" style="shape=waypoint;sketch=0;fillStyle=solid;size=6;pointerEvents=1;points=[];fillColor=#d5e8d4;resizable=0;rotatable=0;perimeter=centerPerimeter;snapToPoint=1;strokeColor=#82b366;fontFamily=Times New Roman;" vertex="1" parent="bZRU510DWRhSNHqo2ZIX-6">
          <mxGeometry width="20" height="20" as="geometry" />
        </mxCell>
        <mxCell id="bZRU510DWRhSNHqo2ZIX-8" value="" style="shape=tableRow;horizontal=0;startSize=0;swimlaneHead=0;swimlaneBody=0;top=0;left=0;bottom=0;right=0;collapsible=0;dropTarget=0;fillColor=none;points=[[0,0.5],[1,0.5]];portConstraint=eastwest;fontSize=16;strokeColor=inherit;fontFamily=Times New Roman;" vertex="1" parent="bZRU510DWRhSNHqo2ZIX-2">
          <mxGeometry y="20" width="200" height="20" as="geometry" />
        </mxCell>
        <mxCell id="bZRU510DWRhSNHqo2ZIX-9" value="+ key" style="shape=partialRectangle;html=1;whiteSpace=wrap;connectable=0;fillColor=none;top=0;left=0;bottom=0;right=0;overflow=hidden;fontSize=12;strokeColor=inherit;align=left;fontFamily=Times New Roman;" vertex="1" parent="bZRU510DWRhSNHqo2ZIX-8">
          <mxGeometry width="60" height="20" as="geometry">
            <mxRectangle width="60" height="20" as="alternateBounds" />
          </mxGeometry>
        </mxCell>
        <mxCell id="bZRU510DWRhSNHqo2ZIX-10" value="&lt;span style=&quot;border-color: var(--border-color); text-align: center; background-color: rgb(255, 255, 255);&quot;&gt;: const char *&lt;/span&gt;" style="shape=partialRectangle;html=1;whiteSpace=wrap;connectable=0;fillColor=none;top=0;left=0;bottom=0;right=0;overflow=hidden;fontSize=12;strokeColor=inherit;align=left;fontFamily=Times New Roman;" vertex="1" parent="bZRU510DWRhSNHqo2ZIX-8">
          <mxGeometry x="60" width="120" height="20" as="geometry">
            <mxRectangle width="120" height="20" as="alternateBounds" />
          </mxGeometry>
        </mxCell>
        <mxCell id="bZRU510DWRhSNHqo2ZIX-11" value="" style="shape=partialRectangle;html=1;whiteSpace=wrap;connectable=0;fillColor=none;top=0;left=0;bottom=0;right=0;overflow=hidden;fontSize=12;strokeColor=inherit;fontFamily=Times New Roman;container=1;collapsible=0;" vertex="1" parent="bZRU510DWRhSNHqo2ZIX-8">
          <mxGeometry x="180" width="20" height="20" as="geometry">
            <mxRectangle width="20" height="20" as="alternateBounds" />
          </mxGeometry>
        </mxCell>
        <mxCell id="bZRU510DWRhSNHqo2ZIX-13" style="shape=tableRow;horizontal=0;startSize=0;swimlaneHead=0;swimlaneBody=0;top=0;left=0;bottom=0;right=0;collapsible=0;dropTarget=0;fillColor=none;points=[[0,0.5],[1,0.5]];portConstraint=eastwest;fontSize=16;strokeColor=inherit;fontFamily=Times New Roman;" vertex="1" parent="bZRU510DWRhSNHqo2ZIX-2">
          <mxGeometry y="40" width="200" height="20" as="geometry" />
        </mxCell>
        <mxCell id="bZRU510DWRhSNHqo2ZIX-14" value="+ key_hash" style="shape=partialRectangle;html=1;whiteSpace=wrap;connectable=0;fillColor=none;top=0;left=0;bottom=0;right=0;overflow=hidden;fontSize=12;strokeColor=inherit;align=left;fontFamily=Times New Roman;" vertex="1" parent="bZRU510DWRhSNHqo2ZIX-13">
          <mxGeometry width="60" height="20" as="geometry">
            <mxRectangle width="60" height="20" as="alternateBounds" />
          </mxGeometry>
        </mxCell>
        <mxCell id="bZRU510DWRhSNHqo2ZIX-15" value=": size_t" style="shape=partialRectangle;html=1;whiteSpace=wrap;connectable=0;fillColor=none;top=0;left=0;bottom=0;right=0;overflow=hidden;fontSize=12;strokeColor=inherit;align=left;fontFamily=Times New Roman;" vertex="1" parent="bZRU510DWRhSNHqo2ZIX-13">
          <mxGeometry x="60" width="120" height="20" as="geometry">
            <mxRectangle width="120" height="20" as="alternateBounds" />
          </mxGeometry>
        </mxCell>
        <mxCell id="bZRU510DWRhSNHqo2ZIX-16" style="shape=partialRectangle;html=1;whiteSpace=wrap;connectable=0;fillColor=none;top=0;left=0;bottom=0;right=0;overflow=hidden;fontSize=12;strokeColor=inherit;fontFamily=Times New Roman;container=1;collapsible=0;" vertex="1" parent="bZRU510DWRhSNHqo2ZIX-13">
          <mxGeometry x="180" width="20" height="20" as="geometry">
            <mxRectangle width="20" height="20" as="alternateBounds" />
          </mxGeometry>
        </mxCell>
        <mxCell id="bZRU510DWRhSNHqo2ZIX-35" value="" style="endArrow=none;html=1;rounded=0;curved=1;endFill=0;edgeStyle=orthogonalEdgeStyle;fillColor=#d5e8d4;strokeColor=#82b366;fontFamily=Times New Roman;" edge="1" parent="1" source="bZRU510DWRhSNHqo2ZIX-31" target="bZRU510DWRhSNHqo2ZIX-34">
          <mxGeometry width="50" height="50" relative="1" as="geometry">
            <mxPoint x="530" y="280" as="sourcePoint" />
            <mxPoint x="550" y="300" as="targetPoint" />
            <Array as="points">
              <mxPoint x="530" y="430" />
              <mxPoint x="530" y="290" />
            </Array>
          </mxGeometry>
        </mxCell>
        <mxCell id="0fibGTKWS__MQxTY6cZD-1" value="使用 k_hash_list 数组作为哈希桶，map 节点则嵌入 k_hash_list_node 结构" style="shape=note;whiteSpace=wrap;html=1;backgroundOutline=1;darkOpacity=0.05;size=10;container=1;collapsible=0;fontFamily=Times New Roman;align=left;" vertex="1" parent="1">
          <mxGeometry x="120" y="380" width="140" height="60" as="geometry" />
        </mxCell>
        <mxCell id="0fibGTKWS__MQxTY6cZD-3" value="" style="endArrow=none;dashed=1;html=1;rounded=0;curved=1;entryX=0;entryY=0.5;entryDx=0;entryDy=0;exitX=0;exitY=0;exitDx=140;exitDy=35;exitPerimeter=0;" edge="1" parent="1" source="0fibGTKWS__MQxTY6cZD-1" target="bZRU510DWRhSNHqo2ZIX-33">
          <mxGeometry width="50" height="50" relative="1" as="geometry">
            <mxPoint x="250" y="360" as="sourcePoint" />
            <mxPoint x="290" y="410" as="targetPoint" />
          </mxGeometry>
        </mxCell>
        <mxCell id="He9xjLh8SGyXffsPdHcZ-1" value="" style="endArrow=none;dashed=1;html=1;rounded=0;curved=1;entryX=0;entryY=0.5;entryDx=0;entryDy=0;exitX=0;exitY=0;exitDx=140;exitDy=35;exitPerimeter=0;" edge="1" parent="1" source="0fibGTKWS__MQxTY6cZD-1" target="bZRU510DWRhSNHqo2ZIX-3">
          <mxGeometry width="50" height="50" relative="1" as="geometry">
            <mxPoint x="270" y="405" as="sourcePoint" />
            <mxPoint x="370" y="360" as="targetPoint" />
          </mxGeometry>
        </mxCell>
      </root>
    </mxGraphModel>
  </diagram>
  <diagram id="_59yfhdZXzw--JtB74aN" name="k_str_map">
    <mxGraphModel dx="819" dy="482" grid="1" gridSize="10" guides="1" tooltips="1" connect="1" arrows="1" fold="1" page="1" pageScale="1" pageWidth="827" pageHeight="1169" math="0" shadow="0">
      <root>
        <mxCell id="0" />
        <mxCell id="1" parent="0" />
        <mxCell id="57iAYyWJbcwlmH2eAoyR-1" value="&lt;font face=&quot;Times New Roman&quot;&gt;: &lt;u&gt;k_str_map&lt;/u&gt;&lt;/font&gt;" style="swimlane;fontStyle=0;childLayout=stackLayout;horizontal=1;startSize=20;fillColor=#FFFFFF;horizontalStack=0;resizeParent=1;resizeParentMax=0;resizeLast=0;collapsible=0;marginBottom=0;whiteSpace=wrap;html=1;labelBackgroundColor=default;" vertex="1" parent="1">
          <mxGeometry x="120" y="320" width="220" height="140" as="geometry">
            <mxRectangle x="80" y="480" width="80" height="30" as="alternateBounds" />
          </mxGeometry>
        </mxCell>
        <mxCell id="57iAYyWJbcwlmH2eAoyR-2" value="" style="shape=table;html=1;whiteSpace=wrap;startSize=0;container=1;collapsible=0;childLayout=tableLayout;columnLines=0;rowLines=0;fontSize=16;strokeColor=default;align=left;" vertex="1" parent="57iAYyWJbcwlmH2eAoyR-1">
          <mxGeometry y="20" width="220" height="120" as="geometry" />
        </mxCell>
        <mxCell id="57iAYyWJbcwlmH2eAoyR-3" value="" style="shape=tableRow;horizontal=0;startSize=0;swimlaneHead=0;swimlaneBody=0;top=0;left=0;bottom=0;right=0;collapsible=0;dropTarget=0;fillColor=none;points=[[0,0.5],[1,0.5]];portConstraint=eastwest;fontSize=16;strokeColor=inherit;" vertex="1" parent="57iAYyWJbcwlmH2eAoyR-2">
          <mxGeometry width="220" height="20" as="geometry" />
        </mxCell>
        <mxCell id="57iAYyWJbcwlmH2eAoyR-4" value="- fn_malloc" style="shape=partialRectangle;html=1;whiteSpace=wrap;connectable=0;fillColor=none;top=0;left=0;bottom=0;right=0;overflow=hidden;fontSize=12;strokeColor=inherit;align=left;fontFamily=Times New Roman;" vertex="1" parent="57iAYyWJbcwlmH2eAoyR-3">
          <mxGeometry width="100" height="20" as="geometry">
            <mxRectangle width="100" height="20" as="alternateBounds" />
          </mxGeometry>
        </mxCell>
        <mxCell id="57iAYyWJbcwlmH2eAoyR-5" value=": void *(*)(size_t )" style="shape=partialRectangle;html=1;whiteSpace=wrap;connectable=0;fillColor=none;top=0;left=0;bottom=0;right=0;overflow=hidden;fontSize=12;strokeColor=inherit;align=left;fontFamily=Times New Roman;" vertex="1" parent="57iAYyWJbcwlmH2eAoyR-3">
          <mxGeometry x="100" width="100" height="20" as="geometry">
            <mxRectangle width="100" height="20" as="alternateBounds" />
          </mxGeometry>
        </mxCell>
        <mxCell id="57iAYyWJbcwlmH2eAoyR-6" value="" style="shape=partialRectangle;html=1;whiteSpace=wrap;connectable=0;fillColor=none;top=0;left=0;bottom=0;right=0;overflow=hidden;fontSize=12;strokeColor=inherit;fontFamily=Times New Roman;" vertex="1" parent="57iAYyWJbcwlmH2eAoyR-3">
          <mxGeometry x="200" width="20" height="20" as="geometry">
            <mxRectangle width="20" height="20" as="alternateBounds" />
          </mxGeometry>
        </mxCell>
        <mxCell id="57iAYyWJbcwlmH2eAoyR-7" value="" style="shape=tableRow;horizontal=0;startSize=0;swimlaneHead=0;swimlaneBody=0;top=0;left=0;bottom=0;right=0;collapsible=0;dropTarget=0;fillColor=none;points=[[0,0.5],[1,0.5]];portConstraint=eastwest;fontSize=16;strokeColor=inherit;" vertex="1" parent="57iAYyWJbcwlmH2eAoyR-2">
          <mxGeometry y="20" width="220" height="20" as="geometry" />
        </mxCell>
        <mxCell id="57iAYyWJbcwlmH2eAoyR-8" value="- fn_free" style="shape=partialRectangle;html=1;whiteSpace=wrap;connectable=0;fillColor=none;top=0;left=0;bottom=0;right=0;overflow=hidden;fontSize=12;strokeColor=inherit;align=left;fontFamily=Times New Roman;" vertex="1" parent="57iAYyWJbcwlmH2eAoyR-7">
          <mxGeometry width="100" height="20" as="geometry">
            <mxRectangle width="100" height="20" as="alternateBounds" />
          </mxGeometry>
        </mxCell>
        <mxCell id="57iAYyWJbcwlmH2eAoyR-9" value=": void (*)(void *)" style="shape=partialRectangle;html=1;whiteSpace=wrap;connectable=0;fillColor=none;top=0;left=0;bottom=0;right=0;overflow=hidden;fontSize=12;strokeColor=inherit;align=left;fontFamily=Times New Roman;" vertex="1" parent="57iAYyWJbcwlmH2eAoyR-7">
          <mxGeometry x="100" width="100" height="20" as="geometry">
            <mxRectangle width="100" height="20" as="alternateBounds" />
          </mxGeometry>
        </mxCell>
        <mxCell id="57iAYyWJbcwlmH2eAoyR-10" value="" style="shape=partialRectangle;html=1;whiteSpace=wrap;connectable=0;fillColor=none;top=0;left=0;bottom=0;right=0;overflow=hidden;fontSize=12;strokeColor=inherit;fontFamily=Times New Roman;" vertex="1" parent="57iAYyWJbcwlmH2eAoyR-7">
          <mxGeometry x="200" width="20" height="20" as="geometry">
            <mxRectangle width="20" height="20" as="alternateBounds" />
          </mxGeometry>
        </mxCell>
        <mxCell id="57iAYyWJbcwlmH2eAoyR-11" value="" style="shape=tableRow;horizontal=0;startSize=0;swimlaneHead=0;swimlaneBody=0;top=0;left=0;bottom=0;right=0;collapsible=0;dropTarget=0;fillColor=none;points=[[0,0.5],[1,0.5]];portConstraint=eastwest;fontSize=16;strokeColor=inherit;" vertex="1" parent="57iAYyWJbcwlmH2eAoyR-2">
          <mxGeometry y="40" width="220" height="20" as="geometry" />
        </mxCell>
        <mxCell id="57iAYyWJbcwlmH2eAoyR-12" value="+ size" style="shape=partialRectangle;html=1;whiteSpace=wrap;connectable=0;fillColor=none;top=0;left=0;bottom=0;right=0;overflow=hidden;fontSize=12;strokeColor=inherit;align=left;fontFamily=Times New Roman;" vertex="1" parent="57iAYyWJbcwlmH2eAoyR-11">
          <mxGeometry width="100" height="20" as="geometry">
            <mxRectangle width="100" height="20" as="alternateBounds" />
          </mxGeometry>
        </mxCell>
        <mxCell id="57iAYyWJbcwlmH2eAoyR-13" value=": size_t" style="shape=partialRectangle;html=1;whiteSpace=wrap;connectable=0;fillColor=none;top=0;left=0;bottom=0;right=0;overflow=hidden;fontSize=12;strokeColor=inherit;align=left;fontFamily=Times New Roman;" vertex="1" parent="57iAYyWJbcwlmH2eAoyR-11">
          <mxGeometry x="100" width="100" height="20" as="geometry">
            <mxRectangle width="100" height="20" as="alternateBounds" />
          </mxGeometry>
        </mxCell>
        <mxCell id="57iAYyWJbcwlmH2eAoyR-14" value="" style="shape=partialRectangle;html=1;whiteSpace=wrap;connectable=0;fillColor=none;top=0;left=0;bottom=0;right=0;overflow=hidden;fontSize=12;strokeColor=inherit;fontFamily=Times New Roman;" vertex="1" parent="57iAYyWJbcwlmH2eAoyR-11">
          <mxGeometry x="200" width="20" height="20" as="geometry">
            <mxRectangle width="20" height="20" as="alternateBounds" />
          </mxGeometry>
        </mxCell>
        <mxCell id="57iAYyWJbcwlmH2eAoyR-15" style="shape=tableRow;horizontal=0;startSize=0;swimlaneHead=0;swimlaneBody=0;top=0;left=0;bottom=0;right=0;collapsible=0;dropTarget=0;fillColor=none;points=[[0,0.5],[1,0.5]];portConstraint=eastwest;fontSize=16;strokeColor=inherit;" vertex="1" parent="57iAYyWJbcwlmH2eAoyR-2">
          <mxGeometry y="60" width="220" height="20" as="geometry" />
        </mxCell>
        <mxCell id="57iAYyWJbcwlmH2eAoyR-16" value="- buckets" style="shape=partialRectangle;html=1;whiteSpace=wrap;connectable=0;fillColor=none;top=0;left=0;bottom=0;right=0;overflow=hidden;fontSize=12;strokeColor=inherit;align=left;fontFamily=Times New Roman;" vertex="1" parent="57iAYyWJbcwlmH2eAoyR-15">
          <mxGeometry width="100" height="20" as="geometry">
            <mxRectangle width="100" height="20" as="alternateBounds" />
          </mxGeometry>
        </mxCell>
        <mxCell id="57iAYyWJbcwlmH2eAoyR-17" value=": void *" style="shape=partialRectangle;html=1;whiteSpace=wrap;connectable=0;fillColor=none;top=0;left=0;bottom=0;right=0;overflow=hidden;fontSize=12;strokeColor=inherit;align=left;fontFamily=Times New Roman;" vertex="1" parent="57iAYyWJbcwlmH2eAoyR-15">
          <mxGeometry x="100" width="100" height="20" as="geometry">
            <mxRectangle width="100" height="20" as="alternateBounds" />
          </mxGeometry>
        </mxCell>
        <mxCell id="57iAYyWJbcwlmH2eAoyR-18" style="shape=partialRectangle;html=1;whiteSpace=wrap;connectable=0;fillColor=none;top=0;left=0;bottom=0;right=0;overflow=hidden;fontSize=12;strokeColor=inherit;fontFamily=Times New Roman;container=1;collapsible=0;" vertex="1" parent="57iAYyWJbcwlmH2eAoyR-15">
          <mxGeometry x="200" width="20" height="20" as="geometry">
            <mxRectangle width="20" height="20" as="alternateBounds" />
          </mxGeometry>
        </mxCell>
        <mxCell id="b3T_J-S0rsTQpLNiJZ8Q-1" value="" style="shape=waypoint;sketch=0;fillStyle=solid;size=6;pointerEvents=1;points=[];fillColor=#f8cecc;resizable=0;rotatable=0;perimeter=centerPerimeter;snapToPoint=1;strokeColor=#b85450;" vertex="1" parent="57iAYyWJbcwlmH2eAoyR-18">
          <mxGeometry width="20" height="20" as="geometry" />
        </mxCell>
        <mxCell id="57iAYyWJbcwlmH2eAoyR-19" style="shape=tableRow;horizontal=0;startSize=0;swimlaneHead=0;swimlaneBody=0;top=0;left=0;bottom=0;right=0;collapsible=0;dropTarget=0;fillColor=none;points=[[0,0.5],[1,0.5]];portConstraint=eastwest;fontSize=16;strokeColor=inherit;" vertex="1" parent="57iAYyWJbcwlmH2eAoyR-2">
          <mxGeometry y="80" width="220" height="20" as="geometry" />
        </mxCell>
        <mxCell id="57iAYyWJbcwlmH2eAoyR-20" value="- buckets_num" style="shape=partialRectangle;html=1;whiteSpace=wrap;connectable=0;fillColor=none;top=0;left=0;bottom=0;right=0;overflow=hidden;fontSize=12;strokeColor=inherit;align=left;fontFamily=Times New Roman;" vertex="1" parent="57iAYyWJbcwlmH2eAoyR-19">
          <mxGeometry width="100" height="20" as="geometry">
            <mxRectangle width="100" height="20" as="alternateBounds" />
          </mxGeometry>
        </mxCell>
        <mxCell id="57iAYyWJbcwlmH2eAoyR-21" value=": size_t" style="shape=partialRectangle;html=1;whiteSpace=wrap;connectable=0;fillColor=none;top=0;left=0;bottom=0;right=0;overflow=hidden;fontSize=12;strokeColor=inherit;align=left;fontFamily=Times New Roman;" vertex="1" parent="57iAYyWJbcwlmH2eAoyR-19">
          <mxGeometry x="100" width="100" height="20" as="geometry">
            <mxRectangle width="100" height="20" as="alternateBounds" />
          </mxGeometry>
        </mxCell>
        <mxCell id="57iAYyWJbcwlmH2eAoyR-22" style="shape=partialRectangle;html=1;whiteSpace=wrap;connectable=0;fillColor=none;top=0;left=0;bottom=0;right=0;overflow=hidden;fontSize=12;strokeColor=inherit;fontFamily=Times New Roman;" vertex="1" parent="57iAYyWJbcwlmH2eAoyR-19">
          <mxGeometry x="200" width="20" height="20" as="geometry">
            <mxRectangle width="20" height="20" as="alternateBounds" />
          </mxGeometry>
        </mxCell>
        <mxCell id="i8v4NVj0tD-J56GnCLtp-1" style="shape=tableRow;horizontal=0;startSize=0;swimlaneHead=0;swimlaneBody=0;top=0;left=0;bottom=0;right=0;collapsible=0;dropTarget=0;fillColor=none;points=[[0,0.5],[1,0.5]];portConstraint=eastwest;fontSize=16;strokeColor=inherit;" vertex="1" parent="57iAYyWJbcwlmH2eAoyR-2">
          <mxGeometry y="100" width="220" height="20" as="geometry" />
        </mxCell>
        <mxCell id="i8v4NVj0tD-J56GnCLtp-2" value="- rehash_threshold" style="shape=partialRectangle;html=1;whiteSpace=wrap;connectable=0;fillColor=none;top=0;left=0;bottom=0;right=0;overflow=hidden;fontSize=12;strokeColor=inherit;align=left;fontFamily=Times New Roman;" vertex="1" parent="i8v4NVj0tD-J56GnCLtp-1">
          <mxGeometry width="100" height="20" as="geometry">
            <mxRectangle width="100" height="20" as="alternateBounds" />
          </mxGeometry>
        </mxCell>
        <mxCell id="i8v4NVj0tD-J56GnCLtp-3" value=": size_t" style="shape=partialRectangle;html=1;whiteSpace=wrap;connectable=0;fillColor=none;top=0;left=0;bottom=0;right=0;overflow=hidden;fontSize=12;strokeColor=inherit;align=left;fontFamily=Times New Roman;" vertex="1" parent="i8v4NVj0tD-J56GnCLtp-1">
          <mxGeometry x="100" width="100" height="20" as="geometry">
            <mxRectangle width="100" height="20" as="alternateBounds" />
          </mxGeometry>
        </mxCell>
        <mxCell id="i8v4NVj0tD-J56GnCLtp-4" style="shape=partialRectangle;html=1;whiteSpace=wrap;connectable=0;fillColor=none;top=0;left=0;bottom=0;right=0;overflow=hidden;fontSize=12;strokeColor=inherit;fontFamily=Times New Roman;" vertex="1" parent="i8v4NVj0tD-J56GnCLtp-1">
          <mxGeometry x="200" width="20" height="20" as="geometry">
            <mxRectangle width="20" height="20" as="alternateBounds" />
          </mxGeometry>
        </mxCell>
        <mxCell id="iW8amN1fxGPxCDLHM9xs-1" value="" style="shape=table;startSize=0;container=1;collapsible=0;childLayout=tableLayout;fontSize=12;fontFamily=Times New Roman;" vertex="1" parent="1">
          <mxGeometry x="360" y="320" width="160" height="100" as="geometry" />
        </mxCell>
        <mxCell id="iW8amN1fxGPxCDLHM9xs-2" value="" style="shape=tableRow;horizontal=0;startSize=0;swimlaneHead=0;swimlaneBody=0;strokeColor=inherit;top=0;left=0;bottom=0;right=0;collapsible=0;dropTarget=0;fillColor=none;points=[[0,0.5],[1,0.5]];portConstraint=eastwest;fontSize=12;fontFamily=Times New Roman;" vertex="1" parent="iW8amN1fxGPxCDLHM9xs-1">
          <mxGeometry width="160" height="20" as="geometry" />
        </mxCell>
        <mxCell id="iW8amN1fxGPxCDLHM9xs-3" value="" style="shape=partialRectangle;html=1;whiteSpace=wrap;connectable=0;strokeColor=inherit;overflow=hidden;fillColor=none;top=0;left=0;bottom=0;right=0;pointerEvents=1;fontSize=12;fontFamily=Times New Roman;align=left;container=1;collapsible=0;" vertex="1" parent="iW8amN1fxGPxCDLHM9xs-2">
          <mxGeometry width="160" height="20" as="geometry">
            <mxRectangle width="160" height="20" as="alternateBounds" />
          </mxGeometry>
        </mxCell>
        <mxCell id="iW8amN1fxGPxCDLHM9xs-4" value="&lt;font face=&quot;Times New Roman&quot;&gt;&amp;nbsp; buckets[0] : k_hash_list&lt;/font&gt;" style="text;html=1;strokeColor=none;fillColor=none;align=left;verticalAlign=middle;whiteSpace=wrap;rounded=0;" vertex="1" parent="iW8amN1fxGPxCDLHM9xs-3">
          <mxGeometry width="140" height="20" as="geometry" />
        </mxCell>
        <mxCell id="iW8amN1fxGPxCDLHM9xs-5" value="" style="shape=waypoint;sketch=0;fillStyle=solid;size=6;pointerEvents=1;points=[];fillColor=#d5e8d4;resizable=0;rotatable=0;perimeter=centerPerimeter;snapToPoint=1;strokeColor=#82b366;fontFamily=Times New Roman;" vertex="1" parent="iW8amN1fxGPxCDLHM9xs-3">
          <mxGeometry x="140" width="20" height="20" as="geometry" />
        </mxCell>
        <mxCell id="iW8amN1fxGPxCDLHM9xs-6" value="" style="shape=tableRow;horizontal=0;startSize=0;swimlaneHead=0;swimlaneBody=0;strokeColor=inherit;top=0;left=0;bottom=0;right=0;collapsible=0;dropTarget=0;fillColor=none;points=[[0,0.5],[1,0.5]];portConstraint=eastwest;fontSize=12;fontFamily=Times New Roman;" vertex="1" parent="iW8amN1fxGPxCDLHM9xs-1">
          <mxGeometry y="20" width="160" height="20" as="geometry" />
        </mxCell>
        <mxCell id="iW8amN1fxGPxCDLHM9xs-7" value="&amp;nbsp; buckets[1]" style="shape=partialRectangle;html=1;whiteSpace=wrap;connectable=0;strokeColor=inherit;overflow=hidden;fillColor=none;top=0;left=0;bottom=0;right=0;pointerEvents=1;fontSize=12;fontFamily=Times New Roman;align=left;" vertex="1" parent="iW8amN1fxGPxCDLHM9xs-6">
          <mxGeometry width="160" height="20" as="geometry">
            <mxRectangle width="160" height="20" as="alternateBounds" />
          </mxGeometry>
        </mxCell>
        <mxCell id="iW8amN1fxGPxCDLHM9xs-8" value="" style="shape=tableRow;horizontal=0;startSize=0;swimlaneHead=0;swimlaneBody=0;strokeColor=inherit;top=0;left=0;bottom=0;right=0;collapsible=0;dropTarget=0;fillColor=none;points=[[0,0.5],[1,0.5]];portConstraint=eastwest;fontSize=12;fontFamily=Times New Roman;" vertex="1" parent="iW8amN1fxGPxCDLHM9xs-1">
          <mxGeometry y="40" width="160" height="20" as="geometry" />
        </mxCell>
        <mxCell id="iW8amN1fxGPxCDLHM9xs-9" value="&amp;nbsp; buckets[2]" style="shape=partialRectangle;html=1;whiteSpace=wrap;connectable=0;strokeColor=inherit;overflow=hidden;fillColor=none;top=0;left=0;bottom=0;right=0;pointerEvents=1;fontSize=12;fontFamily=Times New Roman;align=left;" vertex="1" parent="iW8amN1fxGPxCDLHM9xs-8">
          <mxGeometry width="160" height="20" as="geometry">
            <mxRectangle width="160" height="20" as="alternateBounds" />
          </mxGeometry>
        </mxCell>
        <mxCell id="iW8amN1fxGPxCDLHM9xs-10" style="shape=tableRow;horizontal=0;startSize=0;swimlaneHead=0;swimlaneBody=0;strokeColor=inherit;top=0;left=0;bottom=0;right=0;collapsible=0;dropTarget=0;fillColor=none;points=[[0,0.5],[1,0.5]];portConstraint=eastwest;fontSize=12;fontFamily=Times New Roman;" vertex="1" parent="iW8amN1fxGPxCDLHM9xs-1">
          <mxGeometry y="60" width="160" height="20" as="geometry" />
        </mxCell>
        <mxCell id="iW8amN1fxGPxCDLHM9xs-11" value="&amp;nbsp; buckets[3]" style="shape=partialRectangle;html=1;whiteSpace=wrap;connectable=0;strokeColor=inherit;overflow=hidden;fillColor=none;top=0;left=0;bottom=0;right=0;pointerEvents=1;fontSize=12;fontFamily=Times New Roman;align=left;" vertex="1" parent="iW8amN1fxGPxCDLHM9xs-10">
          <mxGeometry width="160" height="20" as="geometry">
            <mxRectangle width="160" height="20" as="alternateBounds" />
          </mxGeometry>
        </mxCell>
        <mxCell id="iW8amN1fxGPxCDLHM9xs-12" style="shape=tableRow;horizontal=0;startSize=0;swimlaneHead=0;swimlaneBody=0;strokeColor=inherit;top=0;left=0;bottom=0;right=0;collapsible=0;dropTarget=0;fillColor=none;points=[[0,0.5],[1,0.5]];portConstraint=eastwest;fontSize=12;fontFamily=Times New Roman;" vertex="1" parent="iW8amN1fxGPxCDLHM9xs-1">
          <mxGeometry y="80" width="160" height="20" as="geometry" />
        </mxCell>
        <mxCell id="iW8amN1fxGPxCDLHM9xs-13" value="&amp;nbsp; ..." style="shape=partialRectangle;html=1;whiteSpace=wrap;connectable=0;strokeColor=inherit;overflow=hidden;fillColor=none;top=0;left=0;bottom=0;right=0;pointerEvents=1;fontSize=12;fontFamily=Times New Roman;align=left;" vertex="1" parent="iW8amN1fxGPxCDLHM9xs-12">
          <mxGeometry width="160" height="20" as="geometry">
            <mxRectangle width="160" height="20" as="alternateBounds" />
          </mxGeometry>
        </mxCell>
        <mxCell id="ETI4ltzs-F7j9KK3nNcA-1" value="" style="endArrow=block;html=1;rounded=0;curved=1;endFill=1;edgeStyle=orthogonalEdgeStyle;fillColor=#f8cecc;strokeColor=#b85450;fontFamily=Times New Roman;" edge="1" parent="1" source="b3T_J-S0rsTQpLNiJZ8Q-1" target="iW8amN1fxGPxCDLHM9xs-4">
          <mxGeometry width="50" height="50" relative="1" as="geometry">
            <mxPoint x="360" y="450" as="sourcePoint" />
            <mxPoint x="360" y="340" as="targetPoint" />
            <Array as="points">
              <mxPoint x="330" y="330" />
            </Array>
          </mxGeometry>
        </mxCell>
        <mxCell id="Q0L6gGed3V0yqLNb6-Nr-1" value="&lt;font&gt;: &lt;u&gt;k_str_intrusive_map_node&lt;/u&gt;&lt;/font&gt;" style="swimlane;fontStyle=0;childLayout=stackLayout;horizontal=1;startSize=20;fillColor=#FFFFFF;horizontalStack=0;resizeParent=1;resizeParentMax=0;resizeLast=0;collapsible=0;marginBottom=0;whiteSpace=wrap;html=1;labelBackgroundColor=default;fontFamily=Times New Roman;" vertex="1" parent="1">
          <mxGeometry x="120" y="480" width="200" height="100" as="geometry">
            <mxRectangle x="80" y="480" width="80" height="30" as="alternateBounds" />
          </mxGeometry>
        </mxCell>
        <mxCell id="Q0L6gGed3V0yqLNb6-Nr-2" value="" style="shape=table;html=1;whiteSpace=wrap;startSize=0;container=1;collapsible=0;childLayout=tableLayout;columnLines=0;rowLines=0;fontSize=16;strokeColor=default;align=left;fontFamily=Times New Roman;" vertex="1" parent="Q0L6gGed3V0yqLNb6-Nr-1">
          <mxGeometry y="20" width="200" height="80" as="geometry" />
        </mxCell>
        <mxCell id="Q0L6gGed3V0yqLNb6-Nr-3" value="" style="shape=tableRow;horizontal=0;startSize=0;swimlaneHead=0;swimlaneBody=0;top=0;left=0;bottom=0;right=0;collapsible=0;dropTarget=0;fillColor=none;points=[[0,0.5],[1,0.5]];portConstraint=eastwest;fontSize=16;strokeColor=inherit;fontFamily=Times New Roman;" vertex="1" parent="Q0L6gGed3V0yqLNb6-Nr-2">
          <mxGeometry width="200" height="20" as="geometry" />
        </mxCell>
        <mxCell id="Q0L6gGed3V0yqLNb6-Nr-4" value="- node_link" style="shape=partialRectangle;html=1;whiteSpace=wrap;connectable=0;fillColor=none;top=0;left=0;bottom=0;right=0;overflow=hidden;fontSize=12;strokeColor=inherit;align=left;fontFamily=Times New Roman;" vertex="1" parent="Q0L6gGed3V0yqLNb6-Nr-3">
          <mxGeometry width="60" height="20" as="geometry">
            <mxRectangle width="60" height="20" as="alternateBounds" />
          </mxGeometry>
        </mxCell>
        <mxCell id="Q0L6gGed3V0yqLNb6-Nr-5" value="&lt;span style=&quot;border-color: var(--border-color); text-align: center; background-color: rgb(255, 255, 255);&quot;&gt;: k_hash_list_node *&lt;/span&gt;" style="shape=partialRectangle;html=1;whiteSpace=wrap;connectable=0;fillColor=none;top=0;left=0;bottom=0;right=0;overflow=hidden;fontSize=12;strokeColor=inherit;align=left;fontFamily=Times New Roman;" vertex="1" parent="Q0L6gGed3V0yqLNb6-Nr-3">
          <mxGeometry x="60" width="120" height="20" as="geometry">
            <mxRectangle width="120" height="20" as="alternateBounds" />
          </mxGeometry>
        </mxCell>
        <mxCell id="Q0L6gGed3V0yqLNb6-Nr-6" value="" style="shape=partialRectangle;html=1;whiteSpace=wrap;connectable=0;fillColor=none;top=0;left=0;bottom=0;right=0;overflow=hidden;fontSize=12;strokeColor=inherit;fontFamily=Times New Roman;container=1;collapsible=0;" vertex="1" parent="Q0L6gGed3V0yqLNb6-Nr-3">
          <mxGeometry x="180" width="20" height="20" as="geometry">
            <mxRectangle width="20" height="20" as="alternateBounds" />
          </mxGeometry>
        </mxCell>
        <mxCell id="Q0L6gGed3V0yqLNb6-Nr-7" value="" style="shape=waypoint;sketch=0;fillStyle=solid;size=6;pointerEvents=1;points=[];fillColor=#d5e8d4;resizable=0;rotatable=0;perimeter=centerPerimeter;snapToPoint=1;strokeColor=#82b366;fontFamily=Times New Roman;" vertex="1" parent="Q0L6gGed3V0yqLNb6-Nr-6">
          <mxGeometry width="20" height="20" as="geometry" />
        </mxCell>
        <mxCell id="Q0L6gGed3V0yqLNb6-Nr-8" value="" style="shape=tableRow;horizontal=0;startSize=0;swimlaneHead=0;swimlaneBody=0;top=0;left=0;bottom=0;right=0;collapsible=0;dropTarget=0;fillColor=none;points=[[0,0.5],[1,0.5]];portConstraint=eastwest;fontSize=16;strokeColor=inherit;fontFamily=Times New Roman;" vertex="1" parent="Q0L6gGed3V0yqLNb6-Nr-2">
          <mxGeometry y="20" width="200" height="20" as="geometry" />
        </mxCell>
        <mxCell id="Q0L6gGed3V0yqLNb6-Nr-9" value="- key" style="shape=partialRectangle;html=1;whiteSpace=wrap;connectable=0;fillColor=none;top=0;left=0;bottom=0;right=0;overflow=hidden;fontSize=12;strokeColor=inherit;align=left;fontFamily=Times New Roman;" vertex="1" parent="Q0L6gGed3V0yqLNb6-Nr-8">
          <mxGeometry width="60" height="20" as="geometry">
            <mxRectangle width="60" height="20" as="alternateBounds" />
          </mxGeometry>
        </mxCell>
        <mxCell id="Q0L6gGed3V0yqLNb6-Nr-10" value="&lt;span style=&quot;border-color: var(--border-color); text-align: center; background-color: rgb(255, 255, 255);&quot;&gt;: char *&lt;/span&gt;" style="shape=partialRectangle;html=1;whiteSpace=wrap;connectable=0;fillColor=none;top=0;left=0;bottom=0;right=0;overflow=hidden;fontSize=12;strokeColor=inherit;align=left;fontFamily=Times New Roman;" vertex="1" parent="Q0L6gGed3V0yqLNb6-Nr-8">
          <mxGeometry x="60" width="120" height="20" as="geometry">
            <mxRectangle width="120" height="20" as="alternateBounds" />
          </mxGeometry>
        </mxCell>
        <mxCell id="Q0L6gGed3V0yqLNb6-Nr-11" value="" style="shape=partialRectangle;html=1;whiteSpace=wrap;connectable=0;fillColor=none;top=0;left=0;bottom=0;right=0;overflow=hidden;fontSize=12;strokeColor=inherit;fontFamily=Times New Roman;container=1;collapsible=0;" vertex="1" parent="Q0L6gGed3V0yqLNb6-Nr-8">
          <mxGeometry x="180" width="20" height="20" as="geometry">
            <mxRectangle width="20" height="20" as="alternateBounds" />
          </mxGeometry>
        </mxCell>
        <mxCell id="Q0L6gGed3V0yqLNb6-Nr-35" value="" style="shape=waypoint;sketch=0;fillStyle=solid;size=6;pointerEvents=1;points=[];fillColor=#dae8fc;resizable=0;rotatable=0;perimeter=centerPerimeter;snapToPoint=1;strokeColor=#6c8ebf;fontFamily=Times New Roman;" vertex="1" parent="Q0L6gGed3V0yqLNb6-Nr-11">
          <mxGeometry width="20" height="20" as="geometry" />
        </mxCell>
        <mxCell id="Q0L6gGed3V0yqLNb6-Nr-12" style="shape=tableRow;horizontal=0;startSize=0;swimlaneHead=0;swimlaneBody=0;top=0;left=0;bottom=0;right=0;collapsible=0;dropTarget=0;fillColor=none;points=[[0,0.5],[1,0.5]];portConstraint=eastwest;fontSize=16;strokeColor=inherit;fontFamily=Times New Roman;" vertex="1" parent="Q0L6gGed3V0yqLNb6-Nr-2">
          <mxGeometry y="40" width="200" height="20" as="geometry" />
        </mxCell>
        <mxCell id="Q0L6gGed3V0yqLNb6-Nr-13" value="- key_hash" style="shape=partialRectangle;html=1;whiteSpace=wrap;connectable=0;fillColor=none;top=0;left=0;bottom=0;right=0;overflow=hidden;fontSize=12;strokeColor=inherit;align=left;fontFamily=Times New Roman;" vertex="1" parent="Q0L6gGed3V0yqLNb6-Nr-12">
          <mxGeometry width="60" height="20" as="geometry">
            <mxRectangle width="60" height="20" as="alternateBounds" />
          </mxGeometry>
        </mxCell>
        <mxCell id="Q0L6gGed3V0yqLNb6-Nr-14" value=": size_t" style="shape=partialRectangle;html=1;whiteSpace=wrap;connectable=0;fillColor=none;top=0;left=0;bottom=0;right=0;overflow=hidden;fontSize=12;strokeColor=inherit;align=left;fontFamily=Times New Roman;" vertex="1" parent="Q0L6gGed3V0yqLNb6-Nr-12">
          <mxGeometry x="60" width="120" height="20" as="geometry">
            <mxRectangle width="120" height="20" as="alternateBounds" />
          </mxGeometry>
        </mxCell>
        <mxCell id="Q0L6gGed3V0yqLNb6-Nr-15" style="shape=partialRectangle;html=1;whiteSpace=wrap;connectable=0;fillColor=none;top=0;left=0;bottom=0;right=0;overflow=hidden;fontSize=12;strokeColor=inherit;fontFamily=Times New Roman;container=1;collapsible=0;" vertex="1" parent="Q0L6gGed3V0yqLNb6-Nr-12">
          <mxGeometry x="180" width="20" height="20" as="geometry">
            <mxRectangle width="20" height="20" as="alternateBounds" />
          </mxGeometry>
        </mxCell>
        <mxCell id="Q0L6gGed3V0yqLNb6-Nr-17" style="shape=tableRow;horizontal=0;startSize=0;swimlaneHead=0;swimlaneBody=0;top=0;left=0;bottom=0;right=0;collapsible=0;dropTarget=0;fillColor=none;points=[[0,0.5],[1,0.5]];portConstraint=eastwest;fontSize=16;strokeColor=inherit;fontFamily=Times New Roman;" vertex="1" parent="Q0L6gGed3V0yqLNb6-Nr-2">
          <mxGeometry y="60" width="200" height="20" as="geometry" />
        </mxCell>
        <mxCell id="Q0L6gGed3V0yqLNb6-Nr-18" value="- val" style="shape=partialRectangle;html=1;whiteSpace=wrap;connectable=0;fillColor=none;top=0;left=0;bottom=0;right=0;overflow=hidden;fontSize=12;strokeColor=inherit;align=left;fontFamily=Times New Roman;" vertex="1" parent="Q0L6gGed3V0yqLNb6-Nr-17">
          <mxGeometry width="60" height="20" as="geometry">
            <mxRectangle width="60" height="20" as="alternateBounds" />
          </mxGeometry>
        </mxCell>
        <mxCell id="Q0L6gGed3V0yqLNb6-Nr-19" value=": void *" style="shape=partialRectangle;html=1;whiteSpace=wrap;connectable=0;fillColor=none;top=0;left=0;bottom=0;right=0;overflow=hidden;fontSize=12;strokeColor=inherit;align=left;fontFamily=Times New Roman;" vertex="1" parent="Q0L6gGed3V0yqLNb6-Nr-17">
          <mxGeometry x="60" width="120" height="20" as="geometry">
            <mxRectangle width="120" height="20" as="alternateBounds" />
          </mxGeometry>
        </mxCell>
        <mxCell id="Q0L6gGed3V0yqLNb6-Nr-20" style="shape=partialRectangle;html=1;whiteSpace=wrap;connectable=0;fillColor=none;top=0;left=0;bottom=0;right=0;overflow=hidden;fontSize=12;strokeColor=inherit;fontFamily=Times New Roman;container=1;collapsible=0;" vertex="1" parent="Q0L6gGed3V0yqLNb6-Nr-17">
          <mxGeometry x="180" width="20" height="20" as="geometry">
            <mxRectangle width="20" height="20" as="alternateBounds" />
          </mxGeometry>
        </mxCell>
        <mxCell id="Q0L6gGed3V0yqLNb6-Nr-37" value="" style="shape=waypoint;sketch=0;fillStyle=solid;size=6;pointerEvents=1;points=[];fillColor=#dae8fc;resizable=0;rotatable=0;perimeter=centerPerimeter;snapToPoint=1;strokeColor=#6c8ebf;fontFamily=Times New Roman;" vertex="1" parent="Q0L6gGed3V0yqLNb6-Nr-20">
          <mxGeometry width="20" height="20" as="geometry" />
        </mxCell>
        <mxCell id="APC8um4-cMoPPdByTnRR-1" value="" style="endArrow=none;html=1;rounded=0;curved=1;endFill=0;edgeStyle=orthogonalEdgeStyle;fillColor=#d5e8d4;strokeColor=#82b366;fontFamily=Times New Roman;" edge="1" parent="1" source="Q0L6gGed3V0yqLNb6-Nr-7" target="iW8amN1fxGPxCDLHM9xs-5">
          <mxGeometry width="50" height="50" relative="1" as="geometry">
            <mxPoint x="320" y="580" as="sourcePoint" />
            <mxPoint x="470" y="570" as="targetPoint" />
            <Array as="points">
              <mxPoint x="310" y="430" />
              <mxPoint x="510" y="430" />
            </Array>
          </mxGeometry>
        </mxCell>
        <mxCell id="Q0L6gGed3V0yqLNb6-Nr-21" value="" style="shape=table;startSize=0;container=1;collapsible=0;childLayout=tableLayout;fontSize=12;fontFamily=Times New Roman;" vertex="1" parent="1">
          <mxGeometry x="360" y="510" width="160" height="70" as="geometry" />
        </mxCell>
        <mxCell id="Q0L6gGed3V0yqLNb6-Nr-26" value="" style="shape=tableRow;horizontal=0;startSize=0;swimlaneHead=0;swimlaneBody=0;strokeColor=inherit;top=0;left=0;bottom=0;right=0;collapsible=0;dropTarget=0;fillColor=none;points=[[0,0.5],[1,0.5]];portConstraint=eastwest;fontSize=12;fontFamily=Times New Roman;" vertex="1" parent="Q0L6gGed3V0yqLNb6-Nr-21">
          <mxGeometry width="160" height="23" as="geometry" />
        </mxCell>
        <mxCell id="Q0L6gGed3V0yqLNb6-Nr-27" value="内存段的头部为 map 节点" style="shape=partialRectangle;html=1;whiteSpace=wrap;connectable=0;strokeColor=inherit;overflow=hidden;fillColor=none;top=0;left=0;bottom=0;right=0;pointerEvents=1;fontSize=12;fontFamily=Times New Roman;align=left;" vertex="1" parent="Q0L6gGed3V0yqLNb6-Nr-26">
          <mxGeometry width="160" height="23" as="geometry">
            <mxRectangle width="160" height="23" as="alternateBounds" />
          </mxGeometry>
        </mxCell>
        <mxCell id="Q0L6gGed3V0yqLNb6-Nr-28" value="" style="shape=tableRow;horizontal=0;startSize=0;swimlaneHead=0;swimlaneBody=0;strokeColor=inherit;top=0;left=0;bottom=0;right=0;collapsible=0;dropTarget=0;fillColor=none;points=[[0,0.5],[1,0.5]];portConstraint=eastwest;fontSize=12;fontFamily=Times New Roman;" vertex="1" parent="Q0L6gGed3V0yqLNb6-Nr-21">
          <mxGeometry y="23" width="160" height="24" as="geometry" />
        </mxCell>
        <mxCell id="Q0L6gGed3V0yqLNb6-Nr-29" value="存储 key 字符串" style="shape=partialRectangle;html=1;whiteSpace=wrap;connectable=0;strokeColor=inherit;overflow=hidden;fillColor=none;top=0;left=0;bottom=0;right=0;pointerEvents=1;fontSize=12;fontFamily=Times New Roman;align=left;" vertex="1" parent="Q0L6gGed3V0yqLNb6-Nr-28">
          <mxGeometry width="160" height="24" as="geometry">
            <mxRectangle width="160" height="24" as="alternateBounds" />
          </mxGeometry>
        </mxCell>
        <mxCell id="Q0L6gGed3V0yqLNb6-Nr-30" style="shape=tableRow;horizontal=0;startSize=0;swimlaneHead=0;swimlaneBody=0;strokeColor=inherit;top=0;left=0;bottom=0;right=0;collapsible=0;dropTarget=0;fillColor=none;points=[[0,0.5],[1,0.5]];portConstraint=eastwest;fontSize=12;fontFamily=Times New Roman;" vertex="1" parent="Q0L6gGed3V0yqLNb6-Nr-21">
          <mxGeometry y="47" width="160" height="23" as="geometry" />
        </mxCell>
        <mxCell id="Q0L6gGed3V0yqLNb6-Nr-31" value="存储 value" style="shape=partialRectangle;html=1;whiteSpace=wrap;connectable=0;strokeColor=inherit;overflow=hidden;fillColor=none;top=0;left=0;bottom=0;right=0;pointerEvents=1;fontSize=12;fontFamily=Times New Roman;align=left;" vertex="1" parent="Q0L6gGed3V0yqLNb6-Nr-30">
          <mxGeometry width="160" height="23" as="geometry">
            <mxRectangle width="160" height="23" as="alternateBounds" />
          </mxGeometry>
        </mxCell>
        <mxCell id="APC8um4-cMoPPdByTnRR-3" value="" style="endArrow=block;html=1;rounded=0;curved=1;endFill=1;edgeStyle=orthogonalEdgeStyle;fillColor=#dae8fc;strokeColor=#6c8ebf;fontFamily=Times New Roman;" edge="1" parent="1" source="Q0L6gGed3V0yqLNb6-Nr-35" target="Q0L6gGed3V0yqLNb6-Nr-28">
          <mxGeometry width="50" height="50" relative="1" as="geometry">
            <mxPoint x="340" y="420" as="sourcePoint" />
            <mxPoint x="370" y="340" as="targetPoint" />
            <Array as="points">
              <mxPoint x="310" y="545" />
            </Array>
          </mxGeometry>
        </mxCell>
        <mxCell id="APC8um4-cMoPPdByTnRR-4" value="" style="endArrow=block;html=1;rounded=0;curved=1;endFill=1;edgeStyle=orthogonalEdgeStyle;fillColor=#dae8fc;strokeColor=#6c8ebf;fontFamily=Times New Roman;" edge="1" parent="1" source="Q0L6gGed3V0yqLNb6-Nr-37" target="Q0L6gGed3V0yqLNb6-Nr-30">
          <mxGeometry width="50" height="50" relative="1" as="geometry">
            <mxPoint x="320" y="540" as="sourcePoint" />
            <mxPoint x="370" y="540" as="targetPoint" />
            <Array as="points">
              <mxPoint x="310" y="569" />
            </Array>
          </mxGeometry>
        </mxCell>
        <mxCell id="APC8um4-cMoPPdByTnRR-7" value="" style="edgeStyle=orthogonalEdgeStyle;curved=1;rounded=0;orthogonalLoop=1;jettySize=auto;html=1;endArrow=none;endFill=0;fillColor=#fff2cc;strokeColor=#d6b656;exitX=0.1;exitY=0.5;exitDx=0;exitDy=0;exitPerimeter=0;entryX=0.1;entryY=0.5;entryDx=0;entryDy=0;entryPerimeter=0;" edge="1" parent="1" source="7TTyNRmo4qo8Hqz-PIZw-2" target="APC8um4-cMoPPdByTnRR-6">
          <mxGeometry relative="1" as="geometry">
            <mxPoint x="351" y="520.0000000000001" as="sourcePoint" />
            <mxPoint x="330" y="540" as="targetPoint" />
            <Array as="points">
              <mxPoint x="340" y="520" />
              <mxPoint x="340" y="540" />
            </Array>
          </mxGeometry>
        </mxCell>
        <mxCell id="APC8um4-cMoPPdByTnRR-6" value="" style="shape=curlyBracket;whiteSpace=wrap;html=1;rounded=1;flipH=1;labelPosition=right;verticalLabelPosition=middle;align=left;verticalAlign=middle;fillColor=#fff2cc;strokeColor=#d6b656;" vertex="1" parent="1">
          <mxGeometry x="320" y="500" width="10" height="80" as="geometry" />
        </mxCell>
        <mxCell id="7TTyNRmo4qo8Hqz-PIZw-2" value="" style="shape=curlyBracket;whiteSpace=wrap;html=1;rounded=1;labelPosition=left;verticalLabelPosition=middle;align=right;verticalAlign=middle;fillColor=#fff2cc;strokeColor=#d6b656;" vertex="1" parent="1">
          <mxGeometry x="350" y="510" width="10" height="20" as="geometry" />
        </mxCell>
      </root>
    </mxGraphModel>
  </diagram>
  <diagram id="nPNIx9Cf0YRCVbuKGgPU" name="k_mem_pool">
    <mxGraphModel dx="478" dy="281" grid="1" gridSize="10" guides="1" tooltips="1" connect="1" arrows="1" fold="1" page="1" pageScale="1" pageWidth="827" pageHeight="1169" math="0" shadow="0">
      <root>
        <mxCell id="0" />
        <mxCell id="1" parent="0" />
        <mxCell id="b1HE1u7_gCCXnFTm9jQ6-1" value="&lt;font face=&quot;Times New Roman&quot;&gt;: &lt;u&gt;k_mem_pool&lt;/u&gt;&lt;/font&gt;" style="swimlane;fontStyle=0;childLayout=stackLayout;horizontal=1;startSize=20;fillColor=#FFFFFF;horizontalStack=0;resizeParent=1;resizeParentMax=0;resizeLast=0;collapsible=0;marginBottom=0;whiteSpace=wrap;html=1;labelBackgroundColor=default;" vertex="1" parent="1">
          <mxGeometry x="80" y="460" width="220" height="200" as="geometry">
            <mxRectangle x="80" y="480" width="80" height="30" as="alternateBounds" />
          </mxGeometry>
        </mxCell>
        <mxCell id="b1HE1u7_gCCXnFTm9jQ6-2" value="" style="shape=table;html=1;whiteSpace=wrap;startSize=0;container=1;collapsible=0;childLayout=tableLayout;columnLines=0;rowLines=0;fontSize=16;strokeColor=default;align=left;" vertex="1" parent="b1HE1u7_gCCXnFTm9jQ6-1">
          <mxGeometry y="20" width="220" height="180" as="geometry" />
        </mxCell>
        <mxCell id="b1HE1u7_gCCXnFTm9jQ6-3" value="" style="shape=tableRow;horizontal=0;startSize=0;swimlaneHead=0;swimlaneBody=0;top=0;left=0;bottom=0;right=0;collapsible=0;dropTarget=0;fillColor=none;points=[[0,0.5],[1,0.5]];portConstraint=eastwest;fontSize=16;strokeColor=inherit;" vertex="1" parent="b1HE1u7_gCCXnFTm9jQ6-2">
          <mxGeometry width="220" height="20" as="geometry" />
        </mxCell>
        <mxCell id="b1HE1u7_gCCXnFTm9jQ6-4" value="- fn_malloc" style="shape=partialRectangle;html=1;whiteSpace=wrap;connectable=0;fillColor=none;top=0;left=0;bottom=0;right=0;overflow=hidden;fontSize=12;strokeColor=inherit;align=left;fontFamily=Times New Roman;" vertex="1" parent="b1HE1u7_gCCXnFTm9jQ6-3">
          <mxGeometry width="100" height="20" as="geometry">
            <mxRectangle width="100" height="20" as="alternateBounds" />
          </mxGeometry>
        </mxCell>
        <mxCell id="b1HE1u7_gCCXnFTm9jQ6-5" value=": void *(*)(size_t )" style="shape=partialRectangle;html=1;whiteSpace=wrap;connectable=0;fillColor=none;top=0;left=0;bottom=0;right=0;overflow=hidden;fontSize=12;strokeColor=inherit;align=left;fontFamily=Times New Roman;" vertex="1" parent="b1HE1u7_gCCXnFTm9jQ6-3">
          <mxGeometry x="100" width="100" height="20" as="geometry">
            <mxRectangle width="100" height="20" as="alternateBounds" />
          </mxGeometry>
        </mxCell>
        <mxCell id="b1HE1u7_gCCXnFTm9jQ6-6" value="" style="shape=partialRectangle;html=1;whiteSpace=wrap;connectable=0;fillColor=none;top=0;left=0;bottom=0;right=0;overflow=hidden;fontSize=12;strokeColor=inherit;fontFamily=Times New Roman;" vertex="1" parent="b1HE1u7_gCCXnFTm9jQ6-3">
          <mxGeometry x="200" width="20" height="20" as="geometry">
            <mxRectangle width="20" height="20" as="alternateBounds" />
          </mxGeometry>
        </mxCell>
        <mxCell id="b1HE1u7_gCCXnFTm9jQ6-7" value="" style="shape=tableRow;horizontal=0;startSize=0;swimlaneHead=0;swimlaneBody=0;top=0;left=0;bottom=0;right=0;collapsible=0;dropTarget=0;fillColor=none;points=[[0,0.5],[1,0.5]];portConstraint=eastwest;fontSize=16;strokeColor=inherit;" vertex="1" parent="b1HE1u7_gCCXnFTm9jQ6-2">
          <mxGeometry y="20" width="220" height="20" as="geometry" />
        </mxCell>
        <mxCell id="b1HE1u7_gCCXnFTm9jQ6-8" value="- fn_free" style="shape=partialRectangle;html=1;whiteSpace=wrap;connectable=0;fillColor=none;top=0;left=0;bottom=0;right=0;overflow=hidden;fontSize=12;strokeColor=inherit;align=left;fontFamily=Times New Roman;" vertex="1" parent="b1HE1u7_gCCXnFTm9jQ6-7">
          <mxGeometry width="100" height="20" as="geometry">
            <mxRectangle width="100" height="20" as="alternateBounds" />
          </mxGeometry>
        </mxCell>
        <mxCell id="b1HE1u7_gCCXnFTm9jQ6-9" value=": void (*)(void *)" style="shape=partialRectangle;html=1;whiteSpace=wrap;connectable=0;fillColor=none;top=0;left=0;bottom=0;right=0;overflow=hidden;fontSize=12;strokeColor=inherit;align=left;fontFamily=Times New Roman;" vertex="1" parent="b1HE1u7_gCCXnFTm9jQ6-7">
          <mxGeometry x="100" width="100" height="20" as="geometry">
            <mxRectangle width="100" height="20" as="alternateBounds" />
          </mxGeometry>
        </mxCell>
        <mxCell id="b1HE1u7_gCCXnFTm9jQ6-10" value="" style="shape=partialRectangle;html=1;whiteSpace=wrap;connectable=0;fillColor=none;top=0;left=0;bottom=0;right=0;overflow=hidden;fontSize=12;strokeColor=inherit;fontFamily=Times New Roman;" vertex="1" parent="b1HE1u7_gCCXnFTm9jQ6-7">
          <mxGeometry x="200" width="20" height="20" as="geometry">
            <mxRectangle width="20" height="20" as="alternateBounds" />
          </mxGeometry>
        </mxCell>
        <mxCell id="b1HE1u7_gCCXnFTm9jQ6-11" value="" style="shape=tableRow;horizontal=0;startSize=0;swimlaneHead=0;swimlaneBody=0;top=0;left=0;bottom=0;right=0;collapsible=0;dropTarget=0;fillColor=none;points=[[0,0.5],[1,0.5]];portConstraint=eastwest;fontSize=16;strokeColor=inherit;" vertex="1" parent="b1HE1u7_gCCXnFTm9jQ6-2">
          <mxGeometry y="40" width="220" height="20" as="geometry" />
        </mxCell>
        <mxCell id="b1HE1u7_gCCXnFTm9jQ6-12" value="- chunk_capacity" style="shape=partialRectangle;html=1;whiteSpace=wrap;connectable=0;fillColor=none;top=0;left=0;bottom=0;right=0;overflow=hidden;fontSize=12;strokeColor=inherit;align=left;fontFamily=Times New Roman;" vertex="1" parent="b1HE1u7_gCCXnFTm9jQ6-11">
          <mxGeometry width="100" height="20" as="geometry">
            <mxRectangle width="100" height="20" as="alternateBounds" />
          </mxGeometry>
        </mxCell>
        <mxCell id="b1HE1u7_gCCXnFTm9jQ6-13" value=": size_t" style="shape=partialRectangle;html=1;whiteSpace=wrap;connectable=0;fillColor=none;top=0;left=0;bottom=0;right=0;overflow=hidden;fontSize=12;strokeColor=inherit;align=left;fontFamily=Times New Roman;" vertex="1" parent="b1HE1u7_gCCXnFTm9jQ6-11">
          <mxGeometry x="100" width="100" height="20" as="geometry">
            <mxRectangle width="100" height="20" as="alternateBounds" />
          </mxGeometry>
        </mxCell>
        <mxCell id="b1HE1u7_gCCXnFTm9jQ6-14" value="" style="shape=partialRectangle;html=1;whiteSpace=wrap;connectable=0;fillColor=none;top=0;left=0;bottom=0;right=0;overflow=hidden;fontSize=12;strokeColor=inherit;fontFamily=Times New Roman;" vertex="1" parent="b1HE1u7_gCCXnFTm9jQ6-11">
          <mxGeometry x="200" width="20" height="20" as="geometry">
            <mxRectangle width="20" height="20" as="alternateBounds" />
          </mxGeometry>
        </mxCell>
        <mxCell id="b1HE1u7_gCCXnFTm9jQ6-15" style="shape=tableRow;horizontal=0;startSize=0;swimlaneHead=0;swimlaneBody=0;top=0;left=0;bottom=0;right=0;collapsible=0;dropTarget=0;fillColor=none;points=[[0,0.5],[1,0.5]];portConstraint=eastwest;fontSize=16;strokeColor=inherit;" vertex="1" parent="b1HE1u7_gCCXnFTm9jQ6-2">
          <mxGeometry y="60" width="220" height="20" as="geometry" />
        </mxCell>
        <mxCell id="b1HE1u7_gCCXnFTm9jQ6-16" value="- chunk_used" style="shape=partialRectangle;html=1;whiteSpace=wrap;connectable=0;fillColor=none;top=0;left=0;bottom=0;right=0;overflow=hidden;fontSize=12;strokeColor=inherit;align=left;fontFamily=Times New Roman;" vertex="1" parent="b1HE1u7_gCCXnFTm9jQ6-15">
          <mxGeometry width="100" height="20" as="geometry">
            <mxRectangle width="100" height="20" as="alternateBounds" />
          </mxGeometry>
        </mxCell>
        <mxCell id="b1HE1u7_gCCXnFTm9jQ6-17" value=": size_t" style="shape=partialRectangle;html=1;whiteSpace=wrap;connectable=0;fillColor=none;top=0;left=0;bottom=0;right=0;overflow=hidden;fontSize=12;strokeColor=inherit;align=left;fontFamily=Times New Roman;" vertex="1" parent="b1HE1u7_gCCXnFTm9jQ6-15">
          <mxGeometry x="100" width="100" height="20" as="geometry">
            <mxRectangle width="100" height="20" as="alternateBounds" />
          </mxGeometry>
        </mxCell>
        <mxCell id="b1HE1u7_gCCXnFTm9jQ6-18" style="shape=partialRectangle;html=1;whiteSpace=wrap;connectable=0;fillColor=none;top=0;left=0;bottom=0;right=0;overflow=hidden;fontSize=12;strokeColor=inherit;fontFamily=Times New Roman;container=1;collapsible=0;" vertex="1" parent="b1HE1u7_gCCXnFTm9jQ6-15">
          <mxGeometry x="200" width="20" height="20" as="geometry">
            <mxRectangle width="20" height="20" as="alternateBounds" />
          </mxGeometry>
        </mxCell>
        <mxCell id="b1HE1u7_gCCXnFTm9jQ6-20" style="shape=tableRow;horizontal=0;startSize=0;swimlaneHead=0;swimlaneBody=0;top=0;left=0;bottom=0;right=0;collapsible=0;dropTarget=0;fillColor=none;points=[[0,0.5],[1,0.5]];portConstraint=eastwest;fontSize=16;strokeColor=inherit;" vertex="1" parent="b1HE1u7_gCCXnFTm9jQ6-2">
          <mxGeometry y="80" width="220" height="20" as="geometry" />
        </mxCell>
        <mxCell id="b1HE1u7_gCCXnFTm9jQ6-21" value="- chunk" style="shape=partialRectangle;html=1;whiteSpace=wrap;connectable=0;fillColor=none;top=0;left=0;bottom=0;right=0;overflow=hidden;fontSize=12;strokeColor=inherit;align=left;fontFamily=Times New Roman;" vertex="1" parent="b1HE1u7_gCCXnFTm9jQ6-20">
          <mxGeometry width="100" height="20" as="geometry">
            <mxRectangle width="100" height="20" as="alternateBounds" />
          </mxGeometry>
        </mxCell>
        <mxCell id="b1HE1u7_gCCXnFTm9jQ6-22" value=": void *" style="shape=partialRectangle;html=1;whiteSpace=wrap;connectable=0;fillColor=none;top=0;left=0;bottom=0;right=0;overflow=hidden;fontSize=12;strokeColor=inherit;align=left;fontFamily=Times New Roman;" vertex="1" parent="b1HE1u7_gCCXnFTm9jQ6-20">
          <mxGeometry x="100" width="100" height="20" as="geometry">
            <mxRectangle width="100" height="20" as="alternateBounds" />
          </mxGeometry>
        </mxCell>
        <mxCell id="b1HE1u7_gCCXnFTm9jQ6-23" style="shape=partialRectangle;html=1;whiteSpace=wrap;connectable=0;fillColor=none;top=0;left=0;bottom=0;right=0;overflow=hidden;fontSize=12;strokeColor=inherit;fontFamily=Times New Roman;container=1;collapsible=0;" vertex="1" parent="b1HE1u7_gCCXnFTm9jQ6-20">
          <mxGeometry x="200" width="20" height="20" as="geometry">
            <mxRectangle width="20" height="20" as="alternateBounds" />
          </mxGeometry>
        </mxCell>
        <mxCell id="b1HE1u7_gCCXnFTm9jQ6-19" value="" style="shape=waypoint;sketch=0;fillStyle=solid;size=6;pointerEvents=1;points=[];fillColor=#fff2cc;resizable=0;rotatable=0;perimeter=centerPerimeter;snapToPoint=1;strokeColor=#d6b656;" vertex="1" parent="b1HE1u7_gCCXnFTm9jQ6-23">
          <mxGeometry width="20" height="20" as="geometry" />
        </mxCell>
        <mxCell id="b1HE1u7_gCCXnFTm9jQ6-24" style="shape=tableRow;horizontal=0;startSize=0;swimlaneHead=0;swimlaneBody=0;top=0;left=0;bottom=0;right=0;collapsible=0;dropTarget=0;fillColor=none;points=[[0,0.5],[1,0.5]];portConstraint=eastwest;fontSize=16;strokeColor=inherit;" vertex="1" parent="b1HE1u7_gCCXnFTm9jQ6-2">
          <mxGeometry y="100" width="220" height="20" as="geometry" />
        </mxCell>
        <mxCell id="b1HE1u7_gCCXnFTm9jQ6-25" value="- alloc_size_align" style="shape=partialRectangle;html=1;whiteSpace=wrap;connectable=0;fillColor=none;top=0;left=0;bottom=0;right=0;overflow=hidden;fontSize=12;strokeColor=inherit;align=left;fontFamily=Times New Roman;" vertex="1" parent="b1HE1u7_gCCXnFTm9jQ6-24">
          <mxGeometry width="100" height="20" as="geometry">
            <mxRectangle width="100" height="20" as="alternateBounds" />
          </mxGeometry>
        </mxCell>
        <mxCell id="b1HE1u7_gCCXnFTm9jQ6-26" value=": size_t" style="shape=partialRectangle;html=1;whiteSpace=wrap;connectable=0;fillColor=none;top=0;left=0;bottom=0;right=0;overflow=hidden;fontSize=12;strokeColor=inherit;align=left;fontFamily=Times New Roman;" vertex="1" parent="b1HE1u7_gCCXnFTm9jQ6-24">
          <mxGeometry x="100" width="100" height="20" as="geometry">
            <mxRectangle width="100" height="20" as="alternateBounds" />
          </mxGeometry>
        </mxCell>
        <mxCell id="b1HE1u7_gCCXnFTm9jQ6-27" style="shape=partialRectangle;html=1;whiteSpace=wrap;connectable=0;fillColor=none;top=0;left=0;bottom=0;right=0;overflow=hidden;fontSize=12;strokeColor=inherit;fontFamily=Times New Roman;" vertex="1" parent="b1HE1u7_gCCXnFTm9jQ6-24">
          <mxGeometry x="200" width="20" height="20" as="geometry">
            <mxRectangle width="20" height="20" as="alternateBounds" />
          </mxGeometry>
        </mxCell>
        <mxCell id="b1HE1u7_gCCXnFTm9jQ6-32" style="shape=tableRow;horizontal=0;startSize=0;swimlaneHead=0;swimlaneBody=0;top=0;left=0;bottom=0;right=0;collapsible=0;dropTarget=0;fillColor=none;points=[[0,0.5],[1,0.5]];portConstraint=eastwest;fontSize=16;strokeColor=inherit;" vertex="1" parent="b1HE1u7_gCCXnFTm9jQ6-2">
          <mxGeometry y="120" width="220" height="20" as="geometry" />
        </mxCell>
        <mxCell id="b1HE1u7_gCCXnFTm9jQ6-33" value="- block_size_max" style="shape=partialRectangle;html=1;whiteSpace=wrap;connectable=0;fillColor=none;top=0;left=0;bottom=0;right=0;overflow=hidden;fontSize=12;strokeColor=inherit;align=left;fontFamily=Times New Roman;" vertex="1" parent="b1HE1u7_gCCXnFTm9jQ6-32">
          <mxGeometry width="100" height="20" as="geometry">
            <mxRectangle width="100" height="20" as="alternateBounds" />
          </mxGeometry>
        </mxCell>
        <mxCell id="b1HE1u7_gCCXnFTm9jQ6-34" value=": size_t" style="shape=partialRectangle;html=1;whiteSpace=wrap;connectable=0;fillColor=none;top=0;left=0;bottom=0;right=0;overflow=hidden;fontSize=12;strokeColor=inherit;align=left;fontFamily=Times New Roman;" vertex="1" parent="b1HE1u7_gCCXnFTm9jQ6-32">
          <mxGeometry x="100" width="100" height="20" as="geometry">
            <mxRectangle width="100" height="20" as="alternateBounds" />
          </mxGeometry>
        </mxCell>
        <mxCell id="b1HE1u7_gCCXnFTm9jQ6-35" style="shape=partialRectangle;html=1;whiteSpace=wrap;connectable=0;fillColor=none;top=0;left=0;bottom=0;right=0;overflow=hidden;fontSize=12;strokeColor=inherit;fontFamily=Times New Roman;" vertex="1" parent="b1HE1u7_gCCXnFTm9jQ6-32">
          <mxGeometry x="200" width="20" height="20" as="geometry">
            <mxRectangle width="20" height="20" as="alternateBounds" />
          </mxGeometry>
        </mxCell>
        <mxCell id="b1HE1u7_gCCXnFTm9jQ6-37" style="shape=tableRow;horizontal=0;startSize=0;swimlaneHead=0;swimlaneBody=0;top=0;left=0;bottom=0;right=0;collapsible=0;dropTarget=0;fillColor=none;points=[[0,0.5],[1,0.5]];portConstraint=eastwest;fontSize=16;strokeColor=inherit;" vertex="1" parent="b1HE1u7_gCCXnFTm9jQ6-2">
          <mxGeometry y="140" width="220" height="20" as="geometry" />
        </mxCell>
        <mxCell id="b1HE1u7_gCCXnFTm9jQ6-38" value="- free_lists" style="shape=partialRectangle;html=1;whiteSpace=wrap;connectable=0;fillColor=none;top=0;left=0;bottom=0;right=0;overflow=hidden;fontSize=12;strokeColor=inherit;align=left;fontFamily=Times New Roman;" vertex="1" parent="b1HE1u7_gCCXnFTm9jQ6-37">
          <mxGeometry width="100" height="20" as="geometry">
            <mxRectangle width="100" height="20" as="alternateBounds" />
          </mxGeometry>
        </mxCell>
        <mxCell id="b1HE1u7_gCCXnFTm9jQ6-39" value=": void *" style="shape=partialRectangle;html=1;whiteSpace=wrap;connectable=0;fillColor=none;top=0;left=0;bottom=0;right=0;overflow=hidden;fontSize=12;strokeColor=inherit;align=left;fontFamily=Times New Roman;" vertex="1" parent="b1HE1u7_gCCXnFTm9jQ6-37">
          <mxGeometry x="100" width="100" height="20" as="geometry">
            <mxRectangle width="100" height="20" as="alternateBounds" />
          </mxGeometry>
        </mxCell>
        <mxCell id="b1HE1u7_gCCXnFTm9jQ6-40" style="shape=partialRectangle;html=1;whiteSpace=wrap;connectable=0;fillColor=none;top=0;left=0;bottom=0;right=0;overflow=hidden;fontSize=12;strokeColor=inherit;fontFamily=Times New Roman;container=1;collapsible=0;" vertex="1" parent="b1HE1u7_gCCXnFTm9jQ6-37">
          <mxGeometry x="200" width="20" height="20" as="geometry">
            <mxRectangle width="20" height="20" as="alternateBounds" />
          </mxGeometry>
        </mxCell>
        <mxCell id="b1HE1u7_gCCXnFTm9jQ6-46" value="" style="shape=waypoint;sketch=0;fillStyle=solid;size=6;pointerEvents=1;points=[];fillColor=#e1d5e7;resizable=0;rotatable=0;perimeter=centerPerimeter;snapToPoint=1;strokeColor=#9673a6;" vertex="1" parent="b1HE1u7_gCCXnFTm9jQ6-40">
          <mxGeometry width="20" height="20" as="geometry" />
        </mxCell>
        <mxCell id="b1HE1u7_gCCXnFTm9jQ6-41" style="shape=tableRow;horizontal=0;startSize=0;swimlaneHead=0;swimlaneBody=0;top=0;left=0;bottom=0;right=0;collapsible=0;dropTarget=0;fillColor=none;points=[[0,0.5],[1,0.5]];portConstraint=eastwest;fontSize=16;strokeColor=inherit;" vertex="1" parent="b1HE1u7_gCCXnFTm9jQ6-2">
          <mxGeometry y="160" width="220" height="20" as="geometry" />
        </mxCell>
        <mxCell id="b1HE1u7_gCCXnFTm9jQ6-42" value="- heap_block_list" style="shape=partialRectangle;html=1;whiteSpace=wrap;connectable=0;fillColor=none;top=0;left=0;bottom=0;right=0;overflow=hidden;fontSize=12;strokeColor=inherit;align=left;fontFamily=Times New Roman;" vertex="1" parent="b1HE1u7_gCCXnFTm9jQ6-41">
          <mxGeometry width="100" height="20" as="geometry">
            <mxRectangle width="100" height="20" as="alternateBounds" />
          </mxGeometry>
        </mxCell>
        <mxCell id="b1HE1u7_gCCXnFTm9jQ6-43" value=": void *" style="shape=partialRectangle;html=1;whiteSpace=wrap;connectable=0;fillColor=none;top=0;left=0;bottom=0;right=0;overflow=hidden;fontSize=12;strokeColor=inherit;align=left;fontFamily=Times New Roman;" vertex="1" parent="b1HE1u7_gCCXnFTm9jQ6-41">
          <mxGeometry x="100" width="100" height="20" as="geometry">
            <mxRectangle width="100" height="20" as="alternateBounds" />
          </mxGeometry>
        </mxCell>
        <mxCell id="b1HE1u7_gCCXnFTm9jQ6-44" style="shape=partialRectangle;html=1;whiteSpace=wrap;connectable=0;fillColor=none;top=0;left=0;bottom=0;right=0;overflow=hidden;fontSize=12;strokeColor=inherit;fontFamily=Times New Roman;container=1;collapsible=0;" vertex="1" parent="b1HE1u7_gCCXnFTm9jQ6-41">
          <mxGeometry x="200" width="20" height="20" as="geometry">
            <mxRectangle width="20" height="20" as="alternateBounds" />
          </mxGeometry>
        </mxCell>
        <mxCell id="b1HE1u7_gCCXnFTm9jQ6-48" value="" style="shape=waypoint;sketch=0;fillStyle=solid;size=6;pointerEvents=1;points=[];fillColor=#dae8fc;resizable=0;rotatable=0;perimeter=centerPerimeter;snapToPoint=1;strokeColor=#6c8ebf;" vertex="1" parent="b1HE1u7_gCCXnFTm9jQ6-44">
          <mxGeometry width="20" height="20" as="geometry" />
        </mxCell>
        <mxCell id="Qitno2q80DYZ7B1CduvV-11" value="" style="rounded=0;whiteSpace=wrap;html=1;container=1;collapsible=0;" vertex="1" parent="1">
          <mxGeometry x="520" y="620" width="80" height="20" as="geometry" />
        </mxCell>
        <mxCell id="Qitno2q80DYZ7B1CduvV-12" value="&lt;font face=&quot;Times New Roman&quot;&gt;block_head&lt;/font&gt;" style="text;html=1;strokeColor=none;fillColor=none;align=left;verticalAlign=middle;whiteSpace=wrap;rounded=0;container=0;" vertex="1" parent="Qitno2q80DYZ7B1CduvV-11">
          <mxGeometry width="40" height="20" as="geometry" />
        </mxCell>
        <mxCell id="Qitno2q80DYZ7B1CduvV-106" value="" style="shape=waypoint;sketch=0;fillStyle=solid;size=6;pointerEvents=1;points=[];fillColor=#d5e8d4;resizable=0;rotatable=0;perimeter=centerPerimeter;snapToPoint=1;strokeColor=#82b366;fontFamily=Times New Roman;container=0;" vertex="1" parent="Qitno2q80DYZ7B1CduvV-11">
          <mxGeometry x="60" width="20" height="20" as="geometry" />
        </mxCell>
        <mxCell id="Qitno2q80DYZ7B1CduvV-92" value="" style="rounded=0;whiteSpace=wrap;html=1;container=1;collapsible=0;" vertex="1" parent="1">
          <mxGeometry x="520" y="520" width="80" height="20" as="geometry" />
        </mxCell>
        <mxCell id="Qitno2q80DYZ7B1CduvV-93" value="&lt;font face=&quot;Times New Roman&quot;&gt;block_head&lt;/font&gt;" style="text;html=1;strokeColor=none;fillColor=none;align=left;verticalAlign=middle;whiteSpace=wrap;rounded=0;container=0;" vertex="1" parent="Qitno2q80DYZ7B1CduvV-92">
          <mxGeometry width="40" height="20" as="geometry" />
        </mxCell>
        <mxCell id="Qitno2q80DYZ7B1CduvV-109" value="" style="shape=waypoint;sketch=0;fillStyle=solid;size=6;pointerEvents=1;points=[];fillColor=#f8cecc;resizable=0;rotatable=0;perimeter=centerPerimeter;snapToPoint=1;strokeColor=#b85450;fontFamily=Times New Roman;" vertex="1" parent="Qitno2q80DYZ7B1CduvV-92">
          <mxGeometry x="60" width="20" height="20" as="geometry" />
        </mxCell>
        <mxCell id="Qitno2q80DYZ7B1CduvV-98" value="" style="rounded=0;whiteSpace=wrap;html=1;container=1;collapsible=0;" vertex="1" parent="1">
          <mxGeometry x="620" y="500" width="80" height="20" as="geometry" />
        </mxCell>
        <mxCell id="Qitno2q80DYZ7B1CduvV-99" value="&lt;font face=&quot;Times New Roman&quot;&gt;block_head&lt;/font&gt;" style="text;html=1;strokeColor=none;fillColor=none;align=left;verticalAlign=middle;whiteSpace=wrap;rounded=0;container=0;" vertex="1" parent="Qitno2q80DYZ7B1CduvV-98">
          <mxGeometry width="40" height="20" as="geometry" />
        </mxCell>
        <mxCell id="Qitno2q80DYZ7B1CduvV-111" value="" style="shape=waypoint;sketch=0;fillStyle=solid;size=6;pointerEvents=1;points=[];fillColor=#f8cecc;resizable=0;rotatable=0;perimeter=centerPerimeter;snapToPoint=1;strokeColor=#b85450;fontFamily=Times New Roman;" vertex="1" parent="Qitno2q80DYZ7B1CduvV-98">
          <mxGeometry x="60" width="20" height="20" as="geometry" />
        </mxCell>
        <mxCell id="Qitno2q80DYZ7B1CduvV-100" value="" style="rounded=0;whiteSpace=wrap;html=1;container=1;collapsible=0;" vertex="1" parent="1">
          <mxGeometry x="620" y="600" width="80" height="20" as="geometry" />
        </mxCell>
        <mxCell id="Qitno2q80DYZ7B1CduvV-101" value="&lt;font face=&quot;Times New Roman&quot;&gt;block_head&lt;/font&gt;" style="text;html=1;strokeColor=none;fillColor=none;align=left;verticalAlign=middle;whiteSpace=wrap;rounded=0;container=0;" vertex="1" parent="Qitno2q80DYZ7B1CduvV-100">
          <mxGeometry width="40" height="20" as="geometry" />
        </mxCell>
        <mxCell id="Qitno2q80DYZ7B1CduvV-122" value="" style="shape=waypoint;sketch=0;fillStyle=solid;size=6;pointerEvents=1;points=[];fillColor=#f8cecc;resizable=0;rotatable=0;perimeter=centerPerimeter;snapToPoint=1;strokeColor=#b85450;fontFamily=Times New Roman;" vertex="1" parent="Qitno2q80DYZ7B1CduvV-100">
          <mxGeometry x="60" width="20" height="20" as="geometry" />
        </mxCell>
        <mxCell id="Qitno2q80DYZ7B1CduvV-102" value="" style="rounded=0;whiteSpace=wrap;html=1;container=1;collapsible=0;" vertex="1" parent="1">
          <mxGeometry x="620" y="700" width="80" height="20" as="geometry" />
        </mxCell>
        <mxCell id="Qitno2q80DYZ7B1CduvV-103" value="&lt;font face=&quot;Times New Roman&quot;&gt;block_head&lt;/font&gt;" style="text;html=1;strokeColor=none;fillColor=none;align=left;verticalAlign=middle;whiteSpace=wrap;rounded=0;container=0;" vertex="1" parent="Qitno2q80DYZ7B1CduvV-102">
          <mxGeometry width="40" height="20" as="geometry" />
        </mxCell>
        <mxCell id="Qitno2q80DYZ7B1CduvV-108" value="" style="shape=waypoint;sketch=0;fillStyle=solid;size=6;pointerEvents=1;points=[];fillColor=#d5e8d4;resizable=0;rotatable=0;perimeter=centerPerimeter;snapToPoint=1;strokeColor=#82b366;fontFamily=Times New Roman;container=0;" vertex="1" parent="Qitno2q80DYZ7B1CduvV-102">
          <mxGeometry x="60" width="20" height="20" as="geometry" />
        </mxCell>
        <mxCell id="Qitno2q80DYZ7B1CduvV-104" value="" style="rounded=0;whiteSpace=wrap;html=1;container=1;collapsible=0;" vertex="1" parent="1">
          <mxGeometry x="620" y="760" width="80" height="20" as="geometry" />
        </mxCell>
        <mxCell id="Qitno2q80DYZ7B1CduvV-105" value="&lt;font face=&quot;Times New Roman&quot;&gt;block_head&lt;/font&gt;" style="text;html=1;strokeColor=none;fillColor=none;align=left;verticalAlign=middle;whiteSpace=wrap;rounded=0;container=0;" vertex="1" parent="Qitno2q80DYZ7B1CduvV-104">
          <mxGeometry width="40" height="20" as="geometry" />
        </mxCell>
        <mxCell id="Qitno2q80DYZ7B1CduvV-112" value="" style="shape=waypoint;sketch=0;fillStyle=solid;size=6;pointerEvents=1;points=[];fillColor=#f8cecc;resizable=0;rotatable=0;perimeter=centerPerimeter;snapToPoint=1;strokeColor=#b85450;fontFamily=Times New Roman;" vertex="1" parent="Qitno2q80DYZ7B1CduvV-104">
          <mxGeometry x="60" width="20" height="20" as="geometry" />
        </mxCell>
        <mxCell id="Qitno2q80DYZ7B1CduvV-114" value="" style="rounded=0;whiteSpace=wrap;html=1;fillColor=#f8cecc;strokeColor=#b85450;" vertex="1" parent="1">
          <mxGeometry x="620" y="520" width="80" height="80" as="geometry" />
        </mxCell>
        <mxCell id="Qitno2q80DYZ7B1CduvV-115" value="" style="rounded=0;whiteSpace=wrap;html=1;fillColor=#f8cecc;strokeColor=#b85450;" vertex="1" parent="1">
          <mxGeometry x="620" y="620" width="80" height="80" as="geometry" />
        </mxCell>
        <mxCell id="Qitno2q80DYZ7B1CduvV-116" value="" style="rounded=0;whiteSpace=wrap;html=1;fillColor=#f8cecc;strokeColor=#b85450;" vertex="1" parent="1">
          <mxGeometry x="520" y="540" width="80" height="80" as="geometry" />
        </mxCell>
        <mxCell id="Qitno2q80DYZ7B1CduvV-117" value="" style="rounded=0;whiteSpace=wrap;html=1;fillColor=#f8cecc;strokeColor=#b85450;" vertex="1" parent="1">
          <mxGeometry x="620" y="780" width="80" height="80" as="geometry" />
        </mxCell>
        <mxCell id="Qitno2q80DYZ7B1CduvV-119" value="" style="rounded=0;whiteSpace=wrap;html=1;fillColor=#d5e8d4;strokeColor=#82b366;" vertex="1" parent="1">
          <mxGeometry x="620" y="720" width="80" height="40" as="geometry" />
        </mxCell>
        <mxCell id="Qitno2q80DYZ7B1CduvV-120" value="" style="rounded=0;whiteSpace=wrap;html=1;fillColor=#d5e8d4;strokeColor=#82b366;" vertex="1" parent="1">
          <mxGeometry x="520" y="640" width="80" height="40" as="geometry" />
        </mxCell>
        <mxCell id="Qitno2q80DYZ7B1CduvV-123" value="" style="rounded=0;whiteSpace=wrap;html=1;container=1;collapsible=0;" vertex="1" parent="1">
          <mxGeometry x="620" y="480" width="80" height="20" as="geometry" />
        </mxCell>
        <mxCell id="Qitno2q80DYZ7B1CduvV-124" value="&lt;font face=&quot;Times New Roman&quot;&gt;chunk_head&lt;/font&gt;" style="text;html=1;strokeColor=none;fillColor=none;align=left;verticalAlign=middle;whiteSpace=wrap;rounded=0;container=0;" vertex="1" parent="Qitno2q80DYZ7B1CduvV-123">
          <mxGeometry width="40" height="20" as="geometry" />
        </mxCell>
        <mxCell id="Qitno2q80DYZ7B1CduvV-13" value="" style="shape=waypoint;sketch=0;fillStyle=solid;size=6;pointerEvents=1;points=[];fillColor=#fff2cc;resizable=0;rotatable=0;perimeter=centerPerimeter;snapToPoint=1;strokeColor=#d6b656;fontFamily=Times New Roman;container=0;" vertex="1" parent="Qitno2q80DYZ7B1CduvV-123">
          <mxGeometry x="60" width="20" height="20" as="geometry" />
        </mxCell>
        <mxCell id="Qitno2q80DYZ7B1CduvV-125" value="" style="rounded=0;whiteSpace=wrap;html=1;container=1;collapsible=0;" vertex="1" parent="1">
          <mxGeometry x="520" y="500" width="80" height="20" as="geometry" />
        </mxCell>
        <mxCell id="Qitno2q80DYZ7B1CduvV-126" value="&lt;font face=&quot;Times New Roman&quot;&gt;chunk_head&lt;/font&gt;" style="text;html=1;strokeColor=none;fillColor=none;align=left;verticalAlign=middle;whiteSpace=wrap;rounded=0;container=0;" vertex="1" parent="Qitno2q80DYZ7B1CduvV-125">
          <mxGeometry width="40" height="20" as="geometry" />
        </mxCell>
        <mxCell id="Qitno2q80DYZ7B1CduvV-127" value="" style="shape=waypoint;sketch=0;fillStyle=solid;size=6;pointerEvents=1;points=[];fillColor=#fff2cc;resizable=0;rotatable=0;perimeter=centerPerimeter;snapToPoint=1;strokeColor=#d6b656;fontFamily=Times New Roman;container=0;" vertex="1" parent="Qitno2q80DYZ7B1CduvV-125">
          <mxGeometry x="60" width="20" height="20" as="geometry" />
        </mxCell>
        <mxCell id="Qitno2q80DYZ7B1CduvV-128" value="" style="endArrow=none;html=1;rounded=0;curved=1;edgeStyle=orthogonalEdgeStyle;fillColor=#fff2cc;strokeColor=#d6b656;" edge="1" parent="1" source="b1HE1u7_gCCXnFTm9jQ6-19" target="Qitno2q80DYZ7B1CduvV-127">
          <mxGeometry width="50" height="50" relative="1" as="geometry">
            <mxPoint x="430" y="460" as="sourcePoint" />
            <mxPoint x="550" y="480" as="targetPoint" />
            <Array as="points">
              <mxPoint x="290" y="450" />
              <mxPoint x="590" y="450" />
            </Array>
          </mxGeometry>
        </mxCell>
        <mxCell id="Qitno2q80DYZ7B1CduvV-129" value="" style="endArrow=none;html=1;rounded=0;curved=1;exitX=0.621;exitY=0.9;exitDx=0;exitDy=0;exitPerimeter=0;edgeStyle=orthogonalEdgeStyle;fillColor=#fff2cc;strokeColor=#d6b656;" edge="1" parent="1" source="Qitno2q80DYZ7B1CduvV-127" target="Qitno2q80DYZ7B1CduvV-13">
          <mxGeometry width="50" height="50" relative="1" as="geometry">
            <mxPoint x="440" y="520" as="sourcePoint" />
            <mxPoint x="560" y="500" as="targetPoint" />
            <Array as="points">
              <mxPoint x="590" y="460" />
              <mxPoint x="690" y="460" />
            </Array>
          </mxGeometry>
        </mxCell>
        <mxCell id="Qitno2q80DYZ7B1CduvV-130" value="" style="endArrow=none;html=1;rounded=0;curved=1;edgeStyle=orthogonalEdgeStyle;fillColor=#e1d5e7;strokeColor=#9673a6;startArrow=block;startFill=1;" edge="1" parent="1" source="u-a9a4mZY9M94JKzBjzO-4" target="b1HE1u7_gCCXnFTm9jQ6-46">
          <mxGeometry width="50" height="50" relative="1" as="geometry">
            <mxPoint x="269.99" y="595" as="sourcePoint" />
            <mxPoint x="389.99" y="615" as="targetPoint" />
            <Array as="points">
              <mxPoint x="290" y="570" />
            </Array>
          </mxGeometry>
        </mxCell>
        <mxCell id="Qitno2q80DYZ7B1CduvV-131" value="" style="endArrow=none;html=1;rounded=0;curved=1;edgeStyle=orthogonalEdgeStyle;fillColor=#d5e8d4;strokeColor=#82b366;" edge="1" parent="1" source="u-a9a4mZY9M94JKzBjzO-5" target="Qitno2q80DYZ7B1CduvV-106">
          <mxGeometry width="50" height="50" relative="1" as="geometry">
            <mxPoint x="440" y="480" as="sourcePoint" />
            <mxPoint x="670" y="710" as="targetPoint" />
            <Array as="points">
              <mxPoint x="590" y="570" />
            </Array>
          </mxGeometry>
        </mxCell>
        <mxCell id="Qitno2q80DYZ7B1CduvV-133" value="" style="endArrow=none;html=1;rounded=0;curved=1;edgeStyle=orthogonalEdgeStyle;fillColor=#d5e8d4;strokeColor=#82b366;" edge="1" parent="1" source="Qitno2q80DYZ7B1CduvV-108" target="Qitno2q80DYZ7B1CduvV-106">
          <mxGeometry width="50" height="50" relative="1" as="geometry">
            <mxPoint x="720" y="710" as="sourcePoint" />
            <mxPoint x="560" y="680" as="targetPoint" />
            <Array as="points">
              <mxPoint x="690" y="630" />
            </Array>
          </mxGeometry>
        </mxCell>
        <mxCell id="Qitno2q80DYZ7B1CduvV-134" value="" style="endArrow=none;html=1;rounded=0;curved=1;edgeStyle=orthogonalEdgeStyle;fillColor=#f8cecc;strokeColor=#b85450;" edge="1" parent="1" source="Qitno2q80DYZ7B1CduvV-6" target="Qitno2q80DYZ7B1CduvV-109">
          <mxGeometry width="50" height="50" relative="1" as="geometry">
            <mxPoint x="400" y="610" as="sourcePoint" />
            <mxPoint x="550" y="540" as="targetPoint" />
            <Array as="points">
              <mxPoint x="590" y="590" />
            </Array>
          </mxGeometry>
        </mxCell>
        <mxCell id="Qitno2q80DYZ7B1CduvV-136" value="" style="endArrow=none;html=1;rounded=0;curved=1;edgeStyle=orthogonalEdgeStyle;fillColor=#f8cecc;strokeColor=#b85450;" edge="1" parent="1" target="Qitno2q80DYZ7B1CduvV-122">
          <mxGeometry width="50" height="50" relative="1" as="geometry">
            <mxPoint x="690" y="510" as="sourcePoint" />
            <mxPoint x="1030" y="500" as="targetPoint" />
            <Array as="points">
              <mxPoint x="710" y="510" />
              <mxPoint x="710" y="610" />
            </Array>
          </mxGeometry>
        </mxCell>
        <mxCell id="Qitno2q80DYZ7B1CduvV-139" value="" style="endArrow=none;html=1;rounded=0;curved=1;edgeStyle=orthogonalEdgeStyle;fillColor=#f8cecc;strokeColor=#b85450;" edge="1" parent="1" source="Qitno2q80DYZ7B1CduvV-109" target="Qitno2q80DYZ7B1CduvV-111">
          <mxGeometry width="50" height="50" relative="1" as="geometry">
            <mxPoint x="680" y="520" as="sourcePoint" />
            <mxPoint x="680" y="620" as="targetPoint" />
            <Array as="points">
              <mxPoint x="690" y="530" />
            </Array>
          </mxGeometry>
        </mxCell>
        <mxCell id="Qitno2q80DYZ7B1CduvV-140" value="" style="rounded=0;whiteSpace=wrap;html=1;fillColor=#fff2cc;strokeColor=#d6b656;" vertex="1" parent="1">
          <mxGeometry x="520" y="740" width="80" height="120" as="geometry" />
        </mxCell>
        <mxCell id="Qitno2q80DYZ7B1CduvV-142" value="" style="rounded=0;whiteSpace=wrap;html=1;container=1;collapsible=0;" vertex="1" parent="1">
          <mxGeometry x="520" y="680" width="80" height="20" as="geometry" />
        </mxCell>
        <mxCell id="Qitno2q80DYZ7B1CduvV-143" value="&lt;font face=&quot;Times New Roman&quot;&gt;block_head&lt;/font&gt;" style="text;html=1;strokeColor=none;fillColor=none;align=left;verticalAlign=middle;whiteSpace=wrap;rounded=0;container=0;" vertex="1" parent="Qitno2q80DYZ7B1CduvV-142">
          <mxGeometry width="40" height="20" as="geometry" />
        </mxCell>
        <mxCell id="Qitno2q80DYZ7B1CduvV-148" value="" style="shape=waypoint;sketch=0;fillStyle=solid;size=6;pointerEvents=1;points=[];fillColor=#d5e8d4;resizable=0;rotatable=0;perimeter=centerPerimeter;snapToPoint=1;strokeColor=#82b366;fontFamily=Times New Roman;container=0;" vertex="1" parent="Qitno2q80DYZ7B1CduvV-142">
          <mxGeometry x="60" width="20" height="20" as="geometry" />
        </mxCell>
        <mxCell id="Qitno2q80DYZ7B1CduvV-144" value="" style="rounded=0;whiteSpace=wrap;html=1;fillColor=#d5e8d4;strokeColor=#82b366;" vertex="1" parent="1">
          <mxGeometry x="520" y="700" width="80" height="40" as="geometry" />
        </mxCell>
        <mxCell id="Qitno2q80DYZ7B1CduvV-149" value="" style="rounded=0;whiteSpace=wrap;html=1;fillColor=#dae8fc;strokeColor=#6c8ebf;" vertex="1" parent="1">
          <mxGeometry x="80" y="700" width="80" height="160" as="geometry" />
        </mxCell>
        <mxCell id="Qitno2q80DYZ7B1CduvV-153" value="" style="rounded=0;whiteSpace=wrap;html=1;container=1;collapsible=0;" vertex="1" parent="1">
          <mxGeometry x="80" y="680" width="80" height="20" as="geometry" />
        </mxCell>
        <mxCell id="Qitno2q80DYZ7B1CduvV-154" value="&lt;font face=&quot;Times New Roman&quot;&gt;block_head&lt;/font&gt;" style="text;html=1;strokeColor=none;fillColor=none;align=left;verticalAlign=middle;whiteSpace=wrap;rounded=0;container=0;" vertex="1" parent="Qitno2q80DYZ7B1CduvV-153">
          <mxGeometry width="40" height="20" as="geometry" />
        </mxCell>
        <mxCell id="Qitno2q80DYZ7B1CduvV-157" value="" style="shape=waypoint;sketch=0;fillStyle=solid;size=6;pointerEvents=1;points=[];fillColor=#dae8fc;resizable=0;rotatable=0;perimeter=centerPerimeter;snapToPoint=1;strokeColor=#6c8ebf;" vertex="1" parent="Qitno2q80DYZ7B1CduvV-153">
          <mxGeometry x="60" width="20" height="20" as="geometry" />
        </mxCell>
        <mxCell id="Qitno2q80DYZ7B1CduvV-155" value="" style="rounded=0;whiteSpace=wrap;html=1;container=1;collapsible=0;" vertex="1" parent="1">
          <mxGeometry x="180" y="680" width="80" height="20" as="geometry" />
        </mxCell>
        <mxCell id="Qitno2q80DYZ7B1CduvV-156" value="&lt;font face=&quot;Times New Roman&quot;&gt;block_head&lt;/font&gt;" style="text;html=1;strokeColor=none;fillColor=none;align=left;verticalAlign=middle;whiteSpace=wrap;rounded=0;container=0;" vertex="1" parent="Qitno2q80DYZ7B1CduvV-155">
          <mxGeometry width="40" height="20" as="geometry" />
        </mxCell>
        <mxCell id="Qitno2q80DYZ7B1CduvV-158" value="" style="shape=waypoint;sketch=0;fillStyle=solid;size=6;pointerEvents=1;points=[];fillColor=#dae8fc;resizable=0;rotatable=0;perimeter=centerPerimeter;snapToPoint=1;strokeColor=#6c8ebf;" vertex="1" parent="Qitno2q80DYZ7B1CduvV-155">
          <mxGeometry x="60" width="20" height="20" as="geometry" />
        </mxCell>
        <mxCell id="Qitno2q80DYZ7B1CduvV-159" value="" style="rounded=0;whiteSpace=wrap;html=1;fillColor=#dae8fc;strokeColor=#6c8ebf;" vertex="1" parent="1">
          <mxGeometry x="180" y="700" width="80" height="160" as="geometry" />
        </mxCell>
        <mxCell id="Qitno2q80DYZ7B1CduvV-160" value="" style="endArrow=none;html=1;rounded=0;curved=1;edgeStyle=orthogonalEdgeStyle;fillColor=#dae8fc;strokeColor=#6c8ebf;" edge="1" parent="1" source="b1HE1u7_gCCXnFTm9jQ6-48" target="Qitno2q80DYZ7B1CduvV-158">
          <mxGeometry width="50" height="50" relative="1" as="geometry">
            <mxPoint x="460" y="560" as="sourcePoint" />
            <mxPoint x="600" y="640" as="targetPoint" />
            <Array as="points">
              <mxPoint x="290" y="650" />
            </Array>
          </mxGeometry>
        </mxCell>
        <mxCell id="Qitno2q80DYZ7B1CduvV-162" value="" style="endArrow=none;html=1;rounded=0;curved=1;edgeStyle=orthogonalEdgeStyle;fillColor=#dae8fc;strokeColor=#6c8ebf;" edge="1" parent="1" source="Qitno2q80DYZ7B1CduvV-158" target="Qitno2q80DYZ7B1CduvV-157">
          <mxGeometry width="50" height="50" relative="1" as="geometry">
            <mxPoint x="230" y="630" as="sourcePoint" />
            <mxPoint x="190" y="690" as="targetPoint" />
            <Array as="points">
              <mxPoint x="250" y="670" />
              <mxPoint x="150" y="670" />
            </Array>
          </mxGeometry>
        </mxCell>
        <mxCell id="Vkxr6uHtjtV82lN7R23r-1" value="用户正在使用的内存块" style="shape=note;whiteSpace=wrap;html=1;backgroundOutline=1;darkOpacity=0.05;size=10;container=1;collapsible=0;fontFamily=Times New Roman;align=center;" vertex="1" parent="1">
          <mxGeometry x="320.31" y="720" width="159.69" height="20" as="geometry" />
        </mxCell>
        <mxCell id="Vkxr6uHtjtV82lN7R23r-2" value="已归还的block，链入 free_list" style="shape=note;whiteSpace=wrap;html=1;backgroundOutline=1;darkOpacity=0.05;size=10;container=1;collapsible=0;fontFamily=Times New Roman;align=center;" vertex="1" parent="1">
          <mxGeometry x="320.31" y="680" width="179.69" height="20" as="geometry" />
        </mxCell>
        <mxCell id="Vkxr6uHtjtV82lN7R23r-3" value="" style="endArrow=none;dashed=1;html=1;rounded=0;curved=1;" edge="1" parent="1" source="Vkxr6uHtjtV82lN7R23r-2" target="u-a9a4mZY9M94JKzBjzO-12">
          <mxGeometry width="50" height="50" relative="1" as="geometry">
            <mxPoint x="410" y="700" as="sourcePoint" />
            <mxPoint x="460" y="650" as="targetPoint" />
          </mxGeometry>
        </mxCell>
        <mxCell id="Vkxr6uHtjtV82lN7R23r-4" value="" style="endArrow=none;dashed=1;html=1;rounded=0;curved=1;fillColor=#d5e8d4;strokeColor=#82b366;" edge="1" parent="1" source="Vkxr6uHtjtV82lN7R23r-1" target="Qitno2q80DYZ7B1CduvV-144">
          <mxGeometry width="50" height="50" relative="1" as="geometry">
            <mxPoint x="423" y="690" as="sourcePoint" />
            <mxPoint x="437" y="650" as="targetPoint" />
          </mxGeometry>
        </mxCell>
        <mxCell id="Vkxr6uHtjtV82lN7R23r-5" value="" style="endArrow=none;dashed=1;html=1;rounded=0;curved=1;fillColor=#f8cecc;strokeColor=#b85450;" edge="1" parent="1" source="Vkxr6uHtjtV82lN7R23r-1" target="Qitno2q80DYZ7B1CduvV-117">
          <mxGeometry width="50" height="50" relative="1" as="geometry">
            <mxPoint x="510" y="730" as="sourcePoint" />
            <mxPoint x="530" y="730" as="targetPoint" />
          </mxGeometry>
        </mxCell>
        <mxCell id="Vkxr6uHtjtV82lN7R23r-6" value="当前使用的大内存块&amp;nbsp;chunk，&lt;br&gt;分配给用户的内存是从&amp;nbsp;chunk&amp;nbsp;中切出的小块&amp;nbsp;block" style="shape=note;whiteSpace=wrap;html=1;backgroundOutline=1;darkOpacity=0.05;size=10;container=1;collapsible=0;fontFamily=Times New Roman;align=left;" vertex="1" parent="1">
          <mxGeometry x="330" y="500" width="170" height="50" as="geometry" />
        </mxCell>
        <mxCell id="Vkxr6uHtjtV82lN7R23r-7" value="" style="endArrow=none;dashed=1;html=1;rounded=0;curved=1;" edge="1" parent="1" source="Vkxr6uHtjtV82lN7R23r-6" target="Qitno2q80DYZ7B1CduvV-126">
          <mxGeometry width="50" height="50" relative="1" as="geometry">
            <mxPoint x="460" y="470" as="sourcePoint" />
            <mxPoint x="510" y="420" as="targetPoint" />
          </mxGeometry>
        </mxCell>
        <mxCell id="Vkxr6uHtjtV82lN7R23r-8" value="单链串起已用尽的 chunk" style="shape=note;whiteSpace=wrap;html=1;backgroundOutline=1;darkOpacity=0.05;size=10;container=1;collapsible=0;fontFamily=Times New Roman;align=left;" vertex="1" parent="1">
          <mxGeometry x="380" y="470" width="150" height="20" as="geometry" />
        </mxCell>
        <mxCell id="Vkxr6uHtjtV82lN7R23r-9" value="" style="endArrow=none;dashed=1;html=1;rounded=0;curved=1;" edge="1" parent="1" source="Vkxr6uHtjtV82lN7R23r-8" target="Qitno2q80DYZ7B1CduvV-124">
          <mxGeometry width="50" height="50" relative="1" as="geometry">
            <mxPoint x="590" y="480" as="sourcePoint" />
            <mxPoint x="640" y="430" as="targetPoint" />
          </mxGeometry>
        </mxCell>
        <mxCell id="Vkxr6uHtjtV82lN7R23r-10" value="" style="endArrow=none;dashed=1;html=1;rounded=0;curved=1;entryX=0;entryY=0.75;entryDx=0;entryDy=0;fillColor=#f8cecc;strokeColor=#b85450;" edge="1" parent="1" source="Vkxr6uHtjtV82lN7R23r-2" target="Qitno2q80DYZ7B1CduvV-116">
          <mxGeometry width="50" height="50" relative="1" as="geometry">
            <mxPoint x="500" y="680" as="sourcePoint" />
            <mxPoint x="470" y="670" as="targetPoint" />
          </mxGeometry>
        </mxCell>
        <mxCell id="Vkxr6uHtjtV82lN7R23r-11" value="" style="endArrow=none;dashed=1;html=1;rounded=0;curved=1;entryX=0;entryY=0.75;entryDx=0;entryDy=0;fillColor=#f8cecc;strokeColor=#b85450;" edge="1" parent="1" source="Vkxr6uHtjtV82lN7R23r-2" target="Qitno2q80DYZ7B1CduvV-114">
          <mxGeometry width="50" height="50" relative="1" as="geometry">
            <mxPoint x="500" y="680" as="sourcePoint" />
            <mxPoint x="530" y="610" as="targetPoint" />
          </mxGeometry>
        </mxCell>
        <mxCell id="Vkxr6uHtjtV82lN7R23r-14" value="" style="endArrow=none;dashed=1;html=1;rounded=0;curved=1;entryX=0;entryY=0.5;entryDx=0;entryDy=0;fillColor=#f8cecc;strokeColor=#b85450;" edge="1" parent="1" source="Vkxr6uHtjtV82lN7R23r-2" target="Qitno2q80DYZ7B1CduvV-115">
          <mxGeometry width="50" height="50" relative="1" as="geometry">
            <mxPoint x="490" y="670" as="sourcePoint" />
            <mxPoint x="630" y="590" as="targetPoint" />
          </mxGeometry>
        </mxCell>
        <mxCell id="u-a9a4mZY9M94JKzBjzO-1" value="" style="shape=table;startSize=0;container=1;collapsible=0;childLayout=tableLayout;fontSize=12;fontFamily=Times New Roman;fillColor=#e1d5e7;strokeColor=#9673a6;" vertex="1" parent="1">
          <mxGeometry x="330" y="560" width="60" height="100" as="geometry" />
        </mxCell>
        <mxCell id="u-a9a4mZY9M94JKzBjzO-2" value="" style="shape=tableRow;horizontal=0;startSize=0;swimlaneHead=0;swimlaneBody=0;strokeColor=inherit;top=0;left=0;bottom=0;right=0;collapsible=0;dropTarget=0;fillColor=none;points=[[0,0.5],[1,0.5]];portConstraint=eastwest;fontSize=12;fontFamily=Times New Roman;" vertex="1" parent="u-a9a4mZY9M94JKzBjzO-1">
          <mxGeometry width="60" height="20" as="geometry" />
        </mxCell>
        <mxCell id="u-a9a4mZY9M94JKzBjzO-3" value="" style="shape=partialRectangle;html=1;whiteSpace=wrap;connectable=0;strokeColor=inherit;overflow=hidden;fillColor=none;top=0;left=0;bottom=0;right=0;pointerEvents=1;fontSize=12;fontFamily=Times New Roman;align=left;container=1;collapsible=0;" vertex="1" parent="u-a9a4mZY9M94JKzBjzO-2">
          <mxGeometry width="60" height="20" as="geometry">
            <mxRectangle width="60" height="20" as="alternateBounds" />
          </mxGeometry>
        </mxCell>
        <mxCell id="u-a9a4mZY9M94JKzBjzO-4" value="&lt;font face=&quot;Times New Roman&quot;&gt;list[0]&lt;/font&gt;" style="text;html=1;strokeColor=none;fillColor=none;align=left;verticalAlign=middle;whiteSpace=wrap;rounded=0;" vertex="1" parent="u-a9a4mZY9M94JKzBjzO-3">
          <mxGeometry width="40" height="20" as="geometry" />
        </mxCell>
        <mxCell id="u-a9a4mZY9M94JKzBjzO-5" value="" style="shape=waypoint;sketch=0;fillStyle=solid;size=6;pointerEvents=1;points=[];fillColor=#d5e8d4;resizable=0;rotatable=0;perimeter=centerPerimeter;snapToPoint=1;strokeColor=#82b366;fontFamily=Times New Roman;" vertex="1" parent="u-a9a4mZY9M94JKzBjzO-3">
          <mxGeometry x="40" width="20" height="20" as="geometry" />
        </mxCell>
        <mxCell id="u-a9a4mZY9M94JKzBjzO-6" value="" style="shape=tableRow;horizontal=0;startSize=0;swimlaneHead=0;swimlaneBody=0;strokeColor=inherit;top=0;left=0;bottom=0;right=0;collapsible=0;dropTarget=0;fillColor=none;points=[[0,0.5],[1,0.5]];portConstraint=eastwest;fontSize=12;fontFamily=Times New Roman;" vertex="1" parent="u-a9a4mZY9M94JKzBjzO-1">
          <mxGeometry y="20" width="60" height="20" as="geometry" />
        </mxCell>
        <mxCell id="u-a9a4mZY9M94JKzBjzO-7" value="" style="shape=partialRectangle;html=1;whiteSpace=wrap;connectable=0;strokeColor=inherit;overflow=hidden;fillColor=none;top=0;left=0;bottom=0;right=0;pointerEvents=1;fontSize=12;fontFamily=Times New Roman;align=left;container=1;collapsible=0;" vertex="1" parent="u-a9a4mZY9M94JKzBjzO-6">
          <mxGeometry width="60" height="20" as="geometry">
            <mxRectangle width="60" height="20" as="alternateBounds" />
          </mxGeometry>
        </mxCell>
        <mxCell id="Qitno2q80DYZ7B1CduvV-5" value="&lt;font face=&quot;Times New Roman&quot;&gt;list[1]&lt;/font&gt;" style="text;html=1;strokeColor=none;fillColor=none;align=left;verticalAlign=middle;whiteSpace=wrap;rounded=0;" vertex="1" parent="u-a9a4mZY9M94JKzBjzO-7">
          <mxGeometry width="40" height="20" as="geometry" />
        </mxCell>
        <mxCell id="Qitno2q80DYZ7B1CduvV-6" value="" style="shape=waypoint;sketch=0;fillStyle=solid;size=6;pointerEvents=1;points=[];fillColor=#f8cecc;resizable=0;rotatable=0;perimeter=centerPerimeter;snapToPoint=1;strokeColor=#b85450;fontFamily=Times New Roman;" vertex="1" parent="u-a9a4mZY9M94JKzBjzO-7">
          <mxGeometry x="40" width="20" height="20" as="geometry" />
        </mxCell>
        <mxCell id="u-a9a4mZY9M94JKzBjzO-8" value="" style="shape=tableRow;horizontal=0;startSize=0;swimlaneHead=0;swimlaneBody=0;strokeColor=inherit;top=0;left=0;bottom=0;right=0;collapsible=0;dropTarget=0;fillColor=none;points=[[0,0.5],[1,0.5]];portConstraint=eastwest;fontSize=12;fontFamily=Times New Roman;" vertex="1" parent="u-a9a4mZY9M94JKzBjzO-1">
          <mxGeometry y="40" width="60" height="20" as="geometry" />
        </mxCell>
        <mxCell id="u-a9a4mZY9M94JKzBjzO-9" value="list[2]" style="shape=partialRectangle;html=1;whiteSpace=wrap;connectable=0;strokeColor=inherit;overflow=hidden;fillColor=none;top=0;left=0;bottom=0;right=0;pointerEvents=1;fontSize=12;fontFamily=Times New Roman;align=left;" vertex="1" parent="u-a9a4mZY9M94JKzBjzO-8">
          <mxGeometry width="60" height="20" as="geometry">
            <mxRectangle width="60" height="20" as="alternateBounds" />
          </mxGeometry>
        </mxCell>
        <mxCell id="u-a9a4mZY9M94JKzBjzO-10" style="shape=tableRow;horizontal=0;startSize=0;swimlaneHead=0;swimlaneBody=0;strokeColor=inherit;top=0;left=0;bottom=0;right=0;collapsible=0;dropTarget=0;fillColor=none;points=[[0,0.5],[1,0.5]];portConstraint=eastwest;fontSize=12;fontFamily=Times New Roman;" vertex="1" parent="u-a9a4mZY9M94JKzBjzO-1">
          <mxGeometry y="60" width="60" height="20" as="geometry" />
        </mxCell>
        <mxCell id="u-a9a4mZY9M94JKzBjzO-11" value="list[3]" style="shape=partialRectangle;html=1;whiteSpace=wrap;connectable=0;strokeColor=inherit;overflow=hidden;fillColor=none;top=0;left=0;bottom=0;right=0;pointerEvents=1;fontSize=12;fontFamily=Times New Roman;align=left;" vertex="1" parent="u-a9a4mZY9M94JKzBjzO-10">
          <mxGeometry width="60" height="20" as="geometry">
            <mxRectangle width="60" height="20" as="alternateBounds" />
          </mxGeometry>
        </mxCell>
        <mxCell id="u-a9a4mZY9M94JKzBjzO-12" style="shape=tableRow;horizontal=0;startSize=0;swimlaneHead=0;swimlaneBody=0;strokeColor=inherit;top=0;left=0;bottom=0;right=0;collapsible=0;dropTarget=0;fillColor=none;points=[[0,0.5],[1,0.5]];portConstraint=eastwest;fontSize=12;fontFamily=Times New Roman;" vertex="1" parent="u-a9a4mZY9M94JKzBjzO-1">
          <mxGeometry y="80" width="60" height="20" as="geometry" />
        </mxCell>
        <mxCell id="u-a9a4mZY9M94JKzBjzO-13" value="&amp;nbsp; ..." style="shape=partialRectangle;html=1;whiteSpace=wrap;connectable=0;strokeColor=inherit;overflow=hidden;fillColor=none;top=0;left=0;bottom=0;right=0;pointerEvents=1;fontSize=12;fontFamily=Times New Roman;align=left;" vertex="1" parent="u-a9a4mZY9M94JKzBjzO-12">
          <mxGeometry width="60" height="20" as="geometry">
            <mxRectangle width="60" height="20" as="alternateBounds" />
          </mxGeometry>
        </mxCell>
        <mxCell id="Vkxr6uHtjtV82lN7R23r-15" value="" style="endArrow=none;dashed=1;html=1;rounded=0;curved=1;fillColor=#d5e8d4;strokeColor=#82b366;" edge="1" parent="1" source="Vkxr6uHtjtV82lN7R23r-1" target="Qitno2q80DYZ7B1CduvV-119">
          <mxGeometry width="50" height="50" relative="1" as="geometry">
            <mxPoint x="443" y="730" as="sourcePoint" />
            <mxPoint x="630" y="812" as="targetPoint" />
          </mxGeometry>
        </mxCell>
        <mxCell id="Vkxr6uHtjtV82lN7R23r-16" value="chunk 未用尽的部分" style="shape=note;whiteSpace=wrap;html=1;backgroundOutline=1;darkOpacity=0.05;size=10;container=1;collapsible=0;fontFamily=Times New Roman;align=center;" vertex="1" parent="1">
          <mxGeometry x="320" y="760" width="160" height="20" as="geometry" />
        </mxCell>
        <mxCell id="Vkxr6uHtjtV82lN7R23r-17" value="" style="endArrow=none;dashed=1;html=1;rounded=0;curved=1;fillColor=#fff2cc;strokeColor=#d6b656;" edge="1" parent="1" source="Vkxr6uHtjtV82lN7R23r-16" target="Qitno2q80DYZ7B1CduvV-140">
          <mxGeometry width="50" height="50" relative="1" as="geometry">
            <mxPoint x="456" y="730" as="sourcePoint" />
            <mxPoint x="630" y="811" as="targetPoint" />
          </mxGeometry>
        </mxCell>
        <mxCell id="Vkxr6uHtjtV82lN7R23r-18" value="" style="endArrow=none;dashed=1;html=1;rounded=0;curved=1;fillColor=#d5e8d4;strokeColor=#82b366;" edge="1" parent="1" source="Vkxr6uHtjtV82lN7R23r-2" target="Qitno2q80DYZ7B1CduvV-120">
          <mxGeometry width="50" height="50" relative="1" as="geometry">
            <mxPoint x="510" y="681" as="sourcePoint" />
            <mxPoint x="630" y="670" as="targetPoint" />
          </mxGeometry>
        </mxCell>
        <mxCell id="Vkxr6uHtjtV82lN7R23r-19" value="若申请的内存块过大，则不从 chunk 中分配，而是另外分配" style="shape=note;whiteSpace=wrap;html=1;backgroundOutline=1;darkOpacity=0.05;size=10;container=1;collapsible=0;fontFamily=Times New Roman;align=center;" vertex="1" parent="1">
          <mxGeometry x="280" y="800" width="180" height="30" as="geometry" />
        </mxCell>
        <mxCell id="Vkxr6uHtjtV82lN7R23r-20" value="" style="endArrow=none;dashed=1;html=1;rounded=0;curved=1;fillColor=#dae8fc;strokeColor=#6c8ebf;" edge="1" parent="1" source="Qitno2q80DYZ7B1CduvV-159" target="Vkxr6uHtjtV82lN7R23r-19">
          <mxGeometry width="50" height="50" relative="1" as="geometry">
            <mxPoint x="443" y="730" as="sourcePoint" />
            <mxPoint x="630" y="812" as="targetPoint" />
          </mxGeometry>
        </mxCell>
      </root>
    </mxGraphModel>
  </diagram>
  <diagram id="h8UpzkWQ7mJzbUioZrzL" name="k_printf">
    <mxGraphModel dx="989" dy="582" grid="1" gridSize="10" guides="1" tooltips="1" connect="1" arrows="1" fold="1" page="1" pageScale="1" pageWidth="827" pageHeight="1169" math="0" shadow="0">
      <root>
        <mxCell id="0" />
        <mxCell id="1" parent="0" />
      </root>
    </mxGraphModel>
  </diagram>
</mxfile>
